<?xml version="1.0" standalone="no"?>
<!DOCTYPE svg PUBLIC "-//W3C//DTD SVG 1.1//EN" "http://www.w3.org/Graphics/SVG/1.1/DTD/svg11.dtd" >
<svg xmlns="http://www.w3.org/2000/svg" xmlns:xlink="http://www.w3.org/1999/xlink" version="1.1">
<metadata></metadata>
<defs>
<font id="devroyeregular" horiz-adv-x="1269" >
<font-face units-per-em="2048" ascent="1638" descent="-410" />
<missing-glyph horiz-adv-x="598" />
<glyph horiz-adv-x="0" />
<glyph horiz-adv-x="682" />
<glyph horiz-adv-x="794" d="M754 1745q-4 -35 -14.5 -77t-29 -79t-49 -61.5t-73.5 -24.5q-47 0 -76 25.5t-44 64.5t-19.5 84t-2.5 86q-41 -8 -64.5 -17t-33.5 -17.5t-13 -16.5t-3 -16q-6 -53 3 -101.5t33.5 -85t65.5 -58t101 -21.5q70 0 124 29.5t95 76.5t67.5 106.5t38.5 120.5z" />
<glyph horiz-adv-x="604" d="M571 1749q2 23 1 53.5t-8 57t-24.5 45t-47.5 18.5q-33 0 -55.5 -19.5t-37 -47t-22.5 -60.5t-10 -57q-2 -25 -1 -54.5t9 -55t26.5 -43t51.5 -17.5q31 0 52 19.5t35.5 47t21.5 58t9 55.5z" />
<glyph horiz-adv-x="794" d="M809 1733q8 80 -25.5 140t-121.5 60q-55 0 -99.5 -27.5t-75 -70.5t-49 -94t-24.5 -99q-8 -80 26.5 -138t122.5 -58q57 0 100.5 26.5t74 68.5t48 92.5t23.5 99.5zM723 1677q-2 -25 -9 -55.5t-21.5 -58t-36 -46t-54.5 -18.5q-37 0 -58.5 21.5t-31.5 52.5t-12 66.5t0 64.5 q2 27 10 57.5t23.5 56t38 43t57.5 17.5t55.5 -21.5t29.5 -52t10 -65.5t-1 -62z" />
<glyph unicode="&#xa;" horiz-adv-x="1181" d="M788 1812q2 23 0 48.5t-11 46t-26.5 34t-45.5 13.5q-53 0 -77 -39t-28 -84q-6 -51 -4 -101.5t-2 -101.5q-8 -66 -26.5 -110.5t-73.5 -87.5h-2q-18 -10 -21 -29q-2 -12 5 -26.5t22 -14.5q4 0 11 5t11 7h2q45 35 90 87t82 112.5t62.5 123t31.5 117.5zM1100 1808 q2 23 0 48.5t-11.5 46t-27 34t-45.5 13.5q-53 0 -77 -39t-28 -84q-6 -51 -4 -101.5t-4 -101.5q-6 -66 -24.5 -111t-73.5 -88h-2q-8 -4 -14.5 -11t-6.5 -17q-2 -12 5.5 -26.5t21.5 -14.5q4 0 11 5t9 7h2q45 35 90.5 87t83 112.5t63.5 123t32 117.5z" />
<glyph horiz-adv-x="995" d="M508 -745q41 61 59.5 118.5t26.5 126.5q6 61 -5 110.5t-26.5 93.5t-28 83t-8.5 78q0 4 -1 10t1 10q2 27 13.5 46.5t26 37t28.5 33.5t22 37l-100 2q-12 -29 -34.5 -76t-47 -102.5t-46 -114.5t-34.5 -115q-6 -45 5.5 -70.5t31 -38.5t42 -19.5t43 -15.5t31.5 -25.5t9 -49.5 q-4 -39 -19.5 -76.5t-31.5 -72.5z" />
<glyph horiz-adv-x="1441" d="M1221 2167q-2 -10 -26 -42t-53.5 -70t-57 -71.5t-37.5 -48.5q-6 -6 -33 -40.5t-58.5 -74.5t-59.5 -72t-34 -32h-26t-27 2q-6 10 -21.5 47t-34 86.5t-39 104.5t-36.5 103t-26.5 83t-8.5 41q2 12 19 12h12q33 0 39 -6t18 -37l115 -286l22 12l195 266q23 31 34 42.5t46 11.5 h16q20 0 43 -4.5t19 -22.5v-4z" />
<glyph unicode="&#xd;" horiz-adv-x="598" />
<glyph horiz-adv-x="1841" d="M2048 2060l-100 66l-1872 -2579l100 -65z" />
<glyph horiz-adv-x="1243" d="M1200 20l-4 72q-45 -10 -88 -10q-39 0 -56.5 51t-22.5 126t0 162t13 161q6 53 11.5 92t7.5 55q12 119 17 236.5t3 236.5h-575q6 53 15 121t25.5 138.5t43 137t66.5 120t96.5 85t132.5 31.5q63 0 88.5 -31.5t37 -70.5t20.5 -71t42 -32h19q27 0 38 6t15 41q4 37 8 70t8 59 q4 39 1 68t-21.5 47t-56 27.5t-103.5 9.5q-121 0 -215 -49t-166 -128t-123 -179.5t-84 -204.5q-4 -14 -11 -37t-14.5 -46.5t-16.5 -44t-17 -30.5q-23 -29 -49.5 -33t-57.5 -4l-12 -115h100q-12 -61 -20 -122.5t-16 -122.5l-54 -514q-4 -39 -9 -81t-9 -83q-4 -33 -6 -63.5 t0 -59.5q0 -25 3 -33t32 -8h28q31 0 61.5 7t47.5 36q8 18 18 66.5t17.5 103.5t13.5 107.5t10 76.5q16 160 26.5 318.5t26.5 318.5l9 64h471q-18 -70 -30.5 -139.5t-27.5 -141.5q-29 -150 -52.5 -299t-39.5 -301q-4 -41 -5 -83t10 -76.5t39 -56t81 -21.5q66 0 130 15t130 25z " />
<glyph horiz-adv-x="1288" d="M1243 20l-4 72q-20 -4 -41.5 -7t-42.5 -3q-43 0 -60.5 51t-21.5 121t1 137.5t9 102.5v8q2 31 10.5 105.5t18.5 178t21.5 224t21.5 244.5t19.5 240t13.5 207t4 148q0 59 -8 68q-12 12 -38 20.5t-55.5 13.5t-58 7t-47.5 2q-123 0 -218 -48t-167 -128t-123 -181.5 t-84 -205.5q-4 -14 -11 -37t-14.5 -46.5t-16.5 -44t-17 -30.5q-23 -29 -49.5 -33t-57.5 -4l-12 -115h100q-25 -129 -36 -258l-50 -473q-4 -43 -10 -89t-12 -93q-4 -35 -6 -67.5t0 -65.5q0 -23 4 -32t31 -9h28q31 0 61.5 7t47.5 36q8 18 18 66.5t17.5 104.5t13.5 107.5 t10 75.5q16 160 26.5 318.5t26.5 318.5l7 53h280q29 0 36 11.5t11 40.5l6 63h-319q6 55 16 125t26.5 139.5t44.5 136t68.5 119t98 83t135.5 30.5q63 0 96 -20.5t46.5 -55.5t12.5 -81t-8 -97q-10 -86 -23 -168t-28 -166q-39 -242 -68.5 -479.5t-56.5 -478.5l-4 -41 q-4 -43 -5 -90t9.5 -86t38 -64.5t80.5 -25.5q66 0 129 14t129 24z" />
<glyph horiz-adv-x="1118" d="M776 956l-71 95l-146 -121q10 135 20.5 268t20.5 268h199l10 82h-473l-10 -82h137q-37 -176 -65.5 -350t-53.5 -352l-256 -193l72 -96l166 123l-9 -84q-12 -109 -18 -216.5t-10 -215.5h-107l-8 -82h840q16 0 19 14.5t5 24.5q20 76 43 152.5t31 154.5q2 14 1 20.5t-17 6.5 q-53 0 -79 -19.5t-40 -50.5t-25.5 -64.5t-34 -64.5t-65.5 -50.5t-121 -19.5q-31 0 -57.5 -1t-50.5 -1q-33 0 -58.5 4.5t-42 19.5t-22.5 43t-2 75q14 131 25.5 262t23.5 264z" />
<glyph horiz-adv-x="626" d="M657 1126l-71 95l-101 -78q18 199 36 393.5t22 390.5h-287l-8 -74h182q-31 -152 -51.5 -301t-44.5 -301q-10 -66 -19.5 -128t-19.5 -128l-207 -159l72 -97l112 86q-18 -133 -33.5 -265t-29.5 -265l-6 -49q-4 -43 -5 -89t9 -84t37.5 -63.5t81.5 -25.5q66 0 130 16t130 27 l-2 71q-23 -4 -45.5 -8t-44.5 -4q-35 0 -52.5 20.5t-23.5 49t-4 62.5t4 58q12 178 24.5 352.5t28.5 352.5z" />
<glyph horiz-adv-x="1202" d="M1169 348q2 16 -10 20.5t-29 4.5h-26q-41 0 -62.5 -19.5t-36 -48.5t-27.5 -62.5t-38 -62t-67 -48t-111 -19.5q-100 0 -198.5 2t-203.5 12q115 170 235 335t230 337q68 104 132.5 208.5t129.5 209.5q39 63 75 127.5t81 125.5q8 12 16.5 24.5t16.5 25.5l-43 45 q-23 -10 -46.5 -16.5t-45.5 -6.5q-190 0 -376.5 7t-377.5 7q-49 0 -63.5 -17t-18.5 -64q-4 -35 -9 -71t-9 -71q-4 -29 -5 -56.5t3 -53.5q0 -14 8 -15q66 0 91.5 16.5t33.5 42t11 58.5t28 66q10 14 42.5 22t71.5 12.5t74 5.5t51 1q88 0 175 -3.5t176 -3.5l24 9 q-31 -39 -89 -112t-132 -167t-157 -203.5t-166 -221.5t-158.5 -219.5t-135 -198.5t-96.5 -159.5t-41 -101.5q-4 -35 17.5 -43t50.5 -8q188 0 373.5 -1t373.5 -1h35q35 0 73 8t52 45q8 20 24.5 62.5t32 88.5t27.5 87t14 59zM1196 2114q-2 -10 -25.5 -42t-53.5 -70t-56.5 -72 t-36.5 -48q-6 -6 -32.5 -41t-59.5 -75t-60.5 -71.5t-33.5 -31.5h-27q-12 0 -27 2q-6 10 -20 47t-33.5 86t-40 104.5t-37 103.5t-27 83t-8.5 41q4 12 19 12h12q33 0 40 -6t20 -37l112 -287l25 13l192 266q23 31 34 42t46 11h17q20 0 42.5 -4t20.5 -22z" />
<glyph horiz-adv-x="858" d="M817 256q-25 -57 -51.5 -84t-91.5 -27q-94 0 -184.5 19.5t-184.5 19.5q51 84 100.5 168t96.5 170q72 137 139.5 274.5t155.5 266.5h2q37 25 74.5 57.5t41.5 79.5q2 14 -4 31.5t-22 17.5q-31 -16 -52.5 -28.5t-43 -22.5t-46 -15t-61.5 -5t-72.5 8t-71.5 19.5t-72 19.5 t-73 8q-84 0 -113.5 -33t-37.5 -110l-15 -144h60q-4 20 2 58q4 33 14 62.5t33 29.5q20 0 35.5 -18.5t33 -41t41 -41t64.5 -18.5q29 0 57.5 10t61.5 10q-27 -41 -52.5 -84t-50.5 -86q-90 -166 -178 -330.5t-176 -332.5q-47 -10 -81 -37t-38 -76q-2 -20 3.5 -44.5t31.5 -24.5 q18 0 32.5 10t30 23.5t34 23.5t42.5 10q45 0 95.5 -23.5t102.5 -52t105.5 -52t106.5 -23.5t91 38.5t63.5 93t43 113t29.5 97.5zM977 1761q-2 -10 -25.5 -41.5t-53.5 -69.5t-56.5 -72t-36.5 -48q-6 -6 -33 -41t-59.5 -75t-60 -71.5t-34.5 -31.5h-26t-25 2q-6 10 -21.5 47 t-34.5 86t-39.5 104.5t-37 103.5t-27 83t-8.5 41q4 12 19 12h12q33 0 40 -6t19 -37l113 -287l25 13l192 266q23 31 34 42t46 11h16q20 0 43 -4t21 -23zM815 258h-2v-2zM817 256v2h-2z" />
<glyph unicode=" "  horiz-adv-x="598" />
<glyph unicode="&#x09;" horiz-adv-x="598" />
<glyph unicode="&#xa0;" horiz-adv-x="598" />
<glyph unicode="!" horiz-adv-x="471" d="M483 1493l2 31q2 27 6.5 66.5t4.5 78.5t-6.5 68.5t-20.5 36.5q-16 10 -32.5 11t-37.5 1q-43 0 -68.5 -20.5t-41 -51.5t-22.5 -67.5t-9 -67.5q-29 -287 -36 -568.5t-21 -566.5q0 -16 -1 -36.5t3 -39t14 -30.5t33 -12q27 0 36 16t17 39q18 61 28.5 125.5t20.5 128.5 q35 215 71.5 429t59.5 429zM311 8q2 23 2 53q0 31 -7 58.5t-23.5 46t-46.5 18.5q-33 0 -55.5 -19.5t-37 -47t-21.5 -60t-9 -57.5q-4 -25 -3 -54.5t9 -56t25.5 -44t50.5 -17.5q31 0 52 19.5t34.5 47t20.5 59t9 54.5z" />
<glyph unicode="&#x22;" horiz-adv-x="843" d="M528 1804q2 25 0 52.5t-11 49t-27.5 36t-49.5 14.5t-53 -14.5t-37.5 -36t-24 -48t-10.5 -51.5q-6 -47 -2 -93t0 -93q-8 -72 -47 -147.5t-98 -122.5v-2q0 -2 -2 0q-20 -14 -21 -33q-2 -10 3.5 -23.5t15.5 -13.5q12 0 28.5 9t26.5 18q57 39 110.5 97t94.5 124.5t68.5 138 t35.5 139.5zM967 1804q2 25 0 51.5t-11.5 49t-28 37t-48.5 14.5q-29 0 -51.5 -14.5t-38 -36t-24.5 -48t-11 -51.5q-6 -47 -2 -94t0 -94q-6 -66 -33 -118t-56.5 -91t-53 -61.5t-23.5 -26.5q-2 -10 0 -26.5t16 -16.5q12 0 27.5 10t25.5 17q57 39 110.5 97t95.5 124.5t70 138 t36 139.5z" />
<glyph unicode="#" horiz-adv-x="882" d="M729 1358q-27 0 -33 -1t-8 -1h-8h-33h-143l37 162q4 29 -16.5 39t-43.5 10q-20 0 -36.5 -7.5t-20.5 -17.5l-41 -186q-55 0 -78.5 1t-32.5 1h-10h-10q-12 0 -18.5 -10.5t-10.5 -38.5q-4 -39 0 -51.5t17 -12.5q8 0 6 0t4 1t29 1h79l-51 -248q-53 0 -74.5 1t-27.5 1h-6h-11 q-12 0 -18 -10t-10 -39q-4 -39 0 -51t16 -12h4h4q6 0 30 1t69 1l-45 -203q-4 -29 15 -39t42 -10q20 0 37.5 7t19.5 18l51 229h226l-45 -205q-4 -29 15 -39t42 -10q20 0 37.5 7t19.5 18l52 227q53 0 73.5 -1t26.5 -2t5 -2t9 -1q29 0 39 16.5t15 44.5q4 37 -5.5 47.5 t-38.5 10.5h-100l51 243q68 0 82.5 -1t14.5 -3v-2h6q29 0 39 16.5t14 45.5q4 37 -5 47t-38 10h-88l37 158q4 29 -16.5 39t-43.5 10q-20 0 -36.5 -7.5t-20.5 -17.5zM653 1001q-27 0 -31 -1l-4 -1h-6h-28h-156l51 250h226z" />
<glyph unicode="$" horiz-adv-x="1120" d="M1049 432q8 90 -14.5 156.5t-68.5 119t-109.5 93.5t-133.5 78l55 524q61 -6 93 -26.5t47.5 -48.5t19.5 -58.5t8 -56t14.5 -42t38.5 -16.5h31q16 0 23.5 7t11.5 36l16 164q2 27 3 45t-5 30.5t-19 20.5t-40 19q-55 20 -113.5 25t-118.5 5l21 191h-80l-20 -201h-9 q-80 -12 -147.5 -47t-118.5 -88t-83 -122t-40 -146q-8 -84 14.5 -147.5t67.5 -114t104.5 -90.5t125.5 -74l-62 -584q-98 0 -145 25.5t-66.5 64.5t-18.5 84t1 84t-11.5 64.5t-52.5 25.5h-20q-16 0 -31.5 -3t-17.5 -19l-29 -279q-4 -29 1 -43t32 -35q74 -51 165 -61t183 -10 l-21 -179h80l23 197q84 12 156.5 50t127 95.5t88.5 130t44 156.5zM877 346q-8 -78 -50.5 -145.5t-121.5 -96.5q-6 -2 -27 -7t-37 -5l57 539q35 -25 70 -53.5t60.5 -64.5t40 -77t8.5 -90zM647 920q-41 25 -73.5 49t-55 55t-33 67.5t-6.5 84.5q4 37 21.5 76.5t46 71.5 t66.5 52.5t85 20.5z" />
<glyph unicode="%" horiz-adv-x="1652" d="M1655 1587q0 12 -8.5 16.5t-18.5 4.5q-25 0 -74 -36t-120.5 -80t-167 -80t-211.5 -36q-61 0 -122 13.5t-114 44.5q-23 80 -81 127t-144 47q-80 0 -146.5 -39t-115.5 -99.5t-79 -134t-38 -145.5q-6 -61 3 -117.5t37 -97.5t75 -65.5t114 -24.5q78 0 143.5 33.5t115 89 t80 125t38.5 141.5q2 16 4 30.5t13 30.5q51 -10 96 -20t98 -10q47 0 95.5 6t95.5 20l16 4t23.5 7.5t39 14.5t62.5 25q-141 -162 -286.5 -331.5t-287 -345t-276.5 -352.5t-256 -353h154q129 195 260 385t274 375q141 180 289.5 349t296.5 343q18 10 38.5 24.5t38 32t31 36.5 t15.5 42zM1602 389q6 63 -4.5 117.5t-39 94.5t-75.5 62.5t-115 22.5q-84 0 -152.5 -38t-118.5 -99.5t-80 -137t-38 -151.5q-14 -129 44 -209t194 -80q84 0 151.5 37t116.5 96.5t79 134t38 150.5zM1458 301q-4 -37 -15 -81t-32.5 -82t-54.5 -62.5t-80 -24.5q-55 0 -87 31 t-48.5 77t-19.5 98t1 95q4 41 16.5 86t34 82t56.5 61.5t86 24.5q53 0 84 -31.5t46 -78.5t16 -100.5t-3 -94.5zM694 1237q-4 -41 -16 -87t-33.5 -85t-56.5 -65.5t-86 -26.5q-53 0 -84 27.5t-46.5 68.5t-18.5 90t1 90t15.5 89t34 90t57.5 71t88 29q39 0 76 -21q0 -45 14 -68.5 t51 -45.5q6 -39 7 -77t-3 -79z" />
<glyph unicode="&#x26;" horiz-adv-x="2359" d="M2626 1094q10 78 -34 127t-122 49q-23 0 -47.5 -7.5t-46 -21.5t-35.5 -33.5t-17 -46.5q-4 -29 22 -47t55.5 -37.5t54 -45t20.5 -64.5q-4 -37 -31.5 -61.5t-64.5 -39t-76 -19.5t-68 -5q-57 0 -110 13t-102.5 35.5t-96.5 49.5t-94 55q-88 55 -184.5 104.5t-208.5 49.5 q-59 0 -126 -21.5t-125.5 -61.5t-99 -94t-47.5 -120q-8 -74 40 -110.5t116 -36.5q33 0 70 15t41 56q2 31 -14.5 51.5t-36 38t-37 37t-13.5 49.5q4 41 37 62.5t70 21.5q63 0 120.5 -31.5t99.5 -82t64.5 -112.5t16.5 -124q-14 -127 -85 -235.5t-173.5 -188.5t-226 -125 t-244.5 -45q-94 0 -177 31t-147.5 87t-104.5 134t-48 170h6q96 37 195.5 98.5t181 142.5t137 178t67.5 204q10 102 -33.5 168.5t-152.5 66.5q-90 0 -169 -38t-145.5 -101.5t-122 -146t-95 -171t-64.5 -176.5t-33 -161q-16 -152 21 -264.5t116.5 -189.5t197.5 -115t261 -38 q209 0 398.5 79t349.5 229q39 37 75.5 79.5t66.5 90t50.5 98.5t26.5 104q4 29 2 54.5t2 50.5q63 -39 138 -55.5t153 -16.5q86 0 184 26.5t184 79t147 129.5t71 175zM823 1057q-10 -98 -56 -176t-124 -146q-18 -16 -44 -35.5t-55.5 -38t-58 -31t-51.5 -12.5q-16 0 -23.5 11.5 t-9.5 27t-1 32t1 26.5q4 37 15.5 92t29 115.5t43 120t59.5 107.5t76 77.5t91 29.5q39 0 62.5 -19t34.5 -49t13 -65.5t-2 -66.5z" />
<glyph unicode="'" horiz-adv-x="526" d="M590 1804q2 25 0 52.5t-11.5 49t-28 36t-48.5 14.5q-31 0 -53.5 -14.5t-38 -36t-24.5 -48t-11 -51.5q-6 -47 -1 -93t1 -93q-8 -72 -47 -147.5t-99 -122.5v-2q0 -2 -2 0q-20 -14 -20 -33q-2 -10 3 -23.5t15 -13.5q14 0 29.5 9t26.5 18q57 41 110 98t94 123.5t69 138 t36 139.5z" />
<glyph unicode="(" horiz-adv-x="913" d="M850 -727q-172 92 -276.5 230.5t-156.5 304t-61.5 352t11.5 377.5q18 184 65 385.5t135 387t223.5 337t331.5 237.5l-16 68q-207 -82 -367.5 -230.5t-277.5 -334t-186.5 -394.5t-90.5 -411q-23 -217 -2 -425t93.5 -389.5t203.5 -328t330 -240.5z" />
<glyph unicode=")" horiz-adv-x="921" d="M856 588q20 205 -4.5 410.5t-101 388t-205.5 329t-316 236.5l-30 -68q117 -55 199.5 -142t139 -193.5t87 -229.5t44 -252t10.5 -259t-15 -251q-20 -193 -67.5 -382t-135.5 -358t-222.5 -309.5t-328.5 -234.5l29 -74q217 94 378.5 240.5t274.5 330t177 392.5t87 426z" />
<glyph unicode="*" horiz-adv-x="823" d="M905 1331q2 23 -6 37t-23.5 23.5t-33 14.5t-33.5 9q-10 2 -41 10.5t-64.5 17.5t-61.5 15t-32 6l4 11h2q12 0 55.5 12t92.5 27.5t91 32t54 22.5h2q12 8 17.5 20.5t7.5 26.5q2 16 -8 30.5t-29 14.5q-14 0 -51 -18.5t-79 -43t-79 -49t-53 -34.5h-2l-6 -7h-15l-10 9h-4 q10 14 38 56t56.5 88t52 86t23.5 54q4 16 -4 34.5t-27 18.5q-25 0 -42 -27.5t-30.5 -63t-22.5 -71.5t-15 -53l-37 -104h-33q-4 20 -9 72.5t-14.5 108t-24.5 97t-40 41.5q-23 0 -30 -17t-9 -34q-2 -23 11.5 -60.5t32 -79.5t39 -80t30.5 -58l-8 -10h-13q-18 8 -54 32.5t-75 49 t-73.5 44t-49.5 19.5q-23 0 -35 -17.5t-14 -35.5q-4 -33 18.5 -46.5t47.5 -21.5q12 -4 46 -12t71.5 -18.5t69.5 -17.5t42 -7h2v-10l-36 -11q-35 -10 -80.5 -23.5t-86.5 -24.5t-49 -13q-27 -8 -48 -19.5t-25 -44.5q-2 -18 8 -36.5t30 -18.5q12 0 51.5 20.5t83.5 47t82.5 53.5 t53.5 37h16l10 -10h2q-14 -25 -41.5 -64t-54 -81t-48 -80t-23.5 -62q-2 -14 2 -32.5t22 -18.5t31.5 11t24 27.5t16.5 35t10 32.5q14 53 32.5 106.5t37.5 106.5h30q2 -18 8.5 -70.5t16.5 -107.5t25.5 -98t37.5 -43q20 0 30.5 18t12.5 35q2 14 -12 54t-33.5 84t-40 84 t-28.5 56l8 9h12q8 -4 15.5 -10.5t17.5 -10.5h2q12 -10 43 -30.5t64.5 -41t65.5 -37t46 -16.5q16 0 28.5 13.5t14.5 29.5z" />
<glyph unicode="+" horiz-adv-x="1402" d="M1354 520l16 160h-520l55 518h-151l-56 -518h-526l-16 -160h526l-55 -522h151l56 522h520z" />
<glyph unicode="," horiz-adv-x="491" d="M356 172q2 25 1 50.5t-10 47t-27.5 35.5t-49.5 14t-53 -13t-37.5 -34.5t-25 -48t-11.5 -51.5q-4 -47 0 -94t0 -94q-10 -86 -53 -153t-100 -132l-15 -18q0 -8 4.5 -23.5t14.5 -15.5q8 0 24.5 10t26.5 16q57 39 111.5 97.5t96.5 126t69.5 140t33.5 140.5z" />
<glyph unicode="-" horiz-adv-x="919" d="M797 555l14 139h-578l-14 -139h578z" />
<glyph unicode="." horiz-adv-x="393" d="M307 152q2 23 1 53.5t-8 57t-24.5 45t-48.5 18.5q-33 0 -55 -19.5t-36.5 -47.5t-22 -60.5t-9.5 -57.5q-4 -25 -3 -54.5t9.5 -55t27 -43t50.5 -17.5q31 0 52.5 19.5t36 47.5t21.5 58.5t9 55.5z" />
<glyph unicode="/" horiz-adv-x="1425" d="M1735 2060l-101 66l-1870 -2579l101 -65z" />
<glyph unicode="0" horiz-adv-x="1382" d="M1329 854q12 117 -2 245t-64.5 234.5t-141.5 176t-232 69.5q-104 0 -192.5 -43t-162 -113.5t-131 -163t-99.5 -190.5t-67.5 -197.5t-33.5 -183.5q-12 -125 0 -254t63 -234.5t145.5 -172t241.5 -66.5q106 0 195.5 42t161 112.5t127 163t95.5 191.5t64.5 198.5t32.5 185.5z M1110 727q-6 -53 -17.5 -121.5t-32 -140.5t-51 -142.5t-72.5 -126t-98.5 -89t-127.5 -33.5q-78 0 -131.5 40t-87 104.5t-52 145t-25.5 163.5t-5 161t8 135q4 53 16 121t32.5 138.5t50.5 139t73 122t98 86t127 32.5q78 0 131 -39t88 -101t53.5 -141t25.5 -161t5 -159t-8 -134 z" />
<glyph unicode="1" horiz-adv-x="888" d="M756 0l8 82h-172q10 100 22.5 201.5t22.5 205.5q29 260 49.5 520.5t36.5 510.5q2 12 1 20t-17 8h-89q-117 -102 -235.5 -198.5t-245.5 -182.5h2l39 -92q92 68 182.5 139.5t200.5 141.5q-33 -195 -71.5 -386.5t-59.5 -387.5q-12 -125 -21.5 -250t-17.5 -250h-164l-8 -82 h537z" />
<glyph unicode="2" horiz-adv-x="1218" d="M1149 1206q10 94 -17.5 165t-83 117t-132 68.5t-162.5 22.5q-31 0 -83.5 -5t-107.5 -15.5t-105 -24.5t-75 -31q-18 -12 -21.5 -24.5t-7.5 -32.5q-6 -59 -12 -118.5t-10 -119.5v-16t4 -26.5t16.5 -25t36.5 -10.5q33 0 48.5 27t26.5 66t23.5 85t40 85t75.5 65.5t132 26.5 q55 0 93 -19.5t60.5 -52.5t30 -77t1.5 -95q-10 -88 -46 -164t-88.5 -144.5t-116 -131t-124.5 -121.5q-70 -68 -135.5 -133.5t-122 -136t-104.5 -148.5t-85 -170l31 -92h825q16 0 20.5 14.5t6.5 24.5q23 74 44.5 152.5t29.5 154.5q2 14 1 20.5t-18 6.5q-43 0 -65.5 -9.5 t-34.5 -28t-21.5 -44t-25.5 -58.5q-20 -43 -40 -68.5t-43.5 -37.5t-54 -15t-75.5 -6q-53 -2 -107.5 -3t-107.5 -1q-45 0 -88 1t-88 3q8 41 17 74t22.5 63.5t32 60.5t44.5 65q53 70 127 133t154 124.5t159 124t143.5 132t108.5 149.5t54 174z" />
<glyph unicode="3" horiz-adv-x="1253" d="M1110 455q8 74 -5 139t-47 117.5t-89.5 89.5t-130.5 51l2 20h6q123 43 200.5 132.5t92.5 218.5q10 94 -15.5 162.5t-78 112.5t-127 65.5t-160.5 21.5q-31 0 -76 -4t-92 -13t-90 -22.5t-70 -32.5q-18 -12 -23.5 -25t-7.5 -34q-12 -113 -18 -176.5t-7 -94t1 -36.5t8 -6h20 q27 0 50.5 5t40.5 34q29 45 36 99t21 99t53 76t131 31q59 0 97 -23.5t58.5 -62.5t27 -88t0.5 -101q-12 -109 -54.5 -173t-107 -97t-145.5 -42t-171 -9q-12 0 -19 -21.5t-11 -46.5q-2 -18 -1 -34.5t5 -20.5q33 0 64.5 2t64.5 2q178 0 265 -88t69 -268q-8 -68 -31 -128.5 t-60.5 -106.5t-94 -72.5t-130.5 -26.5q-76 0 -115.5 24.5t-57 60.5t-20.5 79t-7.5 82t-15.5 66.5t-44 31.5q-20 4 -35 4q-12 0 -20 -4t-10 -21l-31 -301q-4 -23 -1 -33t19 -24q23 -18 63 -31.5t86 -20.5t91 -10t76 -3q104 0 202.5 32.5t176 94t129 149.5t63.5 199z" />
<glyph unicode="4" horiz-adv-x="1220" d="M1169 508q-53 -8 -107 -13.5t-114 -5.5q29 256 52.5 509t37.5 509q2 10 2 25q0 16 -16 16h-86q-23 -27 -73 -84t-115.5 -134t-142.5 -168t-152.5 -183t-147 -180t-127 -161t-89.5 -122t-36 -65q0 -4 4 -17.5t9.5 -28t10.5 -26.5t7 -19h637l-6 -53q-4 -35 -8 -83t-7.5 -92 t-5.5 -75.5t2 -38.5q10 -16 27.5 -19t38.5 -3h24q35 0 62 9t41 56q10 37 17 77t12 81q6 74 12 141q41 0 79 -1t79 -1q45 0 58 29t17 64q2 14 2 28q0 15 2 29zM868 1282q-47 -201 -72.5 -399.5t-56.5 -399.5q-41 0 -106.5 -2t-136.5 -2q-49 0 -95.5 1t-82 4t-57 8.5 t-21.5 11.5q2 8 10 19.5t12 17.5q109 166 221.5 313t241.5 301q29 33 55.5 64.5t53.5 64.5q10 0 17 -1t17 -1z" />
<glyph unicode="5" horiz-adv-x="1232" d="M1122 571q12 117 -18.5 207t-94 151.5t-155.5 92.5t-205 31q-51 0 -104 -6.5t-105 -6.5l37 365q37 -20 64.5 -34.5t54.5 -23t53.5 -11.5t61.5 -3h26q98 0 211 8.5t199 49.5q4 4 9 24.5t9 40.5q4 29 -6 29q-104 0 -206.5 9t-202.5 34q-49 12 -100.5 29.5t-104.5 17.5 q-45 0 -90 -24.5t-68 -65.5l-57 -547l55 -39q31 8 60.5 13.5t60.5 5.5q236 0 330 -113t69 -342q-8 -72 -33.5 -141.5t-68.5 -123t-105.5 -86t-142.5 -32.5q-74 0 -111.5 23.5t-55 60.5t-22 80t-7.5 80.5t-14 65.5t-44 32q-20 4 -35 4q-12 0 -20 -4t-10 -21l-31 -301 q-4 -23 -1 -34t19 -23q20 -16 55 -28.5t74 -19.5t78 -11t66 -4q121 0 229.5 48t192 130t138 189t66.5 224z" />
<glyph unicode="6" horiz-adv-x="1431" d="M1319 606q12 104 -11.5 195.5t-77.5 158t-138 105.5t-191 39q-100 0 -188 -34t-193 -99q33 98 86 187t126 157.5t164 109.5t200 41q53 0 115.5 -12t97.5 -27q10 29 18 55.5t12 55.5q2 20 -11 30.5t-31.5 15.5t-39 6t-32.5 1q-129 0 -249 -41t-225.5 -112.5t-194.5 -167.5 t-156.5 -208t-110.5 -232.5t-56 -241.5q-12 -117 10.5 -228.5t80 -198.5t149.5 -139.5t221 -52.5q127 0 235.5 55.5t191.5 145.5t134.5 203.5t63.5 232.5zM1108 481q-8 -72 -31.5 -145.5t-66.5 -133t-105.5 -98t-146.5 -38.5q-92 0 -154.5 49t-99.5 123.5t-50.5 162.5 t-4.5 166q8 70 33.5 145.5t70.5 138t108.5 103.5t145.5 41q94 0 156.5 -51t97.5 -128t45 -167t2 -168z" />
<glyph unicode="7" horiz-adv-x="1052" d="M1241 1548q2 20 -10 38t-35 18q-16 0 -37.5 -20.5t-45 -47.5t-45 -53.5t-38.5 -38.5h-2q-18 -6 -37 -6q-16 0 -39.5 6t-48 15t-47 17.5t-37.5 14.5q-41 14 -88 32.5t-97 33t-99.5 24.5t-94.5 10q-68 0 -106.5 -21.5t-46.5 -96.5l-31 -287h82q2 12 2 31q0 20 4 43 q4 45 18.5 85.5t49.5 40.5q20 0 51 -18t70.5 -39.5t86 -40t99.5 -18.5q20 0 46 5t50.5 10t46 10t33.5 5l14 -16q-125 -141 -225 -274t-175 -272.5t-123 -294t-67 -339.5q-4 -27 -6 -52t-2 -52h211q2 33 4 63.5t6 65.5q20 184 65.5 373.5t129.5 355.5q25 49 70 121t97 145.5 t104.5 138t93.5 99.5q18 14 42.5 36.5t47 48.5t39 51t20.5 50z" />
<glyph unicode="8" horiz-adv-x="1320" d="M1190 412q8 76 -9.5 143.5t-53 123.5t-90 101t-119.5 78l6 14q51 31 97 69t83 83t61.5 97.5t30.5 111.5q8 82 -18.5 145.5t-77.5 107.5t-121 66.5t-145 22.5q-86 0 -166 -31t-144.5 -85t-106.5 -129t-50 -163q-6 -66 5 -120t37.5 -101t64.5 -87t85 -77l-2 -14 q-68 -31 -129 -70t-108.5 -89t-77 -112.5t-37.5 -140.5q-10 -96 23.5 -169.5t95 -123t143.5 -75t168 -25.5q96 0 190.5 32t172 90t130 141.5t62.5 185.5zM995 332q-6 -66 -36.5 -117t-76.5 -87t-103.5 -55.5t-119.5 -19.5q-70 0 -126 24.5t-94 67.5t-55 102.5t-9 129.5 q6 66 28.5 116t58.5 90t84 71.5t105 62.5q55 -31 119 -68t116 -83t84.5 -103t24.5 -131zM1057 1210q-10 -98 -77 -172.5t-161 -117.5q-43 25 -96 58.5t-98 76.5t-74 94t-23 113q6 51 32 94t66 71.5t87 45t96 16.5q59 0 107.5 -21.5t82 -58.5t49 -88.5t9.5 -110.5z" />
<glyph unicode="9" horiz-adv-x="1390" d="M233 127q-2 -16 -4 -32.5t-4 -33.5q-4 -25 -3 -43t9 -20q92 -27 197 -27q195 0 350.5 73t269 195.5t182 285.5t87.5 345q12 119 -6.5 245t-73.5 229.5t-148.5 170t-230.5 66.5q-119 0 -220 -55.5t-179 -143.5t-126 -197.5t-61 -217.5q-10 -100 9.5 -192.5t68.5 -164 t128 -114.5t188 -43q102 0 179 35.5t156 103.5l52 57q-16 -113 -60.5 -215t-113 -181t-165 -125t-216.5 -46q-68 0 -137 8t-128 37zM1106 981q-8 -68 -29.5 -140.5t-60.5 -132t-97.5 -98.5t-140.5 -39q-92 0 -150.5 52.5t-89 131.5t-37.5 169t1 163q6 68 28.5 140.5 t62.5 133t100.5 98.5t142.5 38q88 0 144 -54t87 -133t38 -169t1 -160z" />
<glyph unicode=":" horiz-adv-x="352" d="M385 1063q2 23 2 51q0 31 -6 58.5t-22.5 46t-47.5 18.5q-35 0 -57.5 -19.5t-36.5 -47t-22.5 -59.5t-10.5 -56q-2 -25 -2 -56t8.5 -56t25.5 -43.5t50 -18.5q31 0 52.5 19.5t36 48t21.5 60t9 54.5zM289 154q2 23 2 51q0 31 -7.5 57.5t-22.5 45t-46 18.5q-35 0 -57.5 -19.5 t-37 -47.5t-21.5 -59.5t-9 -56.5q-4 -25 -3 -54.5t9 -56t25.5 -44t50.5 -17.5t54.5 19.5t34.5 48.5t19.5 59.5t8.5 55.5z" />
<glyph unicode=";" horiz-adv-x="380" d="M322 172q2 25 1 51.5t-11.5 48t-29 34.5t-49.5 13t-53 -13t-37.5 -34.5t-24.5 -48t-12 -51.5q-4 -47 1.5 -94t1.5 -94q-10 -88 -54.5 -154t-101.5 -131l-14 -18q0 -8 3 -23.5t13 -15.5q12 0 29.5 11t27.5 19q55 39 108.5 97.5t95.5 126t71 139t35 137.5zM397 1063 q2 23 2 51q0 31 -6 58.5t-22.5 46t-46.5 18.5q-35 0 -57.5 -19.5t-37 -47t-22.5 -59.5t-10 -56q-2 -25 -2 -56t7 -56t24.5 -43.5t49.5 -18.5q31 0 53.5 19.5t37 48t21.5 59t9 55.5z" />
<glyph unicode="&#x3c;" horiz-adv-x="1118" d="M1178 1096l-84 135l-1024 -608q-6 -4 -8.5 -11.5t-2.5 -13.5q0 -16 4 -23l902 -602l106 133l-729 492z" />
<glyph unicode="=" horiz-adv-x="1538" d="M1436 229l18 164h-1288l-19 -164h1289zM1497 809l16 162h-1288l-16 -162h1288z" />
<glyph unicode="&#x3e;" horiz-adv-x="1118" d="M1182 598v12q0 8 -6 13l-897 608l-113 -135l733 -498l-831 -492l77 -133l1029 602q8 13 8 23z" />
<glyph unicode="?" horiz-adv-x="976" d="M1028 1456q8 82 -17.5 145.5t-74.5 104.5t-117.5 62.5t-144.5 21.5q-84 0 -172 -24.5t-162 -74t-125 -122t-61 -166.5q-4 -29 -1 -58.5t14 -53t32.5 -39t56.5 -15.5q16 0 36.5 4t40 13.5t34 23.5t16.5 35q2 20 -7 37.5t-20.5 36t-19.5 42t-4 54.5q4 45 26.5 80.5t55 62.5 t73.5 41t84 14q68 0 115 -24.5t76 -67.5t39 -98t4 -117q-8 -84 -44 -164t-85 -158.5t-104.5 -153.5t-103.5 -148.5t-83 -144t-41 -140.5q-6 -59 24.5 -102.5t94.5 -43.5q57 0 80.5 36t29.5 85q10 59 17.5 118.5t15.5 119.5q10 72 43 137.5t77 127t94 120.5t93 121.5t75 129 t40 142.5zM520 8q2 23 2 51q0 31 -7 58.5t-23.5 47t-47.5 19.5q-33 0 -55 -19.5t-36.5 -47t-21.5 -60t-9 -57.5q-4 -25 -5 -53q0 -31 8.5 -57.5t26 -44t49.5 -17.5q31 0 52.5 19.5t36 47t21.5 58t9 55.5z" />
<glyph unicode="@" horiz-adv-x="2107" d="M1931 135q-86 -98 -185 -179t-213 -139.5t-241 -90t-268 -31.5q-178 0 -335 57.5t-268.5 170t-168.5 276t-35 379.5l4 32q14 109 65.5 225.5t133.5 227.5t190.5 209t237.5 172t276.5 117t302.5 43h17q213 -4 348 -70t209 -163t96.5 -209.5t11.5 -211.5l-2 -14 q-16 -121 -64 -251t-138 -238.5t-227.5 -180t-329.5 -71.5q-59 0 -78 30.5t-15 85.5q10 78 54 195q-39 -70 -92.5 -129.5t-114 -102.5t-124 -67.5t-124.5 -24.5q-55 0 -89 21.5t-51.5 55.5t-21.5 78t0 91q4 35 10.5 68.5t16.5 62.5q31 100 91 213t146 208t196 157.5 t239 62.5q41 0 70.5 -7t60.5 -22l118 46h5q35 0 30 -31q-2 -10 -4 -18.5t-6 -18.5q-41 -137 -82 -273.5t-84 -271.5q-4 -16 -12 -44t-16.5 -61.5t-15.5 -68.5t-9 -63q-2 -23 -1 -41.5t7 -26.5h25q74 0 147.5 34t138 99.5t117.5 161.5t84 223l2 23q16 150 -30 266.5t-136 196 t-215 121.5t-266 42q-152 0 -301.5 -42t-273 -136t-211 -246.5t-117.5 -375.5l-2 -31q-23 -203 34.5 -352.5t164 -250t245.5 -149.5t285 -49q137 0 246.5 25.5t201.5 70.5t171 107.5t153 134.5zM1487 1028q4 12 4 16q2 25 -10.5 37.5t-31.5 18.5t-44 7t-47 1 q-104 0 -176 -36t-119 -94t-77 -133t-54 -153q-4 -18 -8 -38.5t-9 -43.5q-8 -29 -17 -65.5t-13 -75.5q-4 -31 -1 -60.5t14 -52t33.5 -36t59.5 -13.5q57 0 113.5 42t108 109.5t96.5 149.5t80.5 163t60.5 149.5t37 107.5z" />
<glyph unicode="A" horiz-adv-x="1441" d="M1432 0l8 82q-53 0 -85 17.5t-51.5 47t-29.5 67.5t-21 81q-78 317 -154.5 629.5t-170.5 623.5h-301l-11 -82h183l-580 -1218q-18 -37 -35.5 -66.5t-40 -52.5t-53.5 -35t-74 -12l-8 -82h379l8 82h-139l244 551h461q31 -139 63.5 -276.5t71.5 -274.5h-121l-8 -82h465z M936 739h-381l270 592z" />
<glyph unicode="B" horiz-adv-x="1275" d="M1255 485q16 156 -57.5 261.5t-226.5 132.5h-8l2 12h6q109 47 174 136t76 202q8 86 -13.5 148.5t-67.5 102.5t-112.5 58t-146.5 18q-137 0 -272.5 -4t-272.5 -4l-10 -82h141q-55 -238 -90 -475t-60 -479q-12 -106 -18 -212.5t-10 -213.5h-107l-8 -86q92 0 183.5 -5 t183.5 -5h53q111 0 223.5 30.5t205.5 93t156.5 155.5t75.5 216zM1034 428q-16 -154 -103 -243t-247 -89q-53 0 -91 4t-60.5 21.5t-30.5 50.5t-2 88l53 533h16q25 0 50.5 2t48.5 2q92 0 164.5 -21.5t120.5 -66.5t69.5 -115t11.5 -166zM1012 1176q-10 -88 -37 -143.5 t-71 -86.5t-106.5 -41t-142.5 -10h-94q16 141 25.5 279.5t19.5 279.5q33 0 66 2t65 2q143 0 217 -66t58 -216z" />
<glyph unicode="C" horiz-adv-x="1308" d="M1266 270q2 12 -13.5 32t-29.5 20q-2 0 -2 -3h-2q-47 -43 -92.5 -81.5t-93.5 -67.5t-102 -46.5t-118 -17.5q-145 0 -229 67t-124 169t-45 226t7 241q10 106 37.5 225t83 219.5t145.5 166t227 65.5q68 0 119 -9.5t86 -33t53.5 -66.5t24.5 -110q2 -16 3 -35t7 -35 t17.5 -26.5t34.5 -10.5q6 0 14 -1t18 -1q12 0 21.5 4t11.5 19l29 288q4 23 2 36.5t-21 25.5q-20 14 -66 25.5t-98.5 20.5t-101.5 14t-76 5q-184 0 -325.5 -84t-240.5 -216t-156.5 -295.5t-73.5 -323.5q-16 -143 0 -271.5t72.5 -225.5t161 -153.5t265.5 -56.5q125 0 246 43 t221 131q10 8 26.5 24.5t34 35t30 37t12.5 30.5z" />
<glyph unicode="D" horiz-adv-x="1503" d="M1505 821q20 197 -23.5 341.5t-142 238.5t-247 139t-334.5 45q-131 0 -261 -16.5t-259 -38.5l2 -80q35 8 72.5 12t80.5 4q-47 -240 -85 -476t-62 -476q-12 -109 -17.5 -216.5t-9.5 -215.5h-110l-9 -82q111 0 219.5 -5t219.5 -5h59q190 0 349 59.5t276.5 168t190.5 262 t91 341.5zM1294 705q-14 -137 -59 -249t-122 -191t-187.5 -122t-253.5 -43q-18 0 -53 1t-71 4.5t-66.5 11.5t-41.5 24q-16 23 -14 63t4 66q23 209 40 415t40 415q10 94 17.5 187t11.5 188q195 0 345 -44.5t248.5 -138.5t140 -239t21.5 -348z" />
<glyph unicode="E" d="M1153 346q2 16 1 21.5t-17 5.5q-51 0 -77 -19.5t-41 -50.5t-26.5 -64.5t-34 -64.5t-63.5 -50.5t-117 -19.5q-102 0 -177 3.5t-91 23.5q-6 6 -7 38t0 77t5 97t8 99t7 84t5 52l19 174h371q33 0 50 11t21 46l6 65h-436q10 141 19.5 279.5t21.5 280.5l318 10q70 0 98 -19.5 t37 -91.5v-41q0 -23 4 -44t16 -36.5t37 -15.5q12 0 19.5 -1t15.5 -1q14 0 21.5 8t11.5 39l30 264l2 8v23q0 12 -10 12h-864l-10 -82h137q-49 -238 -85 -475t-61 -477q-12 -109 -18 -216.5t-10 -215.5h-107l-8 -82h881q16 0 32.5 49t28.5 110.5t22.5 117t14.5 69.5z" />
<glyph unicode="F" horiz-adv-x="1048" d="M1085 1231l31 282v23q0 12 -8 12h-821l-11 -82h138q-47 -221 -82 -439t-58 -441q-12 -127 -21 -252t-13 -252h-107l-8 -82h453l8 82h-168q25 168 44 335t38 335h368q33 0 50.5 11t21.5 46l6 65h-436q10 141 18.5 279.5t20.5 280.5h6q25 0 69 5t70 5h115h31q20 0 40.5 -2 t37 -7t26.5 -14q25 -20 27 -58t3 -75t9 -64.5t43 -27.5h25q14 0 23 6t11 29z" />
<glyph unicode="G" horiz-adv-x="1499" d="M1417 506q16 143 25 280h-346l-11 -81h172q-14 -74 -25 -147t-20 -146q-6 -57 -10 -114.5t-4 -115.5h-4q-74 -43 -160 -66.5t-168 -23.5q-139 0 -226 62.5t-134 160t-59.5 218t-0.5 237.5q12 127 49 255t106 230.5t175.5 167t259.5 64.5q66 0 115 -9.5t82 -33t50 -64.5 t24 -106q0 -16 1 -34.5t6 -34t15 -27t33 -11.5q6 0 15 -1t20 -1q12 0 22.5 4.5t12.5 18.5l30 289q2 23 -1 36t-21 25q-25 14 -68 24.5t-92 16.5t-96 8t-78 2q-195 0 -350.5 -75.5t-268 -201.5t-179 -292t-85.5 -344q-16 -147 6.5 -276.5t88 -224.5t176 -150.5t270.5 -55.5 q326 0 606 203q14 84 26.5 167t20.5 167z" />
<glyph unicode="H" horiz-adv-x="1585" d="M604 1466h131l10 82h-409l-10 -82h137q-47 -221 -82 -439t-57 -441q-12 -127 -21.5 -252t-13.5 -252h-107l-8 -82h420l8 82h-135q16 109 29.5 215t25.5 215l25 246h645q-14 -88 -25 -183q-12 -123 -17 -246.5t-11 -246.5h-109l-8 -82h422l8 82h-135q20 147 38.5 292.5 t35.5 293.5q20 199 34.5 398.5t24.5 399.5h129l10 82h-405l-10 -82h139q-35 -147 -55.5 -295.5t-49.5 -296.5h-653q14 150 26.5 296t22.5 296z" />
<glyph unicode="I" horiz-adv-x="768" d="M594 0l8 82h-135q20 147 38.5 293.5t35.5 294.5q20 199 34.5 397.5t24.5 398.5h131l10 82h-405l-10 -82h133q0 -25 -6 -49q-84 -416 -129 -831q-12 -127 -21.5 -252t-13.5 -252h-107l-8 -82h420z" />
<glyph unicode="J" horiz-adv-x="933" d="M864 678q23 219 37 436t17 434h-308l-10 -82h178q-35 -160 -60.5 -324.5t-41.5 -324.5q-12 -129 -18.5 -254t-20.5 -254q-6 -51 -19.5 -97t-39 -82t-66.5 -56.5t-100 -20.5q-72 0 -106 24.5t-48 60.5t-16 79t-10.5 79t-32 60.5t-76.5 24.5q-16 0 -26.5 -12.5t-17.5 -31 t-10 -41t-6 -40.5l-6 -41q-4 -35 -3 -82t30 -74q49 -55 115.5 -75.5t144.5 -20.5q168 0 265.5 63.5t149.5 166t72.5 229.5t32.5 256z" />
<glyph unicode="K" horiz-adv-x="1458" d="M1425 0l-6 72q-25 -8 -57 -9q-57 0 -105.5 50.5t-90.5 128t-79.5 172t-73.5 184.5t-72 164t-75 110q-16 16 -34.5 26.5t-40.5 21.5h-3l650 546h100l10 82h-481l-10 -82h8q18 0 40.5 -1t41 -7t31 -19.5t10.5 -37.5q-2 -23 -20.5 -43.5t-34.5 -34.5h-3l-581 -504l8 41 q14 174 25.5 344t23.5 344h-270l-10 -82h137q-47 -221 -82 -439t-57 -441q-12 -127 -21.5 -252t-13.5 -252h-107l-8 -82h420l8 82h-135q20 158 40.5 312.5t37.5 312.5h4l123 96q29 -76 59.5 -148.5t63.5 -146.5q35 -80 79 -173t103 -172t138 -131t185 -52q31 0 62.5 6 t62.5 14z" />
<glyph unicode="L" horiz-adv-x="1118" d="M1112 346q2 14 1 20.5t-17 6.5q-53 0 -79 -19.5t-40 -50.5t-25.5 -64.5t-34 -64.5t-65.5 -50.5t-121 -19.5q-31 0 -57.5 -1t-50.5 -1q-33 0 -58.5 4.5t-42 19.5t-22.5 43t-2 75q33 307 56.5 611t45.5 611h199l10 82h-473l-10 -82h137q-49 -238 -85 -475t-61 -477 q-12 -109 -18 -216.5t-10 -215.5h-107l-8 -82h840q16 0 19 14.5t5 24.5q20 76 43 152.5t31 154.5z" />
<glyph unicode="M" horiz-adv-x="2027" d="M1976 0l9 82h-13q-55 0 -82.5 8t-42 27.5t-18.5 53.5l-10 85q-16 135 -28.5 270.5t-29.5 270.5q-23 190 -47 376.5t-47 374.5h-297l-10 -82h172l-2 -41q-113 -266 -234.5 -524t-238.5 -522q-8 -16 -12.5 -28.5t-28.5 -12.5q-20 0 -26.5 11t-10.5 28q-27 117 -48.5 232.5 t-43.5 232.5q-29 180 -64 356t-88 350h-258l-10 -82h156l4 -41l-383 -1165q-12 -37 -25.5 -69.5t-34 -57t-50.5 -38t-75 -13.5l-8 -82h381l8 82h-145l350 1149l17 -103q14 -127 31.5 -267t40 -282.5t50 -279.5t62.5 -256q10 -41 26.5 -48t51.5 -7h26q29 0 44.5 7t31.5 46 l477 1087l33 74q6 -131 15.5 -273.5t20.5 -286.5t25.5 -286.5t28.5 -273.5h-133l-8 -82h491z" />
<glyph unicode="N" horiz-adv-x="1724" d="M1681 35q2 4 2 14q0 12 -8 12q-25 0 -50.5 -1t-51.5 -1q-33 0 -65.5 4.5t-63.5 16.5l143 1386h144l10 82h-420l-10 -82h180l-137 -1321q-80 74 -147.5 172.5t-127 207t-112 219t-99.5 208.5q-74 152 -150.5 300.5t-154.5 295.5h-268l-10 -82h151l-143 -1384h-152l-8 -82 h397l9 82h-154l125 1204l31 -96q37 -117 83 -228.5t95 -222.5q57 -125 125.5 -260t161 -246.5t214 -183.5t285.5 -72h27q20 0 45 1.5t48.5 7.5t38.5 17.5t17 31.5z" />
<glyph unicode="O" horiz-adv-x="1740" d="M1677 864q14 150 -14.5 283t-101 233.5t-188.5 158.5t-275 58q-186 0 -340 -76.5t-265.5 -202.5t-180 -289t-87.5 -335q-16 -147 10.5 -279t95 -232.5t181.5 -160t272 -59.5q197 0 353.5 71.5t270.5 194.5t182.5 287t86.5 348zM1438 745q-12 -117 -46 -234.5 t-98.5 -212.5t-163 -154.5t-239.5 -59.5q-143 0 -231.5 65.5t-133.5 169t-55 228.5t2 244q12 111 46 233.5t98.5 225t162 170t234.5 67.5q147 0 236 -72t135.5 -180.5t55.5 -239.5t-3 -250z" />
<glyph unicode="P" horiz-adv-x="1220" d="M1245 1135q14 131 -21.5 214t-106 129t-169 62t-209.5 16q-102 0 -201.5 -4t-201.5 -4l-10 -82h137q-47 -221 -82 -439t-57 -441q-12 -127 -21.5 -252t-13.5 -252h-107l-8 -82h420l8 82h-135q20 135 36.5 271t31.5 272h14q16 0 29.5 -1t29.5 -1q117 0 225.5 32.5 t195.5 97t145.5 161t70.5 221.5zM1036 1075q-16 -172 -121.5 -260t-273.5 -88q-23 0 -47.5 1t-46.5 1q18 178 30.5 352t22.5 353h10q16 0 41 4t41 4q184 0 274 -89.5t70 -277.5z" />
<glyph unicode="Q" horiz-adv-x="1744" d="M1686 872q14 150 -16 282t-104.5 231.5t-191.5 158t-274 58.5q-188 0 -341 -76t-265.5 -202t-181 -288t-87.5 -336q-14 -141 13.5 -275t96 -236.5t181.5 -165t266 -62.5q53 0 105.5 13.5t103.5 13.5h13q-18 -33 -24.5 -60.5t-10.5 -62.5q-8 -74 26.5 -126t91 -85 t126 -48.5t130.5 -15.5q12 0 43 1t63 5.5t56.5 14.5t26.5 29q2 6 1 25.5t-9 19.5q-18 0 -36 -4.5t-36 -4.5q-57 0 -95 22.5t-64.5 57.5t-45 77t-38 80t-44 67.5t-61.5 39.5h-2q279 139 416 348t168 504zM1440 750q-12 -115 -49 -235t-103.5 -217t-166 -159.5t-236.5 -62.5 q-150 0 -239 66.5t-134 170t-52 230.5t5 250q12 117 49 240.5t103.5 226t168 168t242.5 65.5q94 0 165 -34t119 -91t76.5 -132t43 -158t15.5 -166.5t-7 -161.5z" />
<glyph unicode="R" horiz-adv-x="1370" d="M1350 2l-15 72q-14 -4 -27.5 -6t-29.5 -2q-59 0 -99 39.5t-70 103t-52.5 139.5t-46 147.5t-52 129t-69.5 84.5q158 61 254 171.5t114 278.5q12 111 -12 186.5t-77.5 124t-134.5 70t-183 21.5q-129 0 -257 -6.5t-257 -6.5l-10 -82h137q-47 -221 -82 -439t-57 -441 q-12 -127 -21.5 -252t-13.5 -252h-107l-8 -82h420l8 82h-135q20 147 37.5 291.5t34.5 292.5q45 0 90 2t90 2h10q14 -59 32.5 -133t44 -152t60.5 -151.5t82 -132t107.5 -93.5t136.5 -35q41 0 80 8.5t78 20.5zM1036 1094q-16 -164 -101 -245t-251 -81q-29 0 -60.5 4t-60.5 4 h-12q14 170 26.5 338t22.5 338h14q23 0 45.5 2t45.5 2q188 0 269.5 -84.5t61.5 -277.5z" />
<glyph unicode="S" horiz-adv-x="1077" d="M1012 449q12 117 -27 198.5t-102.5 143t-140 110.5t-142 102.5t-106.5 116t-31 152.5q10 102 74.5 156.5t164.5 54.5q70 0 108 -20.5t57.5 -50.5t25.5 -64.5t11 -64.5t14.5 -50.5t35.5 -20.5q6 0 15.5 -1t19.5 -1q16 0 27.5 5.5t15.5 21.5l23 221q2 23 0 45.5t-25 34.5 h-2q-43 29 -108.5 41t-118.5 12q-98 0 -186.5 -30.5t-157 -88t-113.5 -139.5t-55 -182q-8 -80 4 -135t40.5 -99.5t73 -81t99.5 -79.5q53 -41 113.5 -81t109.5 -89t79 -109.5t21 -140.5q-12 -119 -92 -191.5t-198 -72.5q-94 0 -141.5 27.5t-66 68.5t-18.5 90v90t-10 68.5 t-51 27.5h-8q-29 0 -47.5 -7t-22.5 -48l-27 -264q-4 -29 0.5 -46.5t28.5 -37.5q53 -45 132 -61.5t151 -16.5q111 0 206 34t168.5 96.5t120 152.5t58.5 203z" />
<glyph unicode="T" horiz-adv-x="1236" d="M1339 1186q10 90 3 177t4 177q2 18 -15 19q-141 0 -284.5 -7.5t-284.5 -7.5q-129 0 -257 4t-257 4q-16 0 -17 -20l-2 -6q-2 -25 -10 -51.5t-16 -51.5q-18 -59 -35.5 -120.5t-24.5 -120.5q-2 -10 13.5 -12.5t29.5 -2.5h19q33 0 48 20.5t23.5 51.5t15.5 65.5t26.5 65.5 t56.5 51.5t104 20.5q25 0 50.5 1t50.5 1h110q-45 -213 -80 -425t-57 -427q-14 -129 -22.5 -255t-12.5 -255h-143l-8 -82h477l8 82h-147q23 129 42 260t33 262q10 98 14.5 197.5t7.5 199t7 198.5t14 198l4 47q37 0 75 1t75 1h14q20 0 49 -1t56.5 -5t51 -12.5t34.5 -22.5 q14 -23 18 -61.5t10.5 -78.5t18.5 -69t43 -29q8 0 16 -1t19 -1q24 1 32 21z" />
<glyph unicode="U" horiz-adv-x="1671" d="M1642 33l-4 67q-25 -10 -50 -13t-50 -3q-35 0 -49 14.5t-27 42.5q-10 27 -8 125.5t12.5 234.5t25.5 294.5t28.5 307t24.5 267.5t11 178h-276l-10 -82h141q-18 -133 -41.5 -265t-46.5 -265q-16 -98 -29.5 -197.5t-31.5 -197.5q-14 -80 -61.5 -153t-113 -129t-145.5 -89 t-160 -33q-117 0 -176 54.5t-80.5 137.5t-17.5 181t14 186l31 301q16 139 27.5 275.5t15.5 275.5h-260l-10 -82h127q-33 -197 -74 -389t-62 -391l-6 -53q-12 -111 -16 -227.5t23.5 -212t101.5 -156t219 -60.5q72 0 161 30t177 81t165 122t124 152l-19 -94q-4 -39 -6 -89 t6 -96t34 -78t79 -32q70 0 143 17.5t139 42.5z" />
<glyph unicode="V" horiz-adv-x="1341" d="M1483 1466l10 82l-471 2l-10 -84h39q29 0 58.5 -3t52 -12t34.5 -28.5t8 -52.5q0 -10 -2 -19.5t-6 -19.5q-10 -33 -42 -109.5t-76 -175t-94 -209t-97 -212t-87 -183.5t-63 -123l-30 -59q-33 156 -71 319.5t-78 327.5t-82 327t-85 314h-209l-10 -82h107q39 -350 99 -690 t148 -676q2 -12 7.5 -30.5t12.5 -37t19.5 -30.5t28.5 -12h27q31 0 56 7t42 42l674 1427h90z" />
<glyph unicode="W" horiz-adv-x="1988" d="M2120 1466l10 82h-455l-10 -82q37 0 72 -7t60.5 -24.5t38.5 -45t9 -70.5q-4 -33 -29.5 -106.5t-63.5 -168t-84 -200t-90 -203.5t-81 -178t-55 -123l-33 -76q-18 131 -40.5 274.5t-46.5 288t-47.5 286.5t-45.5 271q-4 18 -9.5 47t-15.5 54.5t-27.5 44t-41.5 18.5h-25 q-27 0 -57.5 -6t-32.5 -29q-6 -55 6 -108t23 -107l-406 -1034q-41 213 -70.5 380t-52.5 325q-23 147 -46 292.5t-62 286.5h-219l-11 -82h115q2 -168 13.5 -352t33 -369.5t54 -363.5t79.5 -336q10 -39 36 -52t67 -13q45 0 65 49l422 1097q33 -223 62.5 -411.5t64.5 -360.5 q16 -80 29.5 -162.5t36.5 -160.5q10 -31 18 -37t41 -6h10q29 0 53.5 6t36.5 37l609 1435h92z" />
<glyph unicode="X" horiz-adv-x="1423" d="M1393 0l8 82q-47 0 -83 11t-71 42q-25 23 -56.5 75t-67.5 121.5t-73.5 148.5t-72.5 154t-64.5 138.5t-48.5 99.5l447 594h123l10 82h-383l-10 -82h16q14 0 31.5 -1t33 -5t25.5 -13t8 -24q-2 -10 -22.5 -43.5t-52 -79t-70.5 -94.5t-75 -93t-66.5 -76.5t-44.5 -41.5 q-8 8 -30 46t-49.5 93.5t-58 119t-59.5 123t-50.5 105.5t-31.5 66h-248l-10 -82h141q59 -174 117.5 -343t120.5 -341h-2l-441 -575q-23 -29 -41 -52.5t-39.5 -40t-48 -24.5t-65.5 -8l-8 -82h440l8 82q-12 0 -29.5 -1t-37.5 -1q-18 0 -38 2t-34 8t-23.5 16.5t-7.5 26.5t29 56 t65.5 94.5t87 114t94.5 114.5t84 98t58 64q59 -152 126 -299.5t140 -292.5h-196l-9 -82h605z" />
<glyph unicode="Y" horiz-adv-x="1280" d="M1442 1466l10 82h-375l-10 -82h37q35 0 62.5 -10t23.5 -51q-2 -20 -28.5 -66.5t-65.5 -108t-87 -130t-92.5 -130t-81 -109.5t-55.5 -68l-26 -27q-76 199 -164 402.5t-201 379.5h-217l-10 -82h96q61 -215 142 -418.5t178 -402.5h2q-6 -59 -16.5 -118.5t-16.5 -118.5 q-8 -82 -14.5 -163t-12.5 -163h-141l-8 -82h493l8 82h-139q8 76 18.5 150.5t18.5 150.5q8 66 11 131.5t10 130.5h2l573 821h76z" />
<glyph unicode="Z" horiz-adv-x="1202" d="M1169 348q2 16 -10 20.5t-29 4.5h-26q-41 0 -62.5 -19.5t-36 -48.5t-27.5 -62.5t-38 -62t-67 -48t-111 -19.5q-100 0 -198.5 2t-203.5 12q115 170 235 335t230 337q68 104 132.5 208.5t129.5 209.5q39 63 75 127.5t81 125.5q8 12 16.5 24.5t16.5 25.5l-43 45 q-23 -10 -46.5 -16.5t-45.5 -6.5q-190 0 -376.5 7t-377.5 7q-49 0 -63.5 -17t-18.5 -64q-4 -35 -9 -71t-9 -71q-4 -29 -5 -56.5t3 -53.5q0 -14 8 -15q66 0 91.5 16.5t33.5 42t11 58.5t28 66q10 14 42.5 22t71.5 12.5t74 5.5t51 1q88 0 175 -3.5t176 -3.5l24 9 q-31 -39 -89 -112t-132 -167t-157 -203.5t-166 -221.5t-158.5 -219.5t-135 -198.5t-96.5 -159.5t-41 -101.5q-4 -35 17.5 -43t50.5 -8q188 0 373.5 -1t373.5 -1h35q35 0 73 8t52 45q8 20 24.5 62.5t32 88.5t27.5 87t14 59z" />
<glyph unicode="[" horiz-adv-x="757" d="M258 481q16 154 31.5 312.5t29 309t25.5 284t21.5 236.5t14.5 169t7 80q4 29 11.5 38t27.5 9h43t83 1t103.5 2t105.5 2t87 1h53t19.5 -14.5t1.5 -36.5q-4 -29 -11.5 -38t-17.5 -9t-50 1t-90.5 2t-99.5 2t-75 1q-14 0 -17 -23l-268 -2506q-2 -23 12 -23q27 0 76 1t99 2 t90 2t51 1q10 0 17 -9t3 -38q-4 -23 -11 -37t-22 -14h-53q-37 0 -87 1t-104.5 2t-102.5 2t-83 1h-43q-20 0 -26.5 9.5t-2.5 37.5q2 20 17.5 130t37 279t47 384t50.5 446z" />
<glyph unicode="\" horiz-adv-x="1325" d="M1546 -453l-1298 2579l-111 -66l1297 -2578z" />
<glyph unicode="]" horiz-adv-x="757" d="M549 481q16 154 33.5 312.5t35 309t34 284t28.5 236.5t20.5 169t10.5 80q4 29 -3.5 38t-27.5 9h-43t-82 1t-102.5 2t-104.5 2t-88 1h-51t-21.5 -14.5t-11.5 -36.5q-4 -29 3 -38t18 -9q8 0 49 1t91 2t99 2t76 1q14 0 12 -23l-256 -2506q-2 -23 -16 -23q-27 0 -75 1t-98 2 t-91 2t-49 1q-10 0 -17.5 -9t-11.5 -38q-4 -23 1 -37t19 -14h54q37 0 86 1t104 2t102.5 2t81.5 1h43q20 0 28.5 9.5t12.5 37.5q2 20 10.5 130t21.5 279t31.5 384t43.5 446z" />
<glyph unicode="^" horiz-adv-x="786" d="M844 1247q2 10 -10.5 45t-29 76t-31.5 78t-21 53q-4 8 -19.5 50t-35 89.5t-39 85t-27.5 37.5h-64q-12 -16 -45 -59t-74.5 -99.5t-89 -118t-85 -114.5t-64.5 -92t-27 -47q0 -10 9.5 -12t19.5 -2h8q18 0 28.5 2t17.5 6t14.5 13t17.5 26l258 356l117 -346q10 -29 18 -43 t41 -14h27q27 0 55.5 3.5t30.5 26.5z" />
<glyph unicode="_" horiz-adv-x="935" d="M928 -63l14 137h-936l-12 -137h934z" />
<glyph unicode="`" horiz-adv-x="1181" d="M862 1403q0 6 -13 19.5t-29.5 39t-27 65.5t-4.5 101q4 53 17.5 103.5t17.5 103.5q4 45 -11 83t-69 38q-29 0 -49 -13.5t-33.5 -34t-20.5 -46t-9 -47.5q-10 -90 20.5 -180.5t75.5 -161.5q6 -8 18.5 -27t26.5 -37t29.5 -32.5t25.5 -14.5q12 0 22.5 15.5t12.5 25.5z" />
<glyph unicode="a" d="M1229 27l-2 71q-23 -4 -46.5 -8t-45.5 -4q-43 0 -68 27q-16 18 -20.5 69t-2 110.5t6.5 115t6 81.5q18 170 38.5 338t39.5 338v9q4 29 -0.5 53t-40.5 24h-4l-125 -55q-39 16 -76 25.5t-82 9.5q-100 0 -183 -36t-152 -97.5t-121 -141t-90 -169t-60.5 -180.5t-30.5 -173 q-8 -68 -5 -149.5t26.5 -152.5t73.5 -118t138 -47q70 0 138.5 31t129 85t108.5 127t79 159l-12 -127q-4 -43 -6 -88t8 -83t38.5 -62.5t84.5 -24.5q66 0 129 16.5t129 26.5zM952 1016q-6 -49 -19 -134t-38 -184.5t-58.5 -202t-78.5 -185.5t-100.5 -135t-122.5 -52 q-68 0 -102 41t-46 99.5t-10 123t6 113.5q2 25 1 50t3 48q10 96 28.5 189.5t60.5 166t117 116.5t195 44h9q27 0 56.5 -2t52 -11t36.5 -28.5t10 -56.5z" />
<glyph unicode="b" horiz-adv-x="1200" d="M1155 772q6 68 3 148.5t-26.5 150.5t-73.5 116t-138 46q-145 0 -259 -107.5t-208 -285.5l12 71q23 256 44 508t32 508h-285l-8 -74h182q-74 -385 -127 -765.5t-94 -768.5q-8 -76 -5 -140t27.5 -110t75.5 -72t142 -26q158 0 282.5 74t213.5 188.5t142.5 257t67.5 281.5z M946 666q-8 -78 -29.5 -176.5t-64.5 -187.5t-111.5 -149.5t-171.5 -60.5q-66 0 -99.5 25.5t-46.5 66.5t-11 92.5t8 102.5q6 70 28.5 167t57.5 194.5t84 182.5t110 132q29 20 55.5 34.5t59.5 14.5q37 0 61.5 -25.5t40 -65.5t23.5 -89.5t10 -98.5t0 -90.5t-4 -68.5z" />
<glyph unicode="c" horiz-adv-x="995" d="M967 264q2 12 -19.5 31.5t-32.5 19.5q-14 0 -34.5 -30.5t-53 -66.5t-76.5 -66.5t-106 -30.5q-92 0 -146.5 48t-81 120.5t-31.5 157.5t3 159q8 68 27.5 156t57.5 167t98.5 134t150.5 55q70 0 96.5 -34.5t37.5 -77.5t23.5 -78t55.5 -35h14q16 0 26.5 5t14.5 30l19 180 q4 39 -17.5 63.5t-53.5 38t-70 17.5t-68 4q-139 0 -249 -72t-189.5 -180.5t-127 -238.5t-59.5 -248q-10 -96 0 -189.5t48 -167.5t108.5 -119t183.5 -45q115 0 217.5 51.5t177.5 143.5q16 20 34 45.5t22 52.5z" />
<glyph unicode="d" d="M1229 27l-2 71q-23 -4 -46.5 -8t-45.5 -4q-39 0 -56.5 35t-22.5 83t-2 96t7 73q41 391 70.5 777t52.5 777h-287l-8 -74h194q-33 -166 -57.5 -328.5t-58.5 -328.5q-39 16 -77 25.5t-83 9.5q-100 0 -183 -36t-152 -97.5t-121 -141t-90 -169t-60.5 -180.5t-30.5 -173 q-8 -68 -5 -149.5t26.5 -152.5t73.5 -118t138 -47q70 0 138.5 24.5t129 71t108.5 113t77 150.5l-10 -76q-4 -43 -6 -89t8 -86t37.5 -65.5t85.5 -25.5q66 0 129 16.5t129 26.5zM952 1016q-6 -49 -19 -135t-37 -185.5t-57.5 -201t-78.5 -184.5t-101.5 -135t-123.5 -52 q-72 0 -102 37t-40 100q-16 82 -16 166q0 86 10 172q10 96 28.5 189.5t60.5 166t117 116.5t195 44h9q27 0 56.5 -2t52 -11t36.5 -28.5t10 -56.5zM1227 98h4l-4 2v-2z" />
<glyph unicode="e" horiz-adv-x="999" d="M1010 915q16 139 -52.5 227.5t-212.5 88.5q-137 0 -239.5 -78t-173 -193.5t-109.5 -247.5t-51 -243q-8 -82 -5 -170t31.5 -160.5t88 -120t162.5 -47.5q109 0 213 49.5t178 135.5q14 16 32.5 39.5t22.5 44.5q2 14 -12.5 32.5t-28.5 18.5q-6 0 -12 -8q-49 -66 -116 -112 t-148 -46q-59 0 -97.5 21.5t-60 58.5t-28.5 84t-5 98q117 0 223.5 37t191.5 106.5t140.5 166.5t67.5 218zM831 874q-8 -76 -39.5 -146.5t-84 -124.5t-121 -87t-148.5 -33q-39 0 -46 24.5t-3 55.5q4 37 12.5 94.5t22.5 121t35.5 127t52.5 114.5t73 83t95 32q49 0 81 -26 t49 -63.5t21 -84t0 -87.5z" />
<glyph unicode="f" horiz-adv-x="655" d="M1145 1677q4 37 8 70t8 59q4 39 1 68t-21.5 47t-56 27.5t-103.5 9.5q-121 0 -215 -49t-166 -128t-123 -179.5t-84 -204.5q-4 -14 -11 -37t-14.5 -46.5t-16.5 -44t-17 -30.5q-23 -29 -49.5 -33t-57.5 -4l-12 -115h100q-25 -133 -36 -264l-52 -471q-4 -41 -9 -84t-9 -86 q-4 -35 -6 -70.5t-2 -70.5q0 -23 19.5 -34t47.5 -11q31 0 61.5 12t43.5 35q8 18 18 66.5t17.5 103.5t13.5 107.5t10 76.5q16 160 26.5 318.5t26.5 318.5l7 53h247q29 0 35 12.5t10 39.5l7 63h-285l4 41q6 51 15.5 115.5t27.5 130t45 128t67 111t94 78t126 29.5 q63 0 88.5 -31.5t37 -70.5t20.5 -71t42 -32h19q27 0 38 6t15 41z" />
<glyph unicode="g" horiz-adv-x="1208" d="M999 -154q27 252 45.5 436.5t33 318.5t23.5 225.5t15 153.5t10 106t9 83q2 27 -2.5 54.5t-36.5 27.5h-6l-117 -55q-45 16 -83 25.5t-83 9.5q-100 0 -183 -36t-152 -97.5t-121 -141t-90 -169t-60.5 -180.5t-30.5 -173q-8 -68 -5 -149.5t26.5 -152.5t74.5 -118t140 -47 q68 0 129 23.5t114 64.5t95 95.5t69 113.5l70 146q-6 -68 -14.5 -156t-17.5 -180t-17.5 -180.5t-14.5 -155.5q-10 -96 -38.5 -174t-80 -132.5t-126 -84t-177.5 -29.5q-90 0 -138 27.5t-75 107.5l-12 36t-27 24q-23 0 -42 -17.5t-32.5 -42t-21.5 -51.5t-10 -45 q-6 -49 18.5 -80t63.5 -48t85 -23.5t83 -6.5q311 0 494 168t216 479zM952 1006q-6 -49 -19 -134.5t-37 -182.5t-57.5 -198.5t-78.5 -182.5t-101.5 -133t-123.5 -52q-68 0 -102 40t-46 98t-10 123t6 114q2 25 1 50t3 50q10 96 28.5 189.5t60.5 166t117 116.5t195 44h25 q29 0 55.5 -2t47 -13.5t30.5 -32.5t6 -60z" />
<glyph unicode="h" horiz-adv-x="1280" d="M1235 27l-4 69h-4q-20 0 -41 -5t-43 -5q-37 0 -54.5 30.5t-22.5 73.5t-2 87.5t5 68.5l53 498q6 59 8.5 127.5t-13 126t-56.5 95.5t-121 38q-74 0 -145.5 -48t-136 -124t-121 -172t-99.5 -191q18 178 34.5 340t30 312.5t23 294t15.5 284.5h-285l-8 -74h182 q-43 -193 -71.5 -387t-51.5 -389l-119 -1036q-6 -41 29 -41q55 0 88 4t51.5 20.5t25.5 49t13 92.5q20 197 78.5 385t173.5 360q18 27 45 63t58.5 67.5t66.5 53t70 21.5q31 0 47 -12t23.5 -30.5t7.5 -43.5q0 -23 -2 -47q-20 -193 -55.5 -382t-55.5 -382q-4 -41 -5 -83 t11 -75.5t40 -55t81 -21.5q66 0 128 15.5t128 27.5z" />
<glyph unicode="i" horiz-adv-x="628" d="M586 20l-4 72q-47 -10 -88 -10q-39 0 -56.5 31.5t-23.5 74.5t-3 89.5t5 74.5l2 8q10 92 14 184.5t14 184.5q10 119 16.5 236.5t4.5 236.5h-240l-8 -74h135q-47 -229 -89 -456.5t-66 -456.5q-4 -41 -4 -84q0 -41 11 -74.5t38.5 -55t81.5 -21.5q66 0 130 15t130 25z M543 1782q2 23 2 51q0 31 -7.5 58.5t-22.5 46t-46 18.5q-35 0 -57.5 -18.5t-37 -46t-22.5 -59.5t-10 -58q-2 -25 -2 -56q0 -29 8 -55.5t25.5 -43.5t50.5 -17t54.5 19t34.5 47t20.5 58.5t9.5 55.5z" />
<glyph unicode="j" horiz-adv-x="520" d="M436 367q23 211 30 417.5t17 417.5h-274l-8 -74h135q-12 -47 -19.5 -95t-13.5 -95l-4 -55q-12 -115 -30.5 -227.5t-30.5 -227.5q-14 -143 -23.5 -285.5t-26.5 -285.5l-4 -43q-8 -72 -21 -157t-46 -158.5t-88.5 -123t-147.5 -49.5q-57 0 -90 28t-52.5 61.5t-30.5 62 t-25 28.5q-23 0 -41.5 -15t-31.5 -37.5t-21.5 -47t-10.5 -43.5q-4 -43 14.5 -73.5t50 -50t70.5 -29t76 -9.5q129 0 224.5 58.5t163 153.5t113.5 216t74.5 248t44 248t25.5 215zM545 1782q2 23 2 51q0 31 -7.5 58.5t-23.5 46t-47 18.5q-35 0 -57.5 -18.5t-37 -46t-22.5 -59.5 t-10 -58q-2 -25 -1 -55.5t9 -56.5t25.5 -43t50.5 -17t54.5 19t34.5 47t20.5 58.5t9.5 55.5z" />
<glyph unicode="k" horiz-adv-x="1177" d="M1286 29l-14 61q-27 -10 -64 -10q-74 0 -128 43t-98 108.5t-82 143.5t-76 150.5t-81 129t-98 76.5h-2l481 397h119l8 74h-479l-8 -74q10 0 24.5 1t30.5 1q31 0 55.5 -9t20.5 -42q-2 -14 -30.5 -46t-71.5 -71.5t-96.5 -83.5t-103.5 -81t-92 -63.5t-63 -33.5 q33 305 59.5 613.5t43.5 613.5h-285l-8 -74h182q-37 -195 -62.5 -388t-54.5 -388q-35 -238 -64.5 -473t-53.5 -473l-2 -27q-2 -16 -3 -34q0 -18 3.5 -34t11.5 -26t24 -10q49 0 80 6t48.5 24.5t25.5 50.5t14 83q10 102 17.5 203.5t13.5 203.5h4l109 82q27 -94 71.5 -209.5 t112.5 -218t159 -172t208 -69.5q98 0 194 45z" />
<glyph unicode="l" horiz-adv-x="626" d="M586 27l-2 71q-23 -4 -45.5 -8t-44.5 -4q-35 0 -52.5 20.5t-23.5 49t-4 62.5t4 58q14 195 27.5 385.5t31.5 385.5q23 221 42.5 440t23.5 440h-287l-8 -74h182q-31 -152 -51.5 -301t-44.5 -301q-37 -242 -69 -478t-56 -478l-6 -49q-4 -43 -5 -89t9 -84t37.5 -63.5 t81.5 -25.5q66 0 130 16.5t130 26.5z" />
<glyph unicode="m" horiz-adv-x="1871" d="M1829 23l-4 71q-23 -4 -44.5 -7t-43.5 -3q-37 0 -54.5 36t-21.5 85t-2 100t6 84l2 19q10 102 22.5 201.5t22.5 201.5q6 57 10 130t-9 136.5t-53 107.5t-120 44q-76 0 -148.5 -52.5t-134 -127t-110.5 -156.5t-78 -141v45q6 55 12 129.5t-5 142.5t-47 115t-116 47 q-84 0 -155.5 -51.5t-130 -125t-103.5 -157.5t-73 -149q0 139 5 245.5t11 208.5h-240l-8 -74h135q-41 -182 -70.5 -363t-47.5 -366q-10 -90 -17.5 -179t-17.5 -179q-4 -29 7 -35t36 -6h30q27 0 55.5 4t43.5 27q10 16 15 49t7 53q12 98 26.5 190.5t37 181.5t55.5 178t80 181 q14 31 42 75t62.5 85t73.5 70.5t76 29.5q27 0 42 -11t21.5 -27.5t6.5 -38.5q0 -23 -3 -43q-18 -174 -42.5 -343t-41.5 -342l-14 -135q-4 -29 -5 -59.5t-5 -58.5q-4 -27 0 -46.5t37 -19.5q18 0 34.5 -2t34.5 -2q51 0 68.5 28.5t24.5 75.5q20 197 70 390.5t149 373.5 q18 33 44.5 77t60.5 82t73 64.5t82 26.5q29 0 44 -13.5t21 -32.5t6 -44t-2 -47q-20 -193 -54 -379t-54 -379q-4 -41 -5 -83t10 -75.5t38 -56t80 -22.5q66 0 130 15.5t130 25.5z" />
<glyph unicode="n" horiz-adv-x="1280" d="M1239 27l-2 71q-47 -12 -94 -12q-37 0 -53.5 36t-21.5 83t-2 95t7 73l45 436q6 66 8 139.5t-13 137t-55 104.5t-118 41q-74 0 -147.5 -46t-139 -120t-120 -165t-91.5 -183q4 80 7.5 147.5t6.5 126t5 109.5t6 102h-240l-8 -74h135q-37 -256 -81 -507.5t-70 -507.5 q-2 -12 -2 -33q0 -18 3 -36.5t12 -31t28 -12.5h32q29 0 56.5 4t42.5 27q12 20 17 45.5t9 48.5q12 109 26.5 208t40.5 193.5t68 186.5t107 190q18 27 46 64t60.5 70.5t68.5 57t71 23.5q31 0 47 -13t23.5 -34.5t6.5 -47.5t-3 -50q-16 -172 -50 -339t-51 -339l-6 -41 q-4 -43 -5 -91t9 -88t38 -65.5t81 -25.5q66 0 130 16.5t130 26.5z" />
<glyph unicode="o" horiz-adv-x="1218" d="M1169 731q10 94 -1 186.5t-50 164t-109.5 115.5t-181.5 44q-143 0 -257.5 -73.5t-198.5 -186.5t-134.5 -248t-62.5 -258q-10 -96 0 -188t49 -165t111 -117t182 -44q147 0 262 72.5t198 186.5t132 249t61 262zM965 582q-6 -68 -25.5 -150t-57.5 -152.5t-97.5 -118.5 t-147.5 -48q-94 0 -147.5 52t-78 129t-26.5 165t6 159q8 74 27.5 161t59.5 162t103.5 125t159.5 50q90 0 139.5 -58.5t70 -142.5t20.5 -176q0 -89 -6 -157z" />
<glyph unicode="p" horiz-adv-x="1187" d="M1126 625q12 123 -7 231.5t-74.5 189t-148.5 128t-226 47.5q-25 0 -52.5 -4.5t-62.5 -4.5l43 387q-47 -4 -75.5 -15t-47 -30.5t-27 -50t-14.5 -76.5l-12 -124q-4 -41 -9 -80t-16 -78h-4q-90 -51 -160.5 -108.5t-142.5 -131.5l51 -57q49 53 107.5 97t134.5 83 q-35 -217 -65.5 -434t-53.5 -436q-25 -231 -50.5 -460.5t-49.5 -461.5q-2 -10 -2 -27q0 -18 16 -18q25 0 40 7t25.5 19.5t19.5 30t20 37.5q37 68 59.5 125.5t35.5 112.5t21.5 114.5t16.5 131.5q4 53 10 106t10 107h8q20 0 53 -6.5t56 -6.5q129 0 230.5 60.5t174 155 t114.5 211t54 229.5zM918 545q-6 -72 -23.5 -155t-53.5 -153.5t-96.5 -118.5t-152.5 -48q-39 0 -75 10t-68 33l104 997h8q16 0 35.5 3t38.5 3q100 0 160.5 -60.5t90 -147.5t35 -186t-2.5 -177z" />
<glyph unicode="q" horiz-adv-x="1187" d="M1100 827q8 80 12 160t12 160h4q-66 41 -145.5 61.5t-161.5 20.5q-104 0 -191 -37t-157 -100.5t-123 -146.5t-91 -174t-60.5 -186.5t-32.5 -181.5q-6 -68 -1 -144.5t30.5 -140t77 -105.5t137.5 -42q70 0 140.5 30t132.5 86t112.5 136t81.5 178l-13 -141 q-23 -100 -41 -199.5t-28 -199.5q-2 -20 -6.5 -72.5t-8.5 -120t-8 -142.5t-7 -139.5t-3 -109.5t4 -53q6 -14 11 -17.5t22 -3.5q43 0 69.5 3t41 16.5t20.5 39t10 70.5q41 375 80 747.5t80 747.5zM944 1016q-6 -51 -18.5 -137t-35 -186.5t-56 -203t-79.5 -186.5t-104.5 -136 t-134.5 -52q-63 0 -94 46t-40 109.5t-5 131t8 112.5q6 51 15.5 113.5t24.5 127t35.5 125t49.5 105.5q47 76 113.5 103.5t148.5 27.5q37 0 82 -5t74 -28q16 -14 18 -29t-2 -38z" />
<glyph unicode="r" horiz-adv-x="901" d="M946 950l23 219q4 37 -8.5 52.5t-49.5 15.5q-76 0 -147.5 -54.5t-132 -132t-105.5 -161.5t-69 -146l-6 54q2 102 5 202.5t11 202.5h-240l-8 -74h135q-45 -211 -72.5 -425t-50.5 -427l-4 -22q-2 -27 -5 -70t-1 -84t10.5 -70.5t26.5 -29.5h88q43 0 54.5 30.5t15.5 65.5 q10 98 23.5 198.5t35 200t55 196.5t82.5 190h2q8 20 25.5 50t39 56.5t47.5 46t50 19.5q27 0 36 -23.5t14 -53.5t16.5 -53.5t42.5 -23.5q41 0 49 8t12 43z" />
<glyph unicode="s" horiz-adv-x="860" d="M817 358q8 84 -21.5 147.5t-78.5 115t-107.5 92.5t-108.5 83t-82 87t-26 102q8 72 60.5 107.5t117.5 35.5q76 0 102.5 -29.5t36 -66.5t14.5 -66.5t36 -29.5h8q12 0 32.5 3t22.5 15l19 170q2 20 0 39t-25 29q-16 10 -39.5 18.5t-49.5 13.5t-51.5 7t-45.5 2 q-76 0 -146.5 -27.5t-126 -76t-91.5 -114t-44 -143.5q-8 -84 22.5 -144t81 -107.5t110 -86t110.5 -79.5t83 -90.5t23 -114.5q-4 -41 -23.5 -75t-49 -56.5t-66.5 -34.5t-76 -12q-74 0 -121 30.5t-74.5 68.5t-44 68.5t-28.5 30.5q-23 0 -41 -17t-31.5 -41t-21.5 -49.5 t-10 -41.5q-6 -49 24.5 -81t76.5 -49.5t97 -24.5t88 -7q86 0 166 29.5t143.5 82t104.5 126t51 161.5z" />
<glyph unicode="t" horiz-adv-x="665" d="M799 1147l6 55h-281q2 10 6.5 41t8.5 70q2 35 5 71.5t3 65.5q0 31 -4 50.5t-13 19.5q-51 0 -76.5 -23.5t-39 -59.5t-19.5 -77t-18 -77t-36 -59.5t-69 -23.5h-22l-12 -115h104q-35 -217 -67.5 -433t-55.5 -433q-4 -41 -5 -83t10.5 -75.5t39 -55t80.5 -21.5q76 0 155 18 t154 39l-10 72q-29 -8 -59.5 -13.5t-59.5 -5.5q-31 0 -54.5 8.5t-33.5 40.5q-6 27 -6 80q0 55 3 115.5t7 117t9 89.5q16 135 32.5 270t30.5 270h219q62 1 68 62zM643 117h-2v-2h2v2z" />
<glyph unicode="u" horiz-adv-x="1312" d="M1268 98q-23 -4 -45.5 -8t-44.5 -4q-55 0 -67.5 37t-12.5 82q-2 104 5 206.5t17 206.5q16 147 35 292t35 292h-49q-39 0 -62.5 -23.5t-39 -57.5t-22.5 -71.5t-11 -64.5q-10 -57 -25.5 -142t-40.5 -180.5t-60.5 -191.5t-82.5 -173t-109.5 -125t-142.5 -48q-59 0 -88 29.5 t-40 73.5t-8 95.5t7 94.5q10 86 16 171t12 171q8 111 10.5 221.5t12.5 220.5h-240l-8 -74h135q-41 -190 -77.5 -377.5t-57.5 -379.5q-6 -68 -5 -139.5t22.5 -129t69.5 -94.5t134 -37q66 0 136.5 32t135 84t116 122t77.5 147l-12 -120q-4 -41 -6 -85.5t8 -81t36.5 -61 t80.5 -24.5q66 0 129 16t129 27zM1268 98v2h-2v-2h2z" />
<glyph unicode="v" horiz-adv-x="1140" d="M1278 1128l8 74h-422l-8 -74q29 0 59.5 -2t54 -13t38 -32.5t10.5 -58.5q0 -6 -8.5 -25.5t-18.5 -42t-19 -43t-11 -26.5q-10 -20 -35 -74.5t-57.5 -124.5t-70.5 -146.5t-73 -139t-64.5 -103.5t-46.5 -41q-14 0 -29.5 41t-29.5 93t-24.5 100.5t-14.5 64.5q-37 166 -80 329 t-102 318h-221l-9 -74h117q10 -211 39 -419.5t88 -409.5q14 -47 29.5 -91t30.5 -91q4 -10 9 -29.5t12 -39t14.5 -36t15.5 -22.5t30.5 -7t32.5 -1h27q25 0 46 6t36 35l561 1105h86z" />
<glyph unicode="w" horiz-adv-x="1703" d="M1841 1128l8 74h-419l-9 -74q29 0 59.5 -2t54.5 -13t37 -32.5t9 -58.5q-2 -23 -24.5 -76t-55.5 -121.5t-71.5 -144.5t-75.5 -144.5t-68 -123t-47 -78.5q-2 -2 -7 -9.5t-11.5 -15.5t-12.5 -14t-10 -6q-14 0 -26.5 30.5t-22.5 77.5t-19.5 102.5t-16.5 106.5t-12 90t-7 52 l-8.5 42.5t-14.5 76.5t-17.5 94.5t-17.5 92.5t-14 70.5t-8 32.5q-4 6 -18.5 15.5t-33 17.5t-39 14t-38.5 6q-39 0 -41 -32q-4 -39 6 -86.5t20 -83.5l-104 -232q-6 -12 -22.5 -52t-39 -94.5t-49 -114.5t-52 -110.5t-46 -83t-33.5 -32.5h-4q-10 6 -19 41t-16.5 77t-13.5 80.5 t-8 53.5q-37 174 -62.5 336.5t-70.5 324.5h-217l-9 -74h113q6 -129 14.5 -250.5t20.5 -241.5t30.5 -240t47.5 -242l7 -35t11 -52.5t13.5 -49t13.5 -25.5q16 -8 34.5 -9t36.5 -1q23 0 45.5 5t32.5 31l383 840q12 -78 23.5 -192.5t25 -235.5t33 -230.5t45.5 -174.5 q12 -29 30.5 -36t49.5 -7h16q23 0 38.5 5t29.5 33l557 1108h86z" />
<glyph unicode="x" horiz-adv-x="1097" d="M1157 16l-10 74q-18 -4 -36.5 -6t-37.5 -2q-47 0 -79.5 22.5t-55.5 57.5q-78 113 -134 240.5t-110 254.5l375 471h113l8 74h-361l-6 -74h21q16 0 31.5 -2t27.5 -7t12 -13q-2 -10 -20 -39t-46 -65.5t-60.5 -75.5t-62.5 -72t-52.5 -54.5t-28.5 -21.5q-23 0 -27 23 q-47 104 -99 202.5t-103 198.5h-232l-8 -74h127q41 -141 87 -277t83 -278h-2l-336 -419q-18 -23 -32.5 -39.5t-31 -25.5t-36 -13t-47.5 -4l-8 -72h376l6 72q-8 0 -23 -1t-34 -1q-29 0 -55.5 4t-24.5 20q2 10 22.5 41t50.5 70t64.5 81t66.5 76.5t54.5 57t28.5 22.5 q12 0 30.5 -33.5t43 -85t58.5 -110.5t78 -110.5t101.5 -85t128.5 -33.5q53 0 103.5 10t101.5 22z" />
<glyph unicode="y" horiz-adv-x="1253" d="M1075 -72q23 211 31 420t31 420q10 111 25.5 217.5t27.5 216.5h-49q-39 0 -62.5 -23.5t-39 -57.5t-22.5 -71.5t-11 -64.5q-10 -57 -25.5 -142t-40.5 -180.5t-59.5 -191.5t-82.5 -173t-109.5 -125t-141.5 -48q-61 0 -90 31.5t-38 78t-7 99.5t6 96q18 195 27.5 386.5 t21.5 385.5h-240l-8 -74h135q-41 -190 -77.5 -377.5t-57.5 -379.5q-6 -68 -5 -139.5t22.5 -129t69.5 -94.5t134 -37q68 0 141.5 31t138 83t112 124t63.5 153l6 -98q6 -131 3 -262t-17 -264q-20 -190 -122.5 -305t-303.5 -115q-90 0 -138.5 28.5t-74.5 108.5q-2 4 -5 14.5 t-7.5 19.5t-9.5 16.5t-13 7.5q-25 0 -43 -17.5t-32.5 -41t-21.5 -50.5t-10 -45q-6 -49 19 -80t63.5 -48t84.5 -23.5t83 -6.5q70 0 139.5 11.5t136 35t128 61.5t114.5 91q55 55 91 118.5t57.5 130t33 137t19.5 142.5z" />
<glyph unicode="z" horiz-adv-x="858" d="M817 256q-25 -57 -51.5 -84t-91.5 -27q-94 0 -184.5 19.5t-184.5 19.5q51 84 100.5 168t96.5 170q72 137 139.5 274.5t155.5 266.5h2q37 25 74.5 57.5t41.5 79.5q2 14 -4 31.5t-22 17.5q-31 -16 -52.5 -28.5t-43 -22.5t-46 -15t-61.5 -5t-72.5 8t-71.5 19.5t-72 19.5 t-73 8q-84 0 -113.5 -33t-37.5 -110l-15 -144h60q-4 20 2 58q4 33 14 62.5t33 29.5q20 0 35.5 -17.5t34 -37t42 -37t64.5 -17.5q29 0 56.5 5t60.5 5q-27 -41 -52.5 -84t-50.5 -86q-90 -166 -178 -330.5t-176 -332.5q-47 -10 -81 -37t-38 -76q-2 -20 3.5 -44.5t31.5 -24.5 q18 0 32.5 10t30 23.5t34 23.5t42.5 10q45 0 95.5 -23.5t102.5 -52t105.5 -52t106.5 -23.5t91 38.5t63.5 93t43 113t29.5 97.5zM815 258h-2v-2zM817 256v2h-2z" />
<glyph unicode="{" horiz-adv-x="813" d="M96 598q2 20 14.5 38.5t32.5 18.5q123 0 195 82t86 221q6 57 14 149.5t16.5 188t15.5 181.5t13 135q6 70 39 128t84 98t114.5 62.5t131.5 22.5h37t22.5 1t22.5 1h37q16 0 23 -7t5 -32q-4 -20 -11 -34.5t-21 -14.5q-23 0 -49.5 1t-79.5 1q-78 0 -137.5 -64.5t-71.5 -185.5 q-2 -23 -7.5 -72t-11.5 -111.5t-12 -133t-12 -135t-12.5 -118.5t-8.5 -85q-8 -78 -24.5 -137.5t-55.5 -102.5t-105.5 -67.5t-172.5 -30.5q106 -6 167.5 -30.5t90.5 -67.5t34 -103.5t-3 -136.5q-4 -31 -10.5 -90t-15.5 -132t-18.5 -153t-16.5 -150.5t-13 -124.5t-8 -77 q-14 -121 33 -185.5t124 -64.5q53 0 80 1t49 1q14 0 19.5 -14t1.5 -35q-2 -25 -11.5 -32t-25.5 -7h-37t-21.5 1t-21.5 1h-37q-68 0 -127 22.5t-101 62.5t-62.5 97.5t-14.5 128.5q4 33 10.5 88.5t14.5 123t17 141t17.5 144.5t15.5 130.5t11 97.5q16 139 -39 221.5t-178 82.5 q-20 0 -29.5 19t-5.5 42z" />
<glyph unicode="|" horiz-adv-x="370" d="M186 -532l240 2293h-119l-239 -2293h118z" />
<glyph unicode="}" horiz-adv-x="813" d="M829 598q2 20 -6 38.5t-28 18.5q-123 0 -178.5 82t-41.5 221q6 57 17.5 149.5t24 188t22.5 181.5t16 135q6 70 -14 128t-62 98t-100.5 62.5t-126.5 22.5h-37t-22 1t-23 1h-37q-16 0 -25 -7t-11 -32q-4 -20 1 -34.5t19 -14.5q23 0 49.5 1t79.5 1q78 0 125 -64.5t35 -185.5 q-2 -23 -8 -72t-13.5 -111.5t-15.5 -133t-16.5 -135t-13.5 -118.5t-9 -85q-8 -78 -3 -137.5t33.5 -102.5t90 -67.5t168.5 -30.5q-109 -6 -175.5 -30.5t-104.5 -67.5t-54 -103.5t-25 -136.5q-4 -31 -10 -90t-12 -132t-14.5 -153t-14.5 -150.5t-11 -124.5t-7 -77 q-14 -121 -73.5 -185.5t-137.5 -64.5q-53 0 -79 1t-48 1q-14 0 -21.5 -14t-11.5 -35q-2 -25 5 -32t24 -7h37t22 1t23 1h37q68 0 131 22.5t113 62.5t83 97.5t39 128.5q4 33 9.5 88.5t11.5 123t12 141t12 144.5t11.5 130.5t9.5 97.5q16 139 87.5 221.5t194.5 82.5 q20 0 31.5 19t15.5 42z" />
<glyph unicode="~" horiz-adv-x="1028" d="M1122 1380l-32 35q-82 -76 -183 -76q-59 0 -110.5 17.5t-100.5 39t-96 39t-98 17.5q-45 0 -89 -26.5t-84 -64.5t-75 -82t-59 -77l32 -28q78 98 197 98q49 0 91 -15.5t84 -35t83 -35t88 -15.5t96 19.5t95.5 50.5t87 67.5t73.5 71.5z" />
<glyph unicode="&#xa1;" horiz-adv-x="471" d="M276 -524q23 223 33 441t17 439q2 63 2 127q0 63 4 127q0 14 1 35t-3 39t-14.5 31.5t-32.5 13.5q-27 0 -36 -17.5t-16 -37.5q-14 -47 -23 -96.5t-18 -98.5q-41 -229 -78.5 -457.5t-62.5 -457.5l-2 -29q-4 -29 -7 -67.5t-2 -77.5t6 -70t22 -39q16 -10 32.5 -12t36.5 -2 q43 0 68.5 20.5t41 52t21.5 68.5t10 68zM420 1055q2 25 3 54.5t-7 56t-25.5 44t-50.5 17.5q-31 0 -53.5 -19.5t-35.5 -47t-20.5 -58.5t-9.5 -55q-2 -23 -2 -54q0 -29 7 -56.5t23.5 -47t47.5 -19.5q33 0 55.5 19.5t36.5 47.5t21.5 60.5t9.5 57.5z" />
<glyph unicode="&#xa2;" horiz-adv-x="995" d="M983 412q0 12 -21.5 31.5t-31.5 19.5q-4 0 -10.5 -7t-13.5 -17.5l-13 -19.5t-8 -11q-37 -59 -83 -100.5t-116 -41.5h-18t-19 2l105 996h12q61 -8 81.5 -44t30 -76t20.5 -72t54 -32h9q20 0 31.5 5.5t15.5 33.5l18 176q4 45 -23.5 71t-69.5 37t-88 13t-79 2l20 197h-81 l-27 -227q-106 -23 -191.5 -102t-148 -182t-100 -218t-48.5 -207q-10 -104 0.5 -199.5t51.5 -166t116.5 -112.5t194.5 -42l-25 -219h82l25 231h8q82 10 156.5 64.5t126.5 117.5q16 20 34.5 46t22.5 53zM571 295q-66 31 -101.5 82t-53 113.5t-17.5 130.5t7 129q6 53 17 119.5 t33.5 132t56.5 123t83 92.5q6 4 29.5 17t44.5 13z" />
<glyph unicode="&#xa3;" horiz-adv-x="1507" d="M1458 0l8 82q-78 0 -131 16.5t-98 44t-87 64.5t-97 78q31 53 48 104t23 111q4 45 2 81.5t-12 70.5t-26.5 67t-38.5 67h-2v7h262q39 0 49 15t14 50l4 43h-436q-35 23 -66.5 49.5t-64.5 53.5q-31 25 -66.5 53t-65.5 63t-47.5 75t-13.5 87t28 83t57.5 60.5t75.5 37t85 12.5 q70 0 108 -20.5t58.5 -50.5t26.5 -65.5t12 -65.5t15.5 -50.5t35.5 -20.5q8 0 16.5 -1t18.5 -1q14 0 25.5 5t13.5 24l25 223q2 27 -1.5 43t-25.5 33q-20 14 -50 24.5t-64 17.5t-67.5 11t-58.5 4q-86 0 -170 -23.5t-153.5 -70.5t-115.5 -117.5t-56 -167.5 q-10 -102 19.5 -166.5t103.5 -128.5l-3 -10h-294l-11 -108h439q49 -31 103 -68t98 -83t70 -102.5t19 -125.5q-4 -16 -9 -32.5t-21 -33.5q-43 35 -99.5 77t-118 78t-125 60.5t-122.5 24.5q-63 0 -129 -21.5t-120 -60.5t-92 -95.5t-44 -123.5q-8 -80 23.5 -139.5t88 -97.5 t127 -57.5t140.5 -19.5q123 0 229.5 40t216.5 118l191 -131h323zM877 176q-70 -63 -150 -89t-166 -26q-61 0 -124.5 16.5t-115 51.5t-82 86t-22.5 123q6 63 48 100t106 37q43 0 113.5 -37t144 -86t140.5 -99t105 -77h3z" />
<glyph unicode="&#xa4;" horiz-adv-x="1308" d="M834 461l16 164h-438q0 47 3 93t7 91l2 25h475l16 161h-464q20 92 54 179.5t89 157t134 111.5t187 42q68 0 119 -9.5t86 -33t53.5 -66.5t24.5 -110q2 -16 3 -35t7 -35t17.5 -26.5t34.5 -10.5q6 0 14 -1t18 -1q12 0 21.5 4t11.5 19l29 288q4 23 2 36.5t-21 25.5 q-20 14 -66 25.5t-98.5 20.5t-101.5 14t-76 5q-139 0 -253.5 -49t-205 -131t-157 -191.5t-109.5 -228.5h-104l-17 -161h74q-10 -41 -15 -80t-9 -78l-7 -51h-129l-16 -164h145q8 -106 39 -196.5t91.5 -156t152.5 -102.5t223 -37q125 0 246 43t221 131q10 8 26.5 24.5t34 35 t30 37t12.5 30.5q2 12 -13.5 32t-29.5 20q-2 0 -2 -3h-2q-47 -43 -92.5 -81.5t-93.5 -67.5t-102 -46.5t-118 -17.5q-92 0 -159.5 28t-113.5 76t-74 112.5t-40 138.5h408z" />
<glyph unicode="&#xa5;" horiz-adv-x="1280" d="M1442 1466l10 82h-375l-10 -82h37q35 0 62.5 -10t23.5 -51q-2 -20 -28.5 -66.5t-65.5 -108t-87 -130t-92.5 -130t-81 -109.5t-55.5 -68h-37q-76 199 -158.5 389t-195.5 366h-217l-10 -82h112q61 -215 142.5 -418.5t177.5 -402.5h-354l-11 -104h351l-17 -131h-348 l-10 -105h350l-20 -223h-140l-8 -82h477l8 82h-139q4 55 11.5 111.5t15.5 111.5h348l10 105h-346l12 131h349l10 104h-350l573 821h76z" />
<glyph unicode="&#xa6;" horiz-adv-x="370" d="M186 -532l99 942h-119l-98 -942h118zM426 1761h-119l-86 -839h119z" />
<glyph unicode="&#xa7;" horiz-adv-x="1155" d="M1147 588q8 84 -20.5 147.5t-78 114.5t-108.5 92t-109.5 83t-82 87t-25.5 102q8 72 61.5 108t118.5 36q76 0 102.5 -30t36 -66.5t14.5 -66.5t36 -30h8q12 0 32.5 3t22.5 16l19 170q2 20 -1.5 38.5t-23.5 28.5q-16 10 -40 18.5t-49.5 13.5t-51 7t-45.5 2q-76 0 -147 -27.5 t-126 -75.5t-91 -113.5t-44 -143.5l-2 -23q-66 -10 -125 -40.5t-105.5 -77t-77 -106.5t-36.5 -130q-10 -84 20.5 -144.5t80.5 -107.5t109.5 -86t111 -80t83 -90t25.5 -115q-4 -41 -23.5 -74.5t-49 -56t-66.5 -35t-76 -12.5q-74 0 -121 31t-74.5 68.5t-44 68.5t-28.5 31 q-23 0 -41.5 -17.5t-32.5 -41t-22.5 -49t-10.5 -42.5q-6 -49 24.5 -80.5t77 -49t98.5 -24.5t89 -7q84 0 163 28.5t142.5 79.5t105.5 124t52 159q68 16 127 51t105 85t77 112.5t37 136.5zM377 838q8 72 61.5 107.5t118.5 35.5q29 -59 71 -102t91 -82q2 -2 4 -3t4 -3 q47 -35 95 -67t86 -67.5t60.5 -78.5t16.5 -99q-8 -76 -62.5 -122t-123.5 -54q-12 66 -50 116t-86.5 92t-101.5 79t-95 74.5t-68.5 79t-20.5 94.5z" />
<glyph unicode="&#xa8;" horiz-adv-x="1181" d="M1022 1776q2 20 1 46.5t-9 49t-24.5 39t-43.5 16.5t-46 -16.5t-32.5 -39t-20.5 -49t-9 -46.5q-2 -23 -1 -46.5t8 -45t22.5 -35t43.5 -13.5q27 0 47.5 13.5t34 34t20.5 45t9 47.5zM684 1776q2 20 1 46.5t-9 49t-23.5 39t-42.5 16.5t-46 -15.5t-32.5 -39t-20.5 -50 t-9 -46.5q-2 -23 -1 -47.5t9 -45t23.5 -34t44.5 -13.5q27 0 46 13.5t31.5 34t19.5 45t9 47.5z" />
<glyph unicode="&#xa9;" horiz-adv-x="2177" d="M2154 852q12 145 -30.5 287.5t-142 256t-255 183.5t-364.5 70h-8q-166 -2 -310.5 -42t-265.5 -111t-218 -164t-167.5 -200.5t-112.5 -221t-55 -226.5v-10q-14 -143 25 -285.5t133 -256.5t245.5 -185.5t360.5 -71.5h8q260 2 466 86t353.5 220t232.5 308.5t103 350.5z M1939 733l-2 -12q-12 -115 -69.5 -244t-158.5 -238.5t-246.5 -182t-329.5 -74.5h-7q-127 0 -227 36.5t-176 99t-129 143.5t-85 168t-43 175t-5 166v4q8 72 35.5 157t74.5 170t114 163.5t152 140t188 98.5t224 39h6q193 0 329 -83t219 -206t115.5 -263t20.5 -257zM1554 424 q2 12 -19.5 31.5t-31.5 19.5q-14 0 -34.5 -30.5t-53.5 -66.5t-77 -66.5t-105 -30.5q-92 0 -146.5 48t-81 120.5t-30.5 157.5t4 159q6 68 25.5 156t58.5 166.5t98.5 134t149.5 55.5q70 0 96.5 -35t37.5 -78t23.5 -77.5t55.5 -34.5h14q16 0 26.5 5t14.5 29l18 181 q4 39 -16 63.5t-53 37.5t-71 17.5t-68 4.5q-139 0 -249 -72t-190 -180.5t-127 -238.5t-59 -249q-10 -96 0 -189t48 -167t108.5 -119t183.5 -45q115 0 217 51t178 144q16 20 33.5 45.5t21.5 52.5z" />
<glyph unicode="&#xab;" horiz-adv-x="1525" d="M1266 1151q0 6 -6.5 17.5t-15.5 22.5t-20.5 19.5t-17.5 10.5l-235 -246q-78 -84 -158 -169t-166 -163q-10 -10 -30.5 -29.5t-22.5 -35.5q-2 -8 20.5 -49.5t56.5 -100.5t74.5 -125.5t78.5 -126t67 -103.5t39 -55q10 -10 17 -14t24 -4h145q10 0 19.5 2t9.5 10q2 6 -2 14.5 t-8 12.5q-100 143 -199.5 285.5t-185.5 298.5q16 16 61 59t101.5 99.5t119 118t113.5 113.5t86 90t35 48zM752 1151q0 6 -6.5 17.5t-16.5 22.5t-20.5 20.5t-16.5 9.5l-8 -9l-240 -251q-78 -80 -153.5 -162t-157.5 -156l-30.5 -30.5t-22.5 -34.5q-2 -10 18.5 -47t51 -88.5 t68.5 -112t73 -114.5t62.5 -98t37.5 -65q16 -29 30.5 -41t51.5 -12h129q8 0 17.5 2t9.5 10q2 6 -3 14.5t-5 14.5q-104 141 -203 284.5t-185 297.5q16 16 61.5 60t103 99.5t119 115.5t113.5 113.5t87 91.5t35 48z" />
<glyph unicode="&#xac;" horiz-adv-x="2097" d="M82 -8h1687q68 0 121.5 17.5t90 48t56 70.5t19.5 85q0 88 -46 139t-122 76q51 25 83 71t32 109q0 35 -8 64.5t-31 56.5h6v287h-96l-8 -191h-598v385h-473v256h108v99h-850l-18 -217h100l8 118h224v-641h-285v-833zM469 729v737h221v-354h475v-285h-108v-98h4l153 -381 h-393l-41 -96h471l66 -162h-1135v639h287zM1430 90h-7l-262 639h545q61 0 98 -13.5t58.5 -32.5t28.5 -40.5t7 -38.5q0 -57 -51 -95t-123 -38h-233v-98h211q16 0 57 -3t83 -16.5t75 -43t33 -83.5q0 -53 -26 -80.5t-65.5 -41t-86 -15.5t-89.5 -2h-253v2zM1870 1276h94l-6 287 h-602v-453h313v-104h96v309h-96v-107h-211v256h395zM690 829l27 -364h98l25 364h-150z" />
<glyph unicode="&#xad;" horiz-adv-x="1402" d="M1354 520l16 160h-1198l-16 -160h1198z" />
<glyph unicode="&#xae;" horiz-adv-x="1542" d="M1628 1341q10 111 -22.5 218.5t-107.5 192.5t-191.5 138.5t-276.5 53.5h-8q-188 0 -340 -68t-262.5 -172.5t-175 -234.5t-78.5 -255v-8q-10 -109 19.5 -216t101 -193t185.5 -140.5t271 -54.5h9q197 0 353.5 63.5t268 167t176 234.5t78.5 266v8zM1464 1251 q-10 -92 -55 -196.5t-127 -190.5l-8 25q-10 -2 -19.5 -4t-19.5 -2q-29 0 -48.5 16t-34.5 44t-27.5 61.5t-22.5 70.5q-16 51 -31.5 96.5t-36.5 67.5q82 41 133.5 104.5t61.5 159.5q14 131 -53.5 186.5t-190.5 55.5q-25 0 -50.5 -1t-47.5 -3q-12 0 -24.5 -1t-22.5 -1 q-39 0 -80 -1t-82 -1l-6 -68h82q-25 -109 -43.5 -216t-28.5 -216l-8 -66l-23 -278h-61l-6 -68h266l6 68h-80q10 80 19.5 158.5t19.5 156.5h92q12 -53 31.5 -122.5t50.5 -131t77 -103.5t116 -42h18q10 0 23 4q-72 -59 -164 -95t-205 -36h-6q-143 0 -242.5 60.5t-160 150.5 t-85 193.5t-16.5 191.5q6 55 26.5 119.5t56.5 129t86 125t114.5 106.5t143.5 75t173 29h6q147 0 248.5 -62.5t163 -155t86 -199t16.5 -194.5zM1083 1464q-18 -174 -194 -174h-35q-20 0 -27 2q6 92 11.5 184.5t13.5 184.5q10 2 25 2h24q104 0 148 -46.5t34 -152.5z" />
<glyph unicode="&#xaf;" horiz-adv-x="980" d="M989 1649l15 139h-578l-14 -139h577z" />
<glyph unicode="&#xb0;" horiz-adv-x="305" d="M438 1380q8 80 -25.5 140.5t-121.5 60.5q-55 0 -99.5 -27.5t-75 -70.5t-49 -94.5t-24.5 -98.5q-8 -80 26.5 -138t123.5 -58q57 0 100 26.5t73.5 68.5t48 92t23.5 99zM352 1325q-2 -25 -9 -55.5t-21.5 -58t-36 -46t-54.5 -18.5q-37 0 -58 21.5t-31.5 52t-12.5 66.5t0 65 q2 27 10 57.5t23.5 56t38 43t57.5 17.5t55.5 -21.5t29.5 -52.5t10 -65.5t-1 -61.5z" />
<glyph unicode="&#xb1;" horiz-adv-x="1218" d="M1176 698l16 152h-420l39 381h-149l-39 -381h-418l-17 -152h418l-41 -389h150l41 389h420zM1104 0l14 147h-987l-14 -147h987z" />
<glyph unicode="&#xb4;" horiz-adv-x="1181" d="M946 1815q2 23 0 48t-11 45.5t-26.5 34t-46.5 13.5q-53 0 -76.5 -39t-27.5 -84q-4 -51 -3 -101.5t-3 -101.5q-8 -66 -26.5 -110.5t-72.5 -87.5h-2q-18 -10 -22 -29q-2 -12 5 -26.5t21 -14.5q4 0 12.5 5t10.5 7h2q45 35 90 87t82 112.5t62.5 123.5t31.5 118z" />
<glyph unicode="&#xb5;" horiz-adv-x="1312" d="M1264 98q-23 -4 -45.5 -8t-44.5 -4q-55 0 -67.5 37t-12.5 82q-2 104 5 206.5t17 206.5q16 147 34.5 292t35.5 292h-45q-39 0 -62.5 -23.5t-39 -57.5t-22.5 -71.5t-11 -64.5q-10 -57 -25.5 -142t-40.5 -180.5t-60.5 -191.5t-82.5 -173t-109.5 -125t-142.5 -48 q-59 0 -90 29.5t-43.5 73.5t-11.5 95.5t6 94.5q10 86 16 171t12 171q8 111 15.5 221.5t17.5 220.5h-240l-8 -74h135q-29 -135 -51 -268t-45 -268h-2q-47 -229 -89 -456.5t-67 -457.5q-4 -41 -4 -81q0 -43 11.5 -77t39 -55.5t80.5 -21.5l158 102q-39 0 -56.5 32t-22.5 75 t-3 89t6 75l2 8l13 172q43 -25 116 -25q66 0 136.5 32t135 84t116 122t77.5 147l-12 -120q-4 -41 -6 -85.5t8 -81t36.5 -61t80.5 -24.5q66 0 127 16t127 27zM1264 98v2h-2v-2h2z" />
<glyph unicode="&#xb6;" horiz-adv-x="1220" d="M268 913q-10 -92 8.5 -167.5t58.5 -135t98.5 -102.5t131.5 -70l-22 -211q-8 -92 -16.5 -199.5t-14.5 -199.5h-135l-8 -82l733 2l8 82h-106q20 127 39.5 267.5t31.5 267.5q23 223 34 441t11 439h137l9 82q-102 0 -200.5 4t-201.5 4q-111 0 -213 -16t-182 -62.5 t-133.5 -129.5t-67.5 -214zM1012 1239q-4 -45 -15.5 -153.5t-25 -250t-28.5 -297t-28.5 -297t-22.5 -250t-11 -153.5l-191 -8q20 125 39 265.5t33 266.5l86 867z" />
<glyph unicode="&#xb7;" horiz-adv-x="604" d="M465 813q2 23 1 53.5t-8 57t-24.5 45t-48.5 18.5q-33 0 -55.5 -19.5t-36.5 -47t-22.5 -60.5t-10.5 -57q-2 -25 -1 -54.5t9 -55t26.5 -43t51.5 -17.5q31 0 52.5 19.5t36 47t21.5 58t9 55.5z" />
<glyph unicode="&#xb8;" horiz-adv-x="995" d="M508 -745q41 61 59.5 118.5t26.5 126.5q6 61 -5 110.5t-26.5 93.5t-28 83t-8.5 78q0 4 -1 10t1 10q2 27 13.5 46.5t26 37t28.5 33.5t22 37l-100 2q-12 -29 -34.5 -76t-47 -102.5t-46 -114.5t-34.5 -115q-6 -45 5.5 -70.5t31 -38.5t42 -19.5t43 -15.5t31.5 -25.5t9 -49.5 q-4 -39 -19.5 -76.5t-31.5 -72.5z" />
<glyph unicode="&#xb9;" horiz-adv-x="1955" d="M1927 911q27 12 27 29q0 14 -25 14q-14 0 -28 -6q-111 -41 -175.5 -65.5t-99.5 -24.5q-33 0 -47 23q-18 27 -49 51t-68 40.5t-75.5 27t-71.5 10.5q-39 0 -65.5 -6.5t-51 -14.5t-51.5 -14t-66 -6h-14q-45 0 -72.5 21.5t-44 58t-22.5 85t-6 103.5q0 78 9 120t40 73l14 -3.5 t16 -1.5q31 0 65 10.5t63.5 29t48 44t18.5 56.5q0 4 -1 8t-1 8q-16 59 -56 76.5t-94 17.5q-31 0 -63.5 -2t-67.5 -2q-61 0 -118.5 17.5t-100.5 83.5q-25 37 -44 78.5t-52 62.5q-31 37 -66 37q-25 0 -45 -14.5t-30.5 -27t-12.5 -14.5q-20 -20 -20 -51q0 -23 8 -46t19.5 -45.5 t19.5 -41t8 -29.5q0 -2 -1 -3t-1 -3q-49 -18 -79.5 -43.5t-47 -56.5t-21.5 -64.5t-5 -68.5q0 -33 2 -66t2 -61q0 -29 -4.5 -55.5t-18.5 -49.5q-29 -47 -75 -90t-89 -88t-74.5 -91t-31.5 -99q0 -10 1 -18.5t3 -18.5q0 -23 17.5 -61.5t53 -77.5t89 -68t127.5 -29 q78 0 118.5 20.5t59 53.5t20.5 75t3 87t6.5 89t31 79t77.5 57.5t146 26.5q14 -31 35 -55.5t38.5 -47t29.5 -49t12 -61.5q-29 -53 -76 -103.5t-102 -98.5t-112.5 -96t-103.5 -96.5t-76 -98.5t-30 -103v-19q45 -84 134 -84q55 0 110 37q0 35 -4 61.5t-4 51.5q0 39 23 84l43 72 q23 -57 31.5 -106.5t8.5 -92.5q0 -72 -12 -130.5t-12 -117.5h153q4 25 6.5 48.5t2.5 45.5q0 66 -9.5 126.5t-9.5 109.5q0 31 7.5 55.5t24.5 43t48 27.5t78 9h70q16 0 14 -4t6 -23q-14 -37 -14 -84q0 -55 17.5 -110t38 -110.5t37.5 -109t17 -102.5h6q70 0 96.5 19.5 t28.5 54.5q0 33 -18 76t-39.5 90t-40 95t-18.5 93q0 27 8 51.5t29 45.5q10 -10 25 -50.5t33.5 -93.5t41 -113.5t47.5 -110.5t50.5 -83t51.5 -33q39 0 60.5 7.5t34 16.5t20.5 16t25 7v6q0 14 4 25.5t4 26.5q0 20 -19 41q-51 2 -91 16t-68.5 48t-49 90.5t-32.5 142.5 q80 29 121 79t61 104t29.5 106.5t23.5 84.5zM621 1319q29 53 58.5 92t57.5 39q4 0 17 -4q31 -16 30 -70q0 -25 -8 -54.5t-24 -57.5q-27 -49 -62 -77t-65 -28q-14 0 -27 6q-23 10 -23 39q0 23 13 50.5t33 64.5zM455 1419q27 53 62.5 87t64.5 34q4 0 16 -4q20 -12 20 -39 q0 -23 -12 -55.5t-33 -73.5q-29 -55 -56.5 -96t-53.5 -41q-8 0 -12 2q-29 16 -29 65q0 51 33 121zM287 774q16 35 36.5 58.5t36.5 23.5q6 0 11 -2q20 -14 20 -45q0 -29 -20 -70q-16 -31 -39 -49t-43 -18q-8 0 -17 4q-14 8 -14 24q0 27 29 74zM193 840q16 35 38.5 55t40.5 20 q8 0 13 -2q12 -6 12 -24q0 -16 -8 -35.5t-21 -46.5q-18 -35 -35.5 -61.5t-33.5 -26.5q-6 0 -9 2q-18 8 -18 43q1 35 21 76zM641 1290q0 -18 10.5 -30.5t26.5 -12.5t26.5 12.5t10.5 30.5t-10.5 31.5t-26.5 13.5t-26.5 -13.5t-10.5 -31.5zM475 1389q0 -16 10.5 -28.5 t26.5 -12.5t27.5 12t11.5 29q0 16 -11.5 28.5t-27.5 12.5t-26.5 -12.5t-10.5 -28.5z" />
<glyph unicode="&#xba;" horiz-adv-x="2111" d="M1681 35q2 4 2 14q0 12 -8 12q-25 0 -50.5 -1t-51.5 -1q-33 0 -65.5 4.5t-63.5 16.5l143 1386h144l10 82h-420l-10 -82h180l-137 -1321q-80 74 -147.5 172.5t-127 207t-112 219t-99.5 208.5q-74 152 -150.5 300.5t-154.5 295.5h-268l-10 -82h151l-143 -1384h-152l-8 -82 h397l9 82h-154l125 1204l31 -96q37 -117 83 -228.5t95 -222.5q57 -125 125.5 -260t161 -246.5t214 -183.5t285.5 -72h27q20 0 45 1.5t48.5 7.5t38.5 17.5t17 31.5zM2128 1030q4 39 -1 76t-23.5 64.5t-48.5 44t-75 16.5q-55 0 -99 -27.5t-74.5 -70.5t-49 -94.5t-24.5 -98.5 q-8 -80 26.5 -138.5t122.5 -58.5q57 0 100 27t74 69t48.5 92t23.5 99zM2042 975q-2 -25 -9.5 -55.5t-21.5 -58t-35.5 -46t-54.5 -18.5q-37 0 -58.5 21.5t-31.5 52t-12 66.5t2 64q2 27 9 58t22.5 56.5t38 43t57.5 17.5t55 -21.5t29.5 -52.5t10.5 -65.5t-1 -61.5zM2058 352 l17 140h-387l-17 -140h387z" />
<glyph unicode="&#xbb;" horiz-adv-x="1525" d="M1569 625q0 8 -22.5 52t-58.5 105.5t-78 131t-82 131t-69.5 104.5t-37.5 51q-16 2 -31 2h-29h-104q-4 0 -20.5 -1t-18.5 -11q0 -10 3 -14.5l7 -10.5q102 -141 201.5 -285.5t183.5 -297.5q-14 -14 -58 -57.5t-101.5 -99.5t-120 -119.5t-114.5 -118t-87 -92.5t-35 -44 t7 -18.5t17.5 -22.5t22.5 -19t19 -9q47 41 88 90t84 96q92 100 186 197.5t192 189.5q12 10 33 32t23 38zM1055 625q2 14 -6.5 27.5t-14.5 23.5q-2 2 -23.5 40t-54 92t-70.5 118.5t-75 122t-65.5 99.5t-40.5 52q-10 2 -21 2h-20h-121q-4 0 -20.5 -1t-18.5 -11 q0 -10 30.5 -56.5t70.5 -102.5t77 -106.5t49 -66.5q47 -66 88 -135.5t80 -140.5q-16 -16 -60 -59.5t-101.5 -99.5t-120 -118.5t-114.5 -117t-86 -92.5t-34 -44t7 -18.5t17.5 -23.5t22.5 -19t19 -8q4 0 15 12t25.5 27.5t25.5 31t15 19.5l189 202q72 78 144.5 150t148.5 143 q12 10 26.5 26t16.5 32z" />
<glyph unicode="&#xbf;" horiz-adv-x="831" d="M926 -344q2 27 1 57.5t-11.5 56t-31 42t-55.5 16.5q-16 0 -38.5 -5t-44 -14.5t-36 -24.5t-16.5 -36q-2 -18 8.5 -34.5t22.5 -36t22.5 -44t6.5 -61.5q-6 -45 -29 -82t-56.5 -62.5t-74.5 -40t-84 -14.5q-70 0 -118 27t-75.5 71t-37 101t-3.5 121q8 82 41 159.5t77 151.5 t94.5 146.5t94.5 144.5t75.5 144.5t39.5 146.5q6 59 -20.5 104t-91.5 45q-59 0 -84 -38t-29 -89l-27 -237q-10 -106 -68.5 -198.5t-126 -183.5t-124.5 -187.5t-70 -209.5q-8 -82 15.5 -144t72 -103t115 -62.5t141.5 -21.5q86 0 175.5 25.5t163 75.5t125 124t61.5 170z M713 1047q2 27 2 57q0 31 -8.5 58.5t-26.5 46t-53 18.5q-31 0 -52.5 -18.5t-35 -45t-20.5 -56.5t-9 -54q-2 -23 -1 -54.5t9 -60.5t25.5 -48.5t48.5 -19.5q33 0 55.5 18.5t35.5 45.5t20.5 57.5t9.5 55.5z" />
<glyph unicode="&#xc0;" horiz-adv-x="1441" d="M1432 0l8 82q-53 0 -85 17.5t-51.5 47t-29.5 67.5t-21 81q-78 317 -154.5 629.5t-170.5 623.5h-301l-11 -82h183l-580 -1218q-18 -37 -35.5 -66.5t-40 -52.5t-53.5 -35t-74 -12l-8 -82h379l8 82h-139l244 551h461q31 -139 63.5 -276.5t71.5 -274.5h-121l-8 -82h465z M936 739h-381l270 592zM1008 2077q2 20 1 41.5t-9.5 40t-22.5 30t-39 11.5q-45 0 -66.5 -35t-25.5 -74q-4 -45 -2 -88t-2 -88q-6 -51 -23.5 -86t-36 -58.5t-34 -38t-15.5 -20.5q-2 -10 4 -22.5t19 -12.5q39 14 82 63.5t79.5 111t61.5 124t29 101.5z" />
<glyph unicode="&#xc1;" horiz-adv-x="1441" d="M1432 0l8 82q-53 0 -85 17.5t-51.5 47t-29.5 67.5t-21 81q-78 317 -154.5 629.5t-170.5 623.5h-301l-11 -82h183l-580 -1218q-18 -37 -35.5 -66.5t-40 -52.5t-53.5 -35t-74 -12l-8 -82h379l8 82h-139l244 551h461q31 -139 63.5 -276.5t71.5 -274.5h-121l-8 -82h465z M936 739h-381l270 592zM1036 2077q2 20 1 41.5t-9 40t-22.5 30t-38.5 11.5q-45 0 -66.5 -35t-26.5 -74q-4 -45 -3 -89t-3 -89q-6 -51 -22.5 -87t-34.5 -58.5t-33.5 -36t-15.5 -19.5q-2 -10 3 -22.5t17 -12.5q4 0 12.5 4.5t10.5 6.5q37 25 77 72.5t72.5 104t55 113t26.5 99.5 z" />
<glyph unicode="&#xc2;" horiz-adv-x="1441" d="M1432 0l8 82q-53 0 -85 17.5t-51.5 47t-29.5 67.5t-21 81q-78 317 -154.5 629.5t-170.5 623.5h-301l-11 -82h183l-580 -1218q-18 -37 -35.5 -66.5t-40 -52.5t-53.5 -35t-74 -12l-8 -82h379l8 82h-139l244 551h461q31 -139 63.5 -276.5t71.5 -274.5h-121l-8 -82h465z M936 739h-381l270 592zM1145 1749q0 8 -11.5 41t-29 78t-37.5 95t-38.5 93t-32 74t-15.5 35q-4 6 -9 20.5t-14 14.5h-26t-27 -2q-10 -10 -39.5 -47t-67.5 -86.5t-79 -104.5t-76 -103.5t-58.5 -83t-23.5 -40.5q-2 -12 19 -13h12q18 0 26.5 1t14.5 6.5t11 13.5t15 22l211 275 h33l92 -266q6 -14 9.5 -24.5t8.5 -17t14 -9.5t26 -3h22q23 0 44.5 4t25.5 27z" />
<glyph unicode="&#xc3;" horiz-adv-x="1441" d="M1432 0l8 82q-53 0 -85 17.5t-51.5 47t-29.5 67.5t-21 81q-78 317 -154.5 629.5t-170.5 623.5h-301l-11 -82h183l-580 -1218q-18 -37 -35.5 -66.5t-40 -52.5t-53.5 -35t-74 -12l-8 -82h379l8 82h-139l244 551h461q31 -139 63.5 -276.5t71.5 -274.5h-121l-8 -82h465z M936 739h-381l270 592zM1268 1989l-41 39q-35 -23 -61.5 -43.5t-71.5 -20.5q-41 0 -77 12.5t-72 26.5t-72.5 26.5t-75.5 12.5q-35 0 -68 -18.5t-62.5 -46t-55 -58.5t-46.5 -55h-2l43 -33q31 33 58.5 50t72.5 17q35 0 66 -10t61.5 -23.5t61 -23.5t65.5 -10q43 0 81 13.5 t72 36t64.5 50t59.5 58.5z" />
<glyph unicode="&#xc4;" horiz-adv-x="1441" d="M1432 0l8 82q-53 0 -85 17.5t-51.5 47t-29.5 67.5t-21 81q-78 317 -154.5 629.5t-170.5 623.5h-301l-11 -82h183l-580 -1218q-18 -37 -35.5 -66.5t-40 -52.5t-53.5 -35t-74 -12l-8 -82h379l8 82h-139l244 551h461q31 -139 63.5 -276.5t71.5 -274.5h-121l-8 -82h465z M936 739h-381l270 592zM1171 1987q2 16 1 38.5t-7 43t-19 35t-36 14.5q-25 0 -42 -13.5t-28.5 -34t-17.5 -43t-8 -40.5t-1 -40t8 -41.5t20.5 -31.5t37.5 -12q25 0 41.5 12t27.5 30.5t16 40.5t7 42zM784 1987q2 18 1 40.5t-8 42t-20.5 34t-35.5 14.5q-23 0 -40 -13.5 t-28.5 -34t-17.5 -43t-8 -40.5t-1 -41t8 -41.5t21.5 -30.5t38.5 -12q25 0 40.5 12t26.5 31.5t16 41.5t7 40z" />
<glyph unicode="&#xc5;" horiz-adv-x="1441" d="M1432 0l8 82q-53 0 -85 17.5t-51.5 47t-29.5 67.5t-21 81q-78 317 -154.5 629.5t-170.5 623.5h-301l-11 -82h183l-580 -1218q-18 -37 -35.5 -66.5t-40 -52.5t-53.5 -35t-74 -12l-8 -82h379l8 82h-139l244 551h461q31 -139 63.5 -276.5t71.5 -274.5h-121l-8 -82h465z M1116 1956q6 49 -7 92t-41 76t-69 52t-90 19t-93 -19t-79 -52t-56.5 -76t-27.5 -92q-4 -47 8.5 -91t40 -78t67.5 -54.5t89 -20.5t94 20.5t80 54.5t57.5 78t26.5 91zM936 739h-381l270 592zM1047 1956q-4 -35 -20.5 -62.5t-41 -48t-55.5 -32t-64 -11.5q-66 0 -107.5 44 t-35.5 110q8 66 59.5 109.5t116.5 43.5q33 0 61.5 -11t49 -31.5t31 -49t6.5 -61.5z" />
<glyph unicode="&#xc6;" horiz-adv-x="2011" d="M1898 289q0 6 2.5 19.5t1.5 27.5t-5.5 25.5t-12.5 11.5q-43 0 -65.5 -9.5t-36 -27t-22.5 -44t-23 -59.5q-18 -41 -38 -66.5t-44.5 -39.5t-56 -18.5t-72.5 -4.5q-33 0 -63.5 -1t-63.5 -1h-19q-25 0 -49 2t-43.5 11.5t-31 27t-11.5 50.5q4 141 7 279t3 280h410 q33 0 49.5 11t20.5 46l6 65h-486q-12 141 -14 280.5t-14 281.5q78 0 156.5 4t156.5 4h68t67 -2q35 -2 57.5 -6t37 -15.5t20.5 -32t10 -55.5q2 -33 2 -59q0 -27 7.5 -45.5t25.5 -27.5t59 -9q27 0 27 20l27 244q4 29 6 57.5t-2 32.5h-2q0 2 -2 2h-1102l-10 -82h206 q-158 -211 -308 -424t-302 -430q-59 -86 -120.5 -171t-121.5 -173q-20 -31 -42.5 -63.5t-50 -60t-59.5 -45t-71 -17.5l-10 -82h360l9 82h-127l362 551h481q-4 -139 -2 -276.5t7 -274.5h-195l-8 -82h958q12 0 28.5 39t31 90t24.5 97.5t12 62.5zM1040 739h-399 q92 141 186.5 278.5t192.5 274.5l39 39q-8 -139 -14.5 -296t-4.5 -296z" />
<glyph unicode="&#xc7;" horiz-adv-x="1308" d="M1266 270q4 20 -12.5 33.5t-34.5 15.5q-47 -43 -92.5 -81.5t-93.5 -67.5t-102 -46.5t-118 -17.5q-145 0 -229 67t-124 169t-45 226t7 241q10 106 37.5 225t83 219.5t145.5 166t227 65.5q68 0 118 -9.5t85 -33t54.5 -66.5t25.5 -110q2 -16 3 -35t7 -35t17.5 -26.5 t34.5 -10.5q6 0 14 -1t18 -1q12 0 21.5 4t11.5 19l29 288q4 23 2 35.5t-21 26.5q-20 14 -66 25.5t-98.5 20.5t-101.5 14t-76 5q-184 0 -325.5 -84t-240.5 -216t-156.5 -295.5t-73.5 -323.5q-12 -123 -3 -249t62 -232q59 -117 156.5 -164t228.5 -60h8q-12 -31 -30.5 -72.5 t-36 -85.5t-31.5 -86t-16 -71q-6 -49 18.5 -68.5t54 -32t54 -27.5t20.5 -56q-4 -35 -19.5 -67t-31.5 -60h-8l45 -11q31 55 48 100.5t23 108.5q6 51 -3 96.5t-21.5 85t-22.5 77.5t-6 75q4 23 9 46.5t10 45.5q135 0 248.5 42t217.5 141q8 8 24.5 23t32 32.5t27 34t11.5 28.5z " />
<glyph unicode="&#xc8;" d="M1153 346q2 16 1 21.5t-17 5.5q-51 0 -77 -19.5t-41 -50.5t-26.5 -64.5t-34 -64.5t-63.5 -50.5t-117 -19.5q-102 0 -177 3.5t-91 23.5q-6 6 -7 38t0 77t5 97t8 99t7 84t5 52l19 174h371q33 0 50 11t21 46l6 65h-436q10 141 19.5 279.5t21.5 280.5l318 10q70 0 98 -19.5 t37 -91.5v-41q0 -23 4 -44t16 -36.5t37 -15.5q12 0 19.5 -1t15.5 -1q14 0 21.5 8t11.5 39l30 264l2 8v23q0 12 -10 12h-864l-10 -82h137q-49 -238 -85 -475t-61 -477q-12 -109 -18 -216.5t-10 -215.5h-107l-8 -82h881q16 0 32.5 49t28.5 110.5t22.5 117t14.5 69.5zM909 1712 q0 6 -11 19.5t-24.5 37t-23.5 59.5t-4 85q4 37 13 74.5t13 74.5q2 20 3.5 45t-3 45.5t-18.5 34t-43 13.5q-25 0 -42 -11.5t-29.5 -30t-19.5 -40t-9 -41.5q-8 -78 18.5 -159t67.5 -144l15 -22.5t23.5 -33t24.5 -29t21 -12.5q14 0 20 12.5t8 22.5z" />
<glyph unicode="&#xc9;" d="M1153 346q2 16 1 21.5t-17 5.5q-51 0 -77 -19.5t-41 -50.5t-26.5 -64.5t-34 -64.5t-63.5 -50.5t-117 -19.5q-102 0 -177 3.5t-91 23.5q-6 6 -7 38t0 77t5 97t8 99t7 84t5 52l19 174h371q33 0 50 11t21 46l6 65h-436q10 141 19.5 279.5t21.5 280.5l318 10q70 0 98 -19.5 t37 -91.5v-41q0 -23 4 -44t16 -36.5t37 -15.5q12 0 19.5 -1t15.5 -1q14 0 21.5 8t11.5 39l30 264l2 8v23q0 12 -10 12h-864l-10 -82h137q-49 -238 -85 -475t-61 -477q-12 -109 -18 -216.5t-10 -215.5h-107l-8 -82h881q16 0 32.5 49t28.5 110.5t22.5 117t14.5 69.5z M1012 2077q2 20 0 41.5t-9.5 40t-22.5 30t-40 11.5q-45 0 -65.5 -36t-24.5 -73q-4 -45 -3 -89t-3 -89q-6 -51 -23.5 -86t-36 -58.5t-34 -37t-15.5 -19.5q-2 -10 4 -22.5t19 -12.5l18 11h2q39 27 79 73.5t73 102t55.5 111t26.5 102.5z" />
<glyph unicode="&#xca;" d="M1153 346q2 16 1 21.5t-17 5.5q-51 0 -77 -19.5t-41 -50.5t-26.5 -64.5t-34 -64.5t-63.5 -50.5t-117 -19.5q-102 0 -177 3.5t-91 23.5q-6 6 -7 38t0 77t5 97t8 99t7 84t5 52l19 174h371q33 0 50 11t21 46l6 65h-436q10 141 19.5 279.5t21.5 280.5l318 10q70 0 98 -19.5 t37 -91.5v-41q0 -23 4 -44t16 -36.5t37 -15.5q12 0 19.5 -1t15.5 -1q14 0 21.5 8t11.5 39l30 264l2 8v23q0 12 -10 12h-864l-10 -82h137q-49 -238 -85 -475t-61 -477q-12 -109 -18 -216.5t-10 -215.5h-107l-8 -82h881q16 0 32.5 49t28.5 110.5t22.5 117t14.5 69.5z M1096 1749q0 10 -10.5 41t-27 73t-35.5 89t-37.5 89t-32 72.5t-17.5 40.5t-10 28t-17 18h-26t-27 -2q-10 -10 -40 -47t-67.5 -86.5t-78.5 -104.5t-76 -103.5t-58.5 -83t-23.5 -40.5q-2 -12 18 -13h15q16 0 25.5 1t15.5 6.5t11 13.5t15 22l209 275h35l90 -266 q10 -31 17.5 -42.5t42.5 -11.5h24q20 0 41 4t25 27z" />
<glyph unicode="&#xcb;" d="M1153 346q2 16 1 21.5t-17 5.5q-51 0 -77 -19.5t-41 -50.5t-26.5 -64.5t-34 -64.5t-63.5 -50.5t-117 -19.5q-102 0 -177 3.5t-91 23.5q-6 6 -7 38t0 77t5 97t8 99t7 84t5 52l19 174h371q33 0 50 11t21 46l6 65h-436q10 141 19.5 279.5t21.5 280.5l318 10q70 0 98 -19.5 t37 -91.5v-41q0 -23 4 -44t16 -36.5t37 -15.5q12 0 19.5 -1t15.5 -1q14 0 21.5 8t11.5 39l30 264l2 8v23q0 12 -10 12h-864l-10 -82h137q-49 -238 -85 -475t-61 -477q-12 -109 -18 -216.5t-10 -215.5h-107l-8 -82h881q16 0 32.5 49t28.5 110.5t22.5 117t14.5 69.5zM723 1987 q2 18 1 40.5t-8 42t-20.5 34t-36.5 14.5q-25 0 -42 -13.5t-28 -34t-17.5 -43t-8.5 -40.5t-1 -40t8.5 -41.5t20.5 -31.5t38 -12t42 12t27.5 30.5t16.5 40.5t8 42zM1110 1987q2 18 0 40.5t-8 43t-20.5 34t-37.5 13.5t-40 -14.5t-27 -34t-16.5 -42t-8.5 -40.5t-2 -41 q0 -20 6.5 -40t20.5 -32t39 -12t42 12t27.5 30.5t16.5 40.5t8 42z" />
<glyph unicode="&#xcc;" horiz-adv-x="768" d="M594 0l8 82h-135q20 147 38.5 293.5t35.5 294.5q20 199 34.5 397.5t24.5 398.5h131l10 82h-405l-10 -82h133q0 -25 -6 -49q-84 -416 -129 -831q-12 -127 -21.5 -252t-13.5 -252h-107l-8 -82h420zM627 1712q0 6 -12.5 19.5t-27 36t-24.5 57.5t-4 84q4 47 15.5 91t15.5 91 q4 37 -8.5 73t-57.5 36q-25 0 -42 -11.5t-29.5 -30t-19.5 -40t-9 -41.5q-8 -78 19.5 -159t66.5 -144q4 -8 15.5 -23.5t23.5 -32t24.5 -29t22.5 -12.5q12 0 20.5 12.5t10.5 22.5z" />
<glyph unicode="&#xcd;" horiz-adv-x="768" d="M594 0l8 82h-135q20 147 38.5 293.5t35.5 294.5q20 199 34.5 397.5t24.5 398.5h131l10 82h-405l-10 -82h133q0 -25 -6 -49q-84 -416 -129 -831q-12 -127 -21.5 -252t-13.5 -252h-107l-8 -82h420zM680 2077q2 20 1 41.5t-9 40t-22.5 30t-39.5 11.5q-47 0 -67.5 -35 t-24.5 -74q-4 -45 -4 -90q0 -43 -4 -88q-6 -51 -22.5 -86t-35 -58.5t-32.5 -37t-14 -19.5q-2 -10 4 -22.5t18 -12.5l16 11h2q39 25 79 72.5t73 103t55.5 112t26.5 101.5z" />
<glyph unicode="&#xce;" horiz-adv-x="768" d="M631 0l8 82h-135q20 147 38.5 293.5t35.5 294.5q20 199 34.5 397.5t24.5 398.5h131l10 82h-405l-11 -82h134q0 -25 -7 -49q-84 -416 -129 -831q-12 -127 -21 -252t-13 -252h-107l-8 -82h420zM856 1749q0 10 -10 41t-26.5 73t-36 89t-38 89t-32 72.5t-17.5 40.5t-10 28 t-16 18h-27q-12 0 -27 -2q-10 -10 -39.5 -47t-67.5 -86.5t-79 -104.5t-76 -103.5t-58.5 -83t-23.5 -40.5q-2 -12 19 -13h14q16 0 25.5 1t15.5 6.5t11 13.5t16 22l209 275h34l91 -266q10 -31 17 -42.5t42 -11.5h25q20 0 40.5 4t24.5 27z" />
<glyph unicode="&#xcf;" horiz-adv-x="768" d="M602 0l8 82h-135q20 147 38.5 293.5t35.5 294.5q20 199 34.5 397.5t24.5 398.5h131l11 82h-406l-10 -82h133q0 -25 -6 -49q-84 -416 -129 -831q-12 -127 -21.5 -252t-13.5 -252h-107l-8 -82h420zM479 1987q2 18 0 40.5t-8 42t-20.5 34t-36.5 14.5q-25 0 -42.5 -13.5 t-28.5 -34t-17.5 -43t-8.5 -40.5t-1 -41t8.5 -41.5t21.5 -30.5t39 -12t42 12t27.5 30.5t16.5 40.5t8 42zM864 1987q2 18 1 40.5t-8 42t-20.5 34t-35.5 14.5q-23 0 -40.5 -13.5t-28.5 -34t-17 -43t-8 -40.5t-1 -40t7 -41.5t19 -31.5t38 -12t42 12t27.5 30.5t16.5 40.5t8 42z " />
<glyph unicode="&#xd0;" horiz-adv-x="1648" d="M1602 821q20 197 -24 341.5t-142.5 238.5t-247 139t-334.5 45q-131 0 -261 -16.5t-259 -38.5l2 -80q35 8 72.5 12t80.5 4q-29 -145 -53 -287.5t-47 -285.5h-156l-14 -139h150q-8 -59 -14.5 -120t-12.5 -120q-12 -109 -17.5 -216.5t-9.5 -215.5h-110l-8 -82q111 0 219 -5 t219 -5h59q190 0 349 59.5t277 168t191 262t91 341.5zM905 754l15 139h-336l22 207q10 94 17.5 187t11.5 188q195 0 345 -44.5t248.5 -138.5t140.5 -239.5t22 -347.5q-14 -137 -59.5 -249t-122 -191t-187.5 -122t-254 -43q-18 0 -53 1t-71 4.5t-66.5 11.5t-40.5 24 q-16 23 -14.5 63t3.5 66q12 121 23.5 241t21.5 243h334z" />
<glyph unicode="&#xd1;" horiz-adv-x="1724" d="M1681 35q2 4 2 14q0 12 -8 12q-25 0 -50.5 -1t-51.5 -1q-33 0 -65.5 4.5t-63.5 16.5l143 1386h144l10 82h-420l-10 -82h180l-137 -1321q-80 74 -147.5 172.5t-127 207t-112 219t-99.5 208.5q-74 152 -150.5 300.5t-154.5 295.5h-268l-10 -82h151l-143 -1384h-152l-8 -82 h397l9 82h-154l125 1204l31 -96q37 -117 83 -228.5t95 -222.5q57 -125 125.5 -260t161 -246.5t214 -183.5t285.5 -72h27q20 0 45 1.5t48.5 7.5t38.5 17.5t17 31.5zM1450 1991l-41 39q-33 -33 -61.5 -48.5t-75.5 -15.5q-43 0 -80 12.5t-72 27.5t-69.5 27.5t-71.5 12.5 q-35 0 -67.5 -19.5t-62.5 -47t-55.5 -58.5t-45.5 -55l38 -33q31 33 59.5 51.5t74.5 18.5q33 0 63.5 -11.5t61 -24t62.5 -23.5t67 -11q43 0 80.5 13.5t71.5 36t64.5 50t59.5 58.5z" />
<glyph unicode="&#xd2;" horiz-adv-x="1740" d="M1677 864q14 150 -14.5 283t-101 233.5t-188.5 158.5t-275 58q-186 0 -340 -76.5t-265.5 -202.5t-180 -289t-87.5 -335q-16 -147 10.5 -279t95 -232.5t181.5 -160t272 -59.5q197 0 353.5 71.5t270.5 194.5t182.5 287t86.5 348zM1438 745q-12 -117 -46 -234.5 t-98.5 -212.5t-163 -154.5t-239.5 -59.5q-143 0 -231.5 65.5t-133.5 169t-55 228.5t2 244q12 111 46 233.5t98.5 225t162 170t234.5 67.5q147 0 236 -72t135.5 -180.5t55.5 -239.5t-3 -250zM1149 1712q0 14 -10 21h-2q-35 39 -48.5 78.5t-7.5 97.5q4 47 15.5 92t15.5 92 q4 39 -8 73t-57 34q-25 0 -42.5 -11.5t-29.5 -30t-19.5 -40t-9.5 -41.5q-4 -31 10.5 -96.5t39 -133t56 -119t66.5 -51.5q12 0 20.5 12.5t10.5 22.5z" />
<glyph unicode="&#xd3;" horiz-adv-x="1740" d="M1677 864q14 150 -14.5 283t-101 233.5t-188.5 158.5t-275 58q-186 0 -340 -76.5t-265.5 -202.5t-180 -289t-87.5 -335q-16 -147 10.5 -279t95 -232.5t181.5 -160t272 -59.5q197 0 353.5 71.5t270.5 194.5t182.5 287t86.5 348zM1438 745q-12 -117 -46 -234.5 t-98.5 -212.5t-163 -154.5t-239.5 -59.5q-143 0 -231.5 65.5t-133.5 169t-55 228.5t2 244q12 111 46 233.5t98.5 225t162 170t234.5 67.5q147 0 236 -72t135.5 -180.5t55.5 -239.5t-3 -250zM1268 2077q2 20 0 41.5t-9.5 40t-22.5 30t-40 11.5q-45 0 -65.5 -36t-24.5 -73 q-4 -45 -3 -89t-3 -89q-6 -51 -23.5 -86t-36 -58.5t-34 -37t-15.5 -19.5q-2 -10 4 -22.5t19 -12.5l18 11h2q39 27 79 73.5t73 102t55.5 111t26.5 102.5z" />
<glyph unicode="&#xd4;" horiz-adv-x="1740" d="M1677 864q14 150 -14.5 283t-101 233.5t-188.5 158.5t-275 58q-186 0 -340 -76.5t-265.5 -202.5t-180 -289t-87.5 -335q-16 -147 10.5 -279t95 -232.5t181.5 -160t272 -59.5q197 0 353.5 71.5t270.5 194.5t182.5 287t86.5 348zM1438 745q-12 -117 -46 -234.5 t-98.5 -212.5t-163 -154.5t-239.5 -59.5q-143 0 -231.5 65.5t-133.5 169t-55 228.5t2 244q12 111 46 233.5t98.5 225t162 170t234.5 67.5q147 0 236 -72t135.5 -180.5t55.5 -239.5t-3 -250zM1389 1749q0 8 -11.5 41t-30 78t-39 96t-39 94t-31.5 73t-13 34q-4 6 -9.5 20.5 t-13.5 14.5h-26t-27 -2q-10 -10 -40 -47t-67.5 -86.5t-78.5 -104.5t-76 -103.5t-58.5 -83t-23.5 -40.5q-2 -12 18 -13h13q16 0 25 1t15.5 6.5t11.5 13.5t15 22l211 275h33l92 -266q6 -16 9 -26.5t8.5 -17t14.5 -8.5t25 -2h23q23 0 44.5 4t25.5 27z" />
<glyph unicode="&#xd5;" horiz-adv-x="1740" d="M1677 864q14 150 -14.5 283t-101 233.5t-188.5 158.5t-275 58q-186 0 -340 -76.5t-265.5 -202.5t-180 -289t-87.5 -335q-16 -147 10.5 -279t95 -232.5t181.5 -160t272 -59.5q197 0 353.5 71.5t270.5 194.5t182.5 287t86.5 348zM1438 745q-12 -117 -46 -234.5 t-98.5 -212.5t-163 -154.5t-239.5 -59.5q-143 0 -231.5 65.5t-133.5 169t-55 228.5t2 244q12 111 46 233.5t98.5 225t162 170t234.5 67.5q147 0 236 -72t135.5 -180.5t55.5 -239.5t-3 -250zM1458 1987l-39 38q-29 -29 -62.5 -47t-72.5 -18q-41 0 -77 12.5t-70.5 27.5 t-71.5 27.5t-76 12.5q-33 0 -66.5 -18.5t-64.5 -45t-57.5 -58.5t-42.5 -56l39 -33q29 31 57.5 50t71.5 19q33 0 64.5 -11t62 -24.5t63.5 -24.5t68 -11q41 0 78.5 14t71.5 37t64.5 51.5t59.5 57.5z" />
<glyph unicode="&#xd6;" horiz-adv-x="1740" d="M1677 864q14 150 -14.5 283t-101 233.5t-188.5 158.5t-275 58q-186 0 -340 -76.5t-265.5 -202.5t-180 -289t-87.5 -335q-16 -147 10.5 -279t95 -232.5t181.5 -160t272 -59.5q197 0 353.5 71.5t270.5 194.5t182.5 287t86.5 348zM1438 745q-12 -117 -46 -234.5 t-98.5 -212.5t-163 -154.5t-239.5 -59.5q-143 0 -231.5 65.5t-133.5 169t-55 228.5t2 244q12 111 46 233.5t98.5 225t162 170t234.5 67.5q147 0 236 -72t135.5 -180.5t55.5 -239.5t-3 -250zM965 1987q2 18 0 40.5t-8.5 43t-20.5 34t-37 13.5t-40 -14.5t-28.5 -34t-17.5 -42 t-8 -40.5t-1 -41t8 -41.5t21.5 -30.5t38.5 -12q25 0 41.5 12t27.5 30.5t16.5 41.5t7.5 41zM1352 1987q2 16 0 38.5t-8.5 43t-19.5 35t-36 14.5t-40 -13.5t-29.5 -34t-18.5 -43t-8 -40.5t-1 -41t8 -41.5t21.5 -30.5t39.5 -12t41 12t27 30.5t16.5 40.5t7.5 42z" />
<glyph unicode="&#xd7;" horiz-adv-x="1079" d="M918 119l122 112l-327 369l405 367l-98 106l-402 -366l-333 372l-125 -112l332 -373l-408 -369l94 -108l410 370z" />
<glyph unicode="&#xd8;" horiz-adv-x="1740" d="M1677 862q16 174 -20.5 321.5t-157.5 264.5h-2l193 266l-86 60l-185 -256h-12q-41 23 -76 38t-69.5 24t-73.5 13t-88 4q-186 0 -340 -76.5t-266.5 -202.5t-181 -289t-87.5 -335q-18 -170 19 -322.5t159 -265.5h3l-185 -251l88 -60l176 246h13q39 -20 74.5 -35.5t71.5 -25 t76 -13.5t87 -4q190 0 343 75t264.5 199.5t178 286.5t84.5 338zM1309 1362l-760 -1057h-17q-57 104 -64 234.5t5 251.5q12 113 47 236.5t101.5 225t165 168t237.5 66.5q92 0 161 -29.5t124 -95.5zM1432 739q-12 -117 -46 -233.5t-97.5 -209.5t-161 -152.5t-236.5 -59.5 q-88 0 -158.5 29.5t-132.5 85.5h-2l760 1054h16q29 -66 44.5 -127t20.5 -122.5t3 -126t-10 -138.5z" />
<glyph unicode="&#xd9;" horiz-adv-x="1671" d="M1642 33l-4 67q-25 -10 -50 -13t-50 -3q-35 0 -49 14.5t-27 42.5q-10 27 -8 125.5t12.5 234.5t25.5 294.5t28.5 307t24.5 267.5t11 178h-276l-10 -82h141q-18 -133 -41.5 -265t-46.5 -265q-16 -98 -29.5 -197.5t-31.5 -197.5q-14 -80 -61.5 -153t-113 -129t-145.5 -89 t-160 -33q-117 0 -176 54.5t-80.5 137.5t-17.5 181t14 186l31 301q16 139 27.5 275.5t15.5 275.5h-260l-10 -82h127q-33 -197 -74 -389t-62 -391l-8 -76q-12 -111 -15 -223.5t25.5 -203.5t102.5 -148.5t217 -57.5q72 0 152.5 23t157.5 62.5t144.5 93t112.5 112.5h41 q-4 -39 -6 -89t6 -96t34 -78t79 -32q70 0 143 17.5t139 42.5zM1063 1712q0 6 -12.5 18.5t-25.5 36t-23.5 58.5t-4.5 84q4 47 15.5 91t15.5 91q4 39 -8 74t-59 35q-25 0 -42.5 -11.5t-28.5 -30t-18.5 -40t-9.5 -41.5q-8 -78 19.5 -159t66.5 -144q4 -8 15.5 -23.5t23.5 -32 t24.5 -29t22.5 -12.5q12 0 19.5 12.5t9.5 22.5z" />
<glyph unicode="&#xda;" horiz-adv-x="1671" d="M1642 33l-4 67q-25 -10 -50 -13t-50 -3q-35 0 -49 14.5t-27 42.5q-10 27 -8 125.5t12.5 234.5t25.5 294.5t28.5 307t24.5 267.5t11 178h-276l-10 -82h141q-18 -133 -41.5 -265t-46.5 -265q-16 -98 -29.5 -197.5t-31.5 -197.5q-14 -80 -61.5 -153t-113 -129t-145.5 -89 t-160 -33q-117 0 -176 54.5t-80.5 137.5t-17.5 181t14 186l31 301q16 139 27.5 275.5t15.5 275.5h-260l-10 -82h127q-33 -197 -74 -389t-62 -391l-8 -76q-12 -111 -15 -223.5t25.5 -203.5t102.5 -148.5t217 -57.5q72 0 152.5 23t157.5 62.5t144.5 93t112.5 112.5h41 q-4 -39 -6 -89t6 -96t34 -78t79 -32q70 0 143 17.5t139 42.5zM1192 2077q2 20 1 41.5t-9 40t-22.5 30t-39.5 11.5q-47 0 -67.5 -35t-24.5 -74q-4 -45 -4 -88t-4 -88q-6 -51 -22.5 -87t-35 -59.5t-32.5 -37t-14 -19.5q-2 -10 4 -22.5t18 -12.5l16 11h2q39 25 79 72.5t73 103 t55.5 112t26.5 101.5z" />
<glyph unicode="&#xdb;" horiz-adv-x="1671" d="M1642 33l-4 67q-25 -10 -50 -13t-50 -3q-35 0 -49 14.5t-27 42.5q-10 27 -8 125.5t12.5 234.5t25.5 294.5t28.5 307t24.5 267.5t11 178h-276l-10 -82h141q-18 -133 -41.5 -265t-46.5 -265q-16 -98 -29.5 -197.5t-31.5 -197.5q-14 -80 -61.5 -153t-113 -129t-145.5 -89 t-160 -33q-117 0 -176 54.5t-80.5 137.5t-17.5 181t14 186l31 301q16 139 27.5 275.5t15.5 275.5h-260l-10 -82h127q-33 -197 -74 -389t-62 -391l-8 -76q-12 -111 -15 -223.5t25.5 -203.5t102.5 -148.5t217 -57.5q72 0 152.5 23t157.5 62.5t144.5 93t112.5 112.5h41 q-4 -39 -6 -89t6 -96t34 -78t79 -32q70 0 143 17.5t139 42.5zM1278 1749q0 8 -11.5 41t-28.5 78t-37.5 95t-39 93t-32 74t-15.5 35q-4 6 -9 20.5t-13 14.5h-27q-12 0 -27 -2q-10 -10 -39.5 -47t-67.5 -86.5t-79 -104.5t-76 -103.5t-58.5 -83t-23.5 -40.5q-2 -12 19 -13h12 q18 0 26.5 1t14.5 6.5t11 13.5t16 22l211 275h32l92 -266q6 -14 9.5 -24.5t8.5 -17t14 -9.5t26 -3h22q23 0 44.5 4t25.5 27z" />
<glyph unicode="&#xdc;" horiz-adv-x="1671" d="M1642 33l-4 67q-25 -10 -50 -13t-50 -3q-35 0 -49 14.5t-27 42.5q-10 27 -8 125.5t12.5 234.5t25.5 294.5t28.5 307t24.5 267.5t11 178h-276l-10 -82h141q-18 -133 -41.5 -265t-46.5 -265q-16 -98 -29.5 -197.5t-31.5 -197.5q-14 -80 -61.5 -153t-113 -129t-145.5 -89 t-160 -33q-117 0 -176 54.5t-80.5 137.5t-17.5 181t14 186l31 301q16 139 27.5 275.5t15.5 275.5h-260l-10 -82h127q-33 -197 -74 -389t-62 -391l-8 -76q-12 -111 -15 -223.5t25.5 -203.5t102.5 -148.5t217 -57.5q72 0 152.5 23t157.5 62.5t144.5 93t112.5 112.5h41 q-4 -39 -6 -89t6 -96t34 -78t79 -32q70 0 143 17.5t139 42.5zM922 1987q2 18 0 40.5t-8.5 42t-20.5 34t-37 14.5t-40 -13.5t-28.5 -34t-17.5 -43t-8 -40.5t-1 -41t8 -41.5t21.5 -30.5t38.5 -12q25 0 41.5 12t27.5 30.5t16.5 41.5t7.5 41zM1307 1987q2 16 1 38.5t-7.5 43 t-19.5 35t-36 14.5q-25 0 -42 -13.5t-28.5 -34t-17.5 -43t-8 -40.5t-1 -41t8 -41.5t21.5 -30.5t39.5 -12t41 12t26 30.5t15.5 41.5t7.5 41z" />
<glyph unicode="&#xdd;" horiz-adv-x="1280" d="M1442 1466l10 82h-375l-10 -82h37q35 0 62.5 -10t23.5 -51q-2 -20 -28.5 -66.5t-65.5 -108t-87 -130t-92.5 -130t-81 -109.5t-55.5 -68l-26 -27q-76 199 -164 402.5t-201 379.5h-217l-10 -82h96q61 -215 142 -418.5t178 -402.5h2q-6 -59 -16.5 -118.5t-16.5 -118.5 q-8 -82 -14.5 -163t-12.5 -163h-141l-8 -82h493l8 82h-139q8 76 18.5 150.5t18.5 150.5q8 66 11 131.5t10 130.5h2l573 821h76zM1001 2161q2 23 0 48t-11 45.5t-26.5 34t-45.5 13.5q-53 0 -77 -39t-28 -84q-6 -51 -4 -101t-4 -102q-6 -66 -24.5 -110.5t-73.5 -87.5h-2 q-8 -4 -14.5 -11.5t-6.5 -17.5q-2 -12 5 -26.5t22 -14.5q4 0 11 5t9 7h2q45 35 90 87.5t83 112.5t63.5 123t31.5 118z" />
<glyph unicode="&#xde;" horiz-adv-x="1208" d="M1214 817q14 131 -21.5 214t-106 129t-169 62.5t-208.5 16.5q-31 0 -62 -1t-59 -1q4 57 6 113.5t6 115.5h131l10 82h-405l-10 -82h133q0 -25 -6 -49q-84 -416 -129 -831q-12 -127 -21.5 -252t-13.5 -252h-107l-8 -82h420l8 82h-135q4 39 10 78t10 78l17 69h14 q16 0 29.5 -1t30.5 -1q117 0 225 33t195 97.5t145.5 160.5t70.5 221zM1006 758q-16 -172 -123 -260t-275 -88q-23 0 -46 1t-46 1q4 53 9 105t10 106q16 147 25 264t18 227q16 0 41.5 5t42.5 5q184 0 274 -89t70 -277z" />
<glyph unicode="&#xdf;" horiz-adv-x="1218" d="M1180 403q8 78 -12.5 149t-56.5 132t-80 116.5t-81 104.5t-60.5 93t-19.5 85q6 57 52.5 117t101.5 129.5t104.5 152.5t59.5 187q6 68 -12.5 125t-56.5 100t-94 67t-124 24q-88 0 -161.5 -36t-135 -95.5t-110 -136.5t-85 -159.5t-61 -165.5t-37.5 -153q-16 -80 -25.5 -160 t-19.5 -159q-23 -217 -35 -434.5t-34 -434.5q-4 -35 10 -44t37 -9h39q27 0 44 6t33 29q4 6 16.5 81.5t28 188.5t33 246t31.5 253t25.5 210t13.5 116q4 33 7 71t7 81q10 96 29.5 203.5t60.5 199t110 150.5t175 59q104 0 159.5 -64.5t45.5 -168.5q-8 -74 -40 -138.5t-76 -123 t-94 -111.5t-94 -107.5t-76 -110.5t-38 -118q-8 -76 15.5 -140.5t61.5 -120.5t84 -108.5t85 -102.5t62.5 -102t17.5 -110q-4 -35 -18.5 -68.5t-38 -60t-55.5 -42t-71 -15.5q-61 0 -100 29.5t-63.5 65.5t-40 65.5t-31.5 29.5q-23 0 -41.5 -17t-31.5 -41t-21.5 -49.5 t-10.5 -41.5q-4 -43 18.5 -73t57.5 -47t77 -24.5t77 -7.5q88 0 169 35t142.5 94.5t101.5 138t50 166.5z" />
<glyph unicode="&#xe0;" d="M1229 27l-2 71q-23 -4 -46.5 -8t-45.5 -4q-43 0 -68 27q-16 18 -20.5 69t-2 110.5t6.5 115t6 81.5q18 170 38.5 338t39.5 338v9q4 29 -0.5 53t-40.5 24h-4l-125 -55q-39 16 -76 25.5t-82 9.5q-100 0 -183 -36t-152 -97.5t-121 -141t-90 -169t-60.5 -180.5t-30.5 -173 q-8 -68 -5 -149.5t26.5 -152.5t73.5 -118t138 -47q70 0 138.5 31t129 85t108.5 127t79 159l-12 -127q-4 -43 -6 -88t8 -83t38.5 -62.5t84.5 -24.5q66 0 129 16.5t129 26.5zM952 1016q-6 -49 -19 -134t-38 -184.5t-58.5 -202t-78.5 -185.5t-100.5 -135t-122.5 -52 q-68 0 -102 41t-46 99.5t-10 123t6 113.5q2 25 1 50t3 48q10 96 28.5 189.5t60.5 166t117 116.5t195 44h9q27 0 56.5 -2t52 -11t36.5 -28.5t10 -56.5zM918 1403q0 6 -13.5 19.5t-30 39t-26.5 65.5t-4 101q4 53 17 103.5t18 103.5q4 45 -11.5 83t-68.5 38q-29 0 -49.5 -13.5 t-34 -34t-20.5 -46t-9 -47.5q-10 -90 20.5 -180.5t75.5 -161.5q6 -8 18.5 -27t27 -37t29.5 -32.5t26 -14.5q12 0 22.5 15.5t12.5 25.5z" />
<glyph unicode="&#xe1;" d="M1229 27l-2 71q-23 -4 -46.5 -8t-45.5 -4q-43 0 -68 27q-16 18 -20.5 69t-2 110.5t6.5 115t6 81.5q18 170 38.5 338t39.5 338v9q4 29 -0.5 53t-40.5 24h-4l-125 -55q-39 16 -76 25.5t-82 9.5q-100 0 -183 -36t-152 -97.5t-121 -141t-90 -169t-60.5 -180.5t-30.5 -173 q-8 -68 -5 -149.5t26.5 -152.5t73.5 -118t138 -47q70 0 138.5 31t129 85t108.5 127t79 159l-12 -127q-4 -43 -6 -88t8 -83t38.5 -62.5t84.5 -24.5q66 0 129 16.5t129 26.5zM952 1016q-6 -49 -19 -134t-38 -184.5t-58.5 -202t-78.5 -185.5t-100.5 -135t-122.5 -52 q-68 0 -102 41t-46 99.5t-10 123t6 113.5q2 25 1 50t3 48q10 96 28.5 189.5t60.5 166t117 116.5t195 44h9q27 0 56.5 -2t52 -11t36.5 -28.5t10 -56.5zM961 1815q2 23 -0.5 48t-11.5 45.5t-26.5 34t-45.5 13.5q-53 0 -77 -39t-28 -84q-4 -51 -3 -101.5t-3 -101.5 q-8 -66 -26.5 -110.5t-71.5 -87.5h-2q-18 -10 -23 -29q-2 -12 5 -26.5t22 -14.5q4 0 12 5t10 7h2q45 35 90 87t82 112.5t63 123.5t32 118z" />
<glyph unicode="&#xe2;" d="M1229 27l-2 71q-23 -4 -46.5 -8t-45.5 -4q-43 0 -68 27q-16 18 -20.5 69t-2 110.5t6.5 115t6 81.5q18 170 38.5 338t39.5 338v9q4 29 -0.5 53t-40.5 24h-4l-125 -55q-39 16 -76 25.5t-82 9.5q-100 0 -183 -36t-152 -97.5t-121 -141t-90 -169t-60.5 -180.5t-30.5 -173 q-8 -68 -5 -149.5t26.5 -152.5t73.5 -118t138 -47q70 0 138.5 31t129 85t108.5 127t79 159l-12 -127q-4 -43 -6 -88t8 -83t38.5 -62.5t84.5 -24.5q66 0 129 16.5t129 26.5zM952 1016q-6 -49 -19 -134t-38 -184.5t-58.5 -202t-78.5 -185.5t-100.5 -135t-122.5 -52 q-68 0 -102 41t-46 99.5t-10 123t6 113.5q2 25 1 50t3 48q10 96 28.5 189.5t60.5 166t117 116.5t195 44h9q27 0 56.5 -2t52 -11t36.5 -28.5t10 -56.5zM1077 1425q2 8 -9 41t-26.5 71t-30 71.5t-20.5 48.5q-2 6 -15 41t-30.5 74.5t-33 71.5t-21.5 32h-27q-12 0 -26 -2 q-10 -10 -39 -47t-68 -86t-80 -104.5t-75.5 -103.5t-57 -83t-24.5 -41q0 -12 14 -12h12q16 0 25.5 1t16.5 5t13.5 12t18.5 25l209 274h33l92 -266q10 -31 17 -42t42 -11h17q23 0 47 3.5t26 26.5z" />
<glyph unicode="&#xe3;" d="M1229 27l-2 71q-23 -4 -46.5 -8t-45.5 -4q-43 0 -68 27q-16 18 -20.5 69t-2 110.5t6.5 115t6 81.5q18 170 38.5 338t39.5 338v9q4 29 -0.5 53t-40.5 24h-4l-125 -55q-39 16 -76 25.5t-82 9.5q-100 0 -183 -36t-152 -97.5t-121 -141t-90 -169t-60.5 -180.5t-30.5 -173 q-8 -68 -5 -149.5t26.5 -152.5t73.5 -118t138 -47q70 0 138.5 31t129 85t108.5 127t79 159l-12 -127q-4 -43 -6 -88t8 -83t38.5 -62.5t84.5 -24.5q66 0 129 16.5t129 26.5zM952 1016q-6 -49 -19 -134t-38 -184.5t-58.5 -202t-78.5 -185.5t-100.5 -135t-122.5 -52 q-68 0 -102 41t-46 99.5t-10 123t6 113.5q2 25 1 50t3 48q10 96 28.5 189.5t60.5 166t117 116.5t195 44h9q27 0 56.5 -2t52 -11t36.5 -28.5t10 -56.5zM1200 1595l-41 39q-35 -23 -61.5 -43t-71.5 -20q-41 0 -77 12t-71.5 26.5t-72.5 27t-76 12.5q-35 0 -67.5 -18.5 t-62.5 -46.5t-55.5 -58.5t-45.5 -55.5h-2l43 -32q31 33 58.5 50t72.5 17q35 0 65.5 -10t61 -23.5t61.5 -23.5t66 -10q43 0 80.5 13t71.5 35.5t64.5 50t59.5 58.5z" />
<glyph unicode="&#xe4;" d="M1229 27l-2 71q-23 -4 -46.5 -8t-45.5 -4q-43 0 -68 27q-16 18 -20.5 69t-2 110.5t6.5 115t6 81.5q18 170 38.5 338t39.5 338v9q4 29 -0.5 53t-40.5 24h-4l-125 -55q-39 16 -76 25.5t-82 9.5q-100 0 -183 -36t-152 -97.5t-121 -141t-90 -169t-60.5 -180.5t-30.5 -173 q-8 -68 -5 -149.5t26.5 -152.5t73.5 -118t138 -47q70 0 138.5 31t129 85t108.5 127t79 159l-12 -127q-4 -43 -6 -88t8 -83t38.5 -62.5t84.5 -24.5q66 0 129 16.5t129 26.5zM952 1016q-6 -49 -19 -134t-38 -184.5t-58.5 -202t-78.5 -185.5t-100.5 -135t-122.5 -52 q-68 0 -102 41t-46 99.5t-10 123t6 113.5q2 25 1 50t3 48q10 96 28.5 189.5t60.5 166t117 116.5t195 44h9q27 0 56.5 -2t52 -11t36.5 -28.5t10 -56.5zM1100 1712q2 20 1 47t-9.5 49.5t-24.5 39t-43 16.5t-46.5 -16.5t-32.5 -39t-20 -49t-10 -47.5q-2 -23 -1 -46.5t8.5 -45 t23 -34.5t43.5 -13q27 0 47.5 13t33.5 33.5t20.5 45t9.5 47.5zM762 1712q2 20 1 47t-9.5 49.5t-23.5 39t-42 16.5t-46 -15.5t-32.5 -39t-20.5 -50t-9 -47.5q-2 -23 -1 -47.5t9 -45t23.5 -33.5t43.5 -13q27 0 46.5 13t31.5 33.5t19.5 45t9.5 47.5z" />
<glyph unicode="&#xe5;" d="M1229 27l-2 71q-23 -4 -46.5 -8t-45.5 -4q-43 0 -68 27q-16 18 -20.5 69t-2 110.5t6.5 115t6 81.5q18 170 38.5 338t39.5 338v9q4 29 -0.5 53t-40.5 24h-4l-125 -55q-39 16 -76 25.5t-82 9.5q-100 0 -183 -36t-152 -97.5t-121 -141t-90 -169t-60.5 -180.5t-30.5 -173 q-8 -68 -5 -149.5t26.5 -152.5t73.5 -118t138 -47q70 0 138.5 31t129 85t108.5 127t79 159l-12 -127q-4 -43 -6 -88t8 -83t38.5 -62.5t84.5 -24.5q66 0 129 16.5t129 26.5zM952 1016q-6 -49 -19 -134t-38 -184.5t-58.5 -202t-78.5 -185.5t-100.5 -135t-122.5 -52 q-68 0 -102 41t-46 99.5t-10 123t6 113.5q2 25 1 50t3 48q10 96 28.5 189.5t60.5 166t117 116.5t195 44h9q27 0 56.5 -2t52 -11t36.5 -28.5t10 -56.5zM1014 1661q4 39 -1 76t-22.5 64.5t-47.5 44t-75 16.5q-55 0 -99 -28t-75.5 -71t-50 -94t-22.5 -98q-10 -80 25.5 -138.5 t123.5 -58.5q57 0 100 26.5t74 68.5t48.5 92.5t21.5 99.5zM928 1606q-2 -25 -9.5 -55.5t-21.5 -58.5t-35.5 -46.5t-54.5 -18.5q-37 0 -58.5 21.5t-31.5 52.5t-12.5 67t2.5 64q2 27 10 57.5t23.5 56.5t38 43t57.5 17t54 -21.5t28.5 -52t10.5 -65t-1 -61.5z" />
<glyph unicode="&#xe6;" horiz-adv-x="1630" d="M1612 915q16 139 -52.5 227.5t-211.5 88.5q-106 0 -191.5 -50.5t-171.5 -127.5q-86 178 -293 178q-41 0 -99 -11.5t-112.5 -36t-94.5 -62.5t-46 -89q-2 -23 -5 -45t-5 -45q-6 -35 -2 -74q0 -10 6 -10q41 0 63.5 7t44.5 48q20 43 38 83t41.5 73t59 52.5t93.5 19.5 q61 0 96 -31t51.5 -78t17.5 -101t-3 -104q-4 -31 -10.5 -52t-18.5 -34.5t-31.5 -22.5t-52.5 -18q-98 -23 -202.5 -47t-191.5 -69t-148.5 -122t-74.5 -204q-8 -68 8.5 -121t52.5 -90t89 -56.5t119 -19.5q125 0 220 55.5t191 151.5q20 -49 42 -87t51.5 -64.5t70.5 -41 t101 -14.5q115 0 220 55.5t183 145.5q12 14 25.5 31.5t17.5 36.5q2 25 -14.5 35t-32.5 20q-55 -76 -120.5 -123t-149.5 -47q-59 0 -97.5 21.5t-60 58.5t-28.5 84t-5 98q117 0 223.5 37t191.5 106.5t140.5 166.5t67.5 218zM1434 874q-8 -76 -40 -146.5t-84.5 -124.5t-121 -87 t-148.5 -33q-23 0 -33 9.5t-14 24.5t-3 32.5t3 34.5q4 37 12.5 92t22.5 116.5t35.5 123t52.5 109.5t72 79t94 31q49 0 81 -26t49.5 -63.5t21.5 -84t0 -87.5zM803 545q-6 -70 -24.5 -148t-54.5 -143.5t-94.5 -108.5t-146.5 -43q-90 0 -141 56.5t-41 146.5q8 86 53 143.5 t108.5 91t139.5 48t148 14.5q35 0 46 -12t7 -45z" />
<glyph unicode="&#xe7;" horiz-adv-x="995" d="M967 264q2 14 -19.5 30.5t-32.5 20.5q-47 -84 -108.5 -139t-161.5 -55q-90 0 -143 49t-81 122t-33 158t1 156q8 68 27.5 156t57.5 167t98.5 134t150.5 55q68 0 95.5 -34.5t39.5 -76.5t20.5 -77t36.5 -35h33q23 0 32 9t13 50l17 154q4 39 -17.5 63.5t-53.5 38t-70 17.5 t-68 4q-139 0 -249 -72t-189.5 -180.5t-127 -238.5t-59.5 -248q-10 -94 -3 -182.5t41 -159t99.5 -117.5t173.5 -60q-16 -41 -36.5 -83t-41 -85t-36 -86t-19.5 -86q-6 -45 5.5 -70.5t31 -38.5t42 -19.5t43 -15.5t31.5 -25.5t9 -49.5q-4 -39 -19.5 -76.5t-31.5 -72.5l43 -10 q41 61 59.5 118.5t26.5 126.5q6 61 -5 110.5t-26.5 93.5t-28 83t-8.5 78q4 59 35 108q98 10 191.5 56.5t154.5 130.5q16 20 36 47.5t24 56.5z" />
<glyph unicode="&#xe8;" horiz-adv-x="999" d="M1010 915q16 139 -52.5 227.5t-212.5 88.5q-137 0 -239.5 -78t-173 -193.5t-109.5 -247.5t-51 -243q-8 -82 -5 -170t31.5 -160.5t88 -120t162.5 -47.5q109 0 213 49.5t178 135.5q14 16 32.5 39.5t22.5 44.5q2 20 -13.5 35.5t-31.5 21.5q-4 -4 -5 -7t-3 -7 q-49 -66 -116 -112t-148 -46q-59 0 -97.5 21.5t-60 58.5t-28.5 84t-5 98q117 0 223.5 37t191.5 106.5t140.5 166.5t67.5 218zM831 874q-8 -76 -39.5 -146.5t-84 -124.5t-121 -87t-148.5 -33q-39 0 -46 24.5t-3 55.5q4 39 12.5 96.5t22.5 121t35.5 127t52.5 113.5t73 82 t95 32q49 0 81 -26t49 -63.5t21 -84t0 -87.5zM799 1403q0 6 -13.5 20.5t-30 40t-26.5 65.5t-4 99q4 53 16.5 103.5t16.5 103.5q4 47 -11.5 84t-68.5 37q-29 0 -48.5 -13.5t-32.5 -34t-20.5 -46t-9.5 -47.5q-10 -90 20.5 -180.5t76.5 -161.5q6 -10 18 -29t26.5 -37t30 -31.5 t25.5 -13.5q12 0 22.5 15.5t12.5 25.5z" />
<glyph unicode="&#xe9;" horiz-adv-x="999" d="M1010 915q16 139 -52.5 227.5t-212.5 88.5q-137 0 -239.5 -78t-173 -193.5t-109.5 -247.5t-51 -243q-8 -82 -5 -170t31.5 -160.5t88 -120t162.5 -47.5q109 0 213 49.5t178 135.5q14 16 32.5 39.5t22.5 44.5q2 14 -12.5 32.5t-28.5 18.5q-6 0 -12 -8q-49 -66 -116 -112 t-148 -46q-59 0 -97.5 21.5t-60 58.5t-28.5 84t-5 98q117 0 223.5 37t191.5 106.5t140.5 166.5t67.5 218zM831 874q-8 -76 -39.5 -146.5t-84 -124.5t-121 -87t-148.5 -33q-39 0 -46 24.5t-3 55.5q4 37 12.5 94.5t22.5 121t35.5 127t52.5 114.5t73 83t95 32q49 0 81 -26 t48 -63.5t21 -84t1 -87.5zM915 1815q2 23 0 48t-11 45.5t-26.5 34t-46.5 13.5q-53 0 -76.5 -39t-27.5 -84q-4 -51 -3 -101.5t-3 -101.5q-8 -66 -26.5 -110.5t-73.5 -87.5q-18 -10 -23 -29q-2 -12 5 -26.5t22 -14.5q4 0 12 5t12 7q45 35 90 87t82 112.5t62.5 123.5t31.5 118z " />
<glyph unicode="&#xea;" horiz-adv-x="999" d="M1010 915q16 139 -52.5 227.5t-212.5 88.5q-137 0 -239.5 -78t-173 -193.5t-109.5 -247.5t-51 -243q-8 -82 -5 -170t31.5 -160.5t88 -120t162.5 -47.5q109 0 213 49.5t178 135.5q14 16 32.5 39.5t22.5 44.5q2 14 -12.5 32.5t-28.5 18.5q-6 0 -12 -8q-49 -66 -116 -112 t-148 -46q-59 0 -97.5 21.5t-60 58.5t-28.5 84t-5 98q117 0 223.5 37t191.5 106.5t140.5 166.5t67.5 218zM831 874q-8 -76 -39.5 -146.5t-84 -124.5t-121 -87t-148.5 -33q-39 0 -46 24.5t-3 55.5q4 37 12.5 94.5t22.5 121t35.5 127t52.5 114.5t73 83t95 32q49 0 81 -26 t49 -63.5t21 -84t0 -87.5zM1053 1442q2 12 -11.5 48t-34 84t-45 104.5t-48 108.5t-41 95t-23.5 68q-6 6 -10 6h-66q-12 -16 -46 -59.5t-77 -99.5t-89 -117.5t-85 -115t-64.5 -91t-25.5 -48.5q0 -14 16 -14h29q27 0 37 7t35 40l237 316h35l103 -306q10 -29 18 -43t41 -14h35 q27 0 52.5 5.5t27.5 25.5z" />
<glyph unicode="&#xeb;" horiz-adv-x="999" d="M1010 915q16 139 -52.5 227.5t-212.5 88.5q-137 0 -239.5 -78t-173 -193.5t-109.5 -247.5t-51 -243q-8 -82 -5 -170t31.5 -160.5t88 -120t162.5 -47.5q109 0 213 49.5t178 135.5q14 16 32.5 39.5t22.5 44.5q2 14 -12.5 32.5t-28.5 18.5q-6 0 -12 -8q-49 -66 -116 -112 t-148 -46q-59 0 -97.5 21.5t-60 58.5t-28.5 84t-5 98q117 0 223.5 37t191.5 106.5t140.5 166.5t67.5 218zM831 874q-8 -76 -39.5 -146.5t-84 -124.5t-121 -87t-148.5 -33q-39 0 -46 24.5t-3 55.5q4 37 12.5 94.5t22.5 121t35.5 127t52.5 114.5t73 83t95 32q49 0 81 -26 t49 -63.5t21 -84t0 -87.5zM987 1776q2 20 1 46.5t-9 50t-24.5 39t-43.5 15.5t-46 -16.5t-32.5 -40t-20.5 -49t-9 -45.5q-2 -23 -1 -47.5t9 -45t23.5 -34t44.5 -13.5q27 0 47 13.5t32.5 34t19.5 45t9 47.5zM649 1776q2 20 1 46.5t-8 49t-22.5 39t-41.5 16.5 q-27 0 -46.5 -15.5t-33 -39t-20.5 -50t-9 -46.5q-2 -23 -1 -46.5t8 -45t22.5 -35t44.5 -13.5q27 0 46 13.5t31.5 34t19.5 45t9 47.5z" />
<glyph unicode="&#xec;" horiz-adv-x="628" d="M586 20l-4 72q-47 -10 -88 -10q-39 0 -56.5 31.5t-23.5 74.5t-3 89.5t5 74.5l2 8q10 92 14 184.5t14 184.5q10 119 16.5 236.5t4.5 236.5h-240l-8 -74h135q-47 -229 -89 -456.5t-66 -456.5q-4 -41 -4 -84q0 -41 11 -74.5t38.5 -55t81.5 -21.5q66 0 130 15t130 25z M578 1403q0 6 -13.5 19.5t-29 39t-25.5 65.5t-4 101q4 53 16.5 103.5t16.5 103.5q4 45 -11.5 83t-68.5 38q-29 0 -49.5 -13.5t-34 -34t-20.5 -46t-9 -47.5q-10 -90 20.5 -180.5t75.5 -161.5q6 -8 18.5 -27t27 -37t29.5 -32.5t26 -14.5q12 0 22.5 15.5t12.5 25.5z" />
<glyph unicode="&#xed;" horiz-adv-x="628" d="M586 20l-4 72q-47 -10 -88 -10q-39 0 -56.5 31.5t-23.5 74.5t-3 89.5t5 74.5l2 8q10 92 14 184.5t14 184.5q10 119 16.5 236.5t4.5 236.5h-240l-8 -74h135q-47 -229 -89 -456.5t-66 -456.5q-4 -41 -4 -84q0 -41 11 -74.5t38.5 -55t81.5 -21.5q66 0 130 15t130 25z M612 1815q2 23 0 48t-10 45.5t-25.5 34t-46.5 13.5q-53 0 -76.5 -39t-27.5 -84q-4 -51 -4 -102q0 -49 -4 -101q-4 -35 -9.5 -61.5t-16.5 -48t-27.5 -43t-42.5 -45.5h-3q-18 -10 -22 -29q-2 -12 5 -26.5t22 -14.5q4 0 11 5t9 7h2q45 35 90 87t82 112.5t62.5 123.5t31.5 118z " />
<glyph unicode="&#xee;" horiz-adv-x="628" d="M586 20l-4 72q-47 -10 -88 -10q-27 0 -42.5 10t-23.5 27.5t-11 38t-3 43.5q-4 92 3 183t15 183q16 158 27.5 319t7.5 316h-240l-8 -74h135q-47 -229 -89 -456.5t-66 -456.5q-4 -41 -4 -84q0 -41 11 -74.5t38.5 -55t81.5 -21.5q66 0 130 15t130 25zM733 1442 q2 16 -22.5 82.5t-57 146.5t-63.5 151.5t-43 100.5q-4 8 -10.5 20.5t-16.5 12.5h-61q-12 -10 -45 -52t-76 -98.5t-90 -120t-87 -119t-66.5 -95t-26.5 -46.5q0 -14 16 -14h35q23 0 32 7t33 40l238 316h37l102 -306q10 -25 17.5 -41t37.5 -16h35q27 0 53.5 5.5t28.5 25.5z" />
<glyph unicode="&#xef;" horiz-adv-x="624" d="M584 20l-4 72q-23 -4 -45.5 -7t-45.5 -3q-37 0 -54 31.5t-23 74.5t-3 88.5t5 73.5l2 8q8 80 12 159t8 157q4 72 10.5 143.5t10.5 143.5q2 59 3 119.5t5 121.5h-240l-8 -74h133q-43 -211 -83 -419.5t-62 -419.5l-6 -70q-4 -41 -5 -84t10 -77.5t38.5 -56t79.5 -21.5 q66 0 131 15t131 25zM727 1782q2 20 1 46.5t-9 49.5t-24.5 39t-43.5 16t-46 -16t-32.5 -40t-20.5 -49.5t-9 -45.5q-2 -23 -1 -47.5t8 -46t23.5 -35t44.5 -13.5q27 0 47.5 13.5t33 35t19.5 46t9 47.5zM389 1782q2 20 1 46.5t-9 49.5t-23.5 39t-42.5 16t-46 -16t-32.5 -39 t-20.5 -49.5t-9 -46.5q-2 -23 -1 -47.5t8 -46t23.5 -35t45.5 -13.5t48 13.5t31.5 35t18.5 46t8 47.5z" />
<glyph unicode="&#xf0;" horiz-adv-x="1431" d="M1343 1686l-49 124l-225 -104q-72 90 -168 151.5t-219 88.5q-10 2 -24.5 4t-30.5 2q-25 0 -48.5 -8.5t-29.5 -32.5q-4 -10 -5 -21.5t-3 -21.5q-2 -16 -2 -35q0 -16 -2 -33q-2 -2 -5 -2h-2l1 -1t6 -1q37 10 66.5 15.5t60.5 5.5q16 0 33.5 -2.5t35.5 -6.5q72 -14 127 -54 t98 -99l-210 -96l49 -125l227 104q33 -74 55.5 -158t34.5 -165.5t16.5 -157.5t2.5 -135q-78 78 -151 125t-171 63q-23 4 -42 6t-42 2q-90 0 -170 -31.5t-146.5 -88t-114.5 -134.5t-73 -170q-8 -29 -12 -56.5t-8 -55.5q-10 -104 9 -205t68.5 -183.5t128 -140t187.5 -76.5 q23 -4 43 -6t43 -2q109 0 204 44t171 118t130 170t83 203q25 96 37 205q10 106 7 222t-21.5 231.5t-55.5 225t-92 205.5zM379 508q14 76 48 162t86 158.5t123 120.5t161 48h20q76 -4 127 -43t80 -97t37 -129t2 -138q-2 -10 -4 -19.5t-2 -19.5q-12 -76 -48 -161t-90.5 -155.5 t-127 -116.5t-160.5 -46h-19q-76 6 -126 43t-77.5 92t-34.5 123.5t-1 136.5q2 10 4 20.5t2 20.5z" />
<glyph unicode="&#xf1;" horiz-adv-x="1280" d="M1239 27l-2 71q-47 -12 -94 -12q-37 0 -53.5 36t-21.5 83t-2 95t7 73l45 436q6 66 8 139.5t-13 137t-55 104.5t-118 41q-74 0 -147.5 -46t-139 -120t-120 -165t-91.5 -183q4 80 7.5 147.5t6.5 126t5 109.5t6 102h-240l-8 -74h135q-37 -256 -81 -507.5t-70 -507.5 q-2 -12 -2 -33q0 -18 3 -36.5t12 -31t28 -12.5h32q29 0 56.5 4t42.5 27q12 20 17 45.5t9 48.5q12 109 26.5 208t40.5 193.5t68 186.5t107 190q18 27 46 64t60.5 70.5t68.5 57t71 23.5q31 0 47 -13t23.5 -34.5t6.5 -47.5t-3 -50q-16 -172 -50 -339t-51 -339l-6 -41 q-4 -43 -5 -91t9 -88t38 -65.5t81 -25.5q66 0 130 16.5t130 26.5zM1245 1872l-47 43q-29 -35 -70 -53.5t-81 -18.5q-45 0 -87 14.5t-82 31t-81 30.5t-86 14q-43 0 -80 -20.5t-70 -51t-61.5 -65.5t-53.5 -65h-2l50 -41q35 37 65.5 59.5t83.5 22.5q29 0 62.5 -13.5t70.5 -29 t76 -27.5t82 -12q47 0 89 15t81 42t73.5 58.5t67.5 66.5z" />
<glyph unicode="&#xf2;" horiz-adv-x="1218" d="M1169 731q10 94 -1 186.5t-50 164t-109.5 115.5t-181.5 44q-143 0 -257.5 -73.5t-198.5 -186.5t-134.5 -248t-62.5 -258q-10 -96 0 -188t49 -165t111 -117t182 -44q147 0 262 72.5t198 186.5t132 249t61 262zM965 582q-6 -68 -25.5 -150t-57.5 -152.5t-97.5 -118.5 t-147.5 -48q-94 0 -147.5 52t-78 129t-26.5 165t6 159q8 74 27.5 161t59.5 162t103.5 125t159.5 50q90 0 139.5 -58.5t70 -142.5t20.5 -176q0 -89 -6 -157zM881 1403q0 6 -13.5 20.5t-30 40t-26.5 65.5t-4 99q4 53 16.5 103.5t16.5 103.5q4 47 -11.5 84t-68.5 37 q-29 0 -48.5 -13.5t-32.5 -34t-20.5 -46t-9.5 -47.5q-10 -90 20.5 -180.5t75.5 -161.5q6 -10 18.5 -29t27 -37t30 -31.5t25.5 -13.5q12 0 22.5 15.5t12.5 25.5z" />
<glyph unicode="&#xf3;" horiz-adv-x="1218" d="M1169 731q10 94 -1 186.5t-50 164t-109.5 115.5t-181.5 44q-143 0 -257.5 -73.5t-198.5 -186.5t-134.5 -248t-62.5 -258q-10 -96 0 -188t49 -165t111 -117t182 -44q147 0 262 72.5t198 186.5t132 249t61 262zM965 582q-6 -68 -25.5 -150t-57.5 -152.5t-97.5 -118.5 t-147.5 -48q-94 0 -147.5 52t-78 129t-26.5 165t6 159q8 74 27.5 161t59.5 162t103.5 125t159.5 50q90 0 139.5 -58.5t70 -142.5t20.5 -176q0 -89 -6 -157zM958 1815q2 23 0 48t-11 45.5t-26.5 34t-43.5 13.5q-53 0 -77 -39t-28 -84q-4 -51 -4 -102q0 -49 -4 -101 q-8 -66 -26.5 -110.5t-71.5 -87.5h-2q-18 -10 -23 -29q-2 -12 5 -26.5t22 -14.5q4 0 12 5t10 7h2q45 35 90 87t82 112.5t62.5 123.5t31.5 118z" />
<glyph unicode="&#xf4;" horiz-adv-x="1218" d="M1169 731q10 94 -1 186.5t-50 164t-109.5 115.5t-181.5 44q-143 0 -257.5 -73.5t-198.5 -186.5t-134.5 -248t-62.5 -258q-10 -96 0 -188t49 -165t111 -117t182 -44q147 0 262 72.5t198 186.5t132 249t61 262zM965 582q-6 -68 -25.5 -150t-57.5 -152.5t-97.5 -118.5 t-147.5 -48q-94 0 -147.5 52t-78 129t-26.5 165t6 159q8 74 27.5 161t59.5 162t103.5 125t159.5 50q90 0 139.5 -58.5t70 -142.5t20.5 -176q0 -89 -6 -157zM1151 1446q0 8 -10.5 43t-27.5 82t-39.5 101t-42 103.5t-36 86t-24.5 51.5q-4 10 -10.5 21.5t-10.5 23.5q-4 0 -5 1 t-5 1h-63q-12 -14 -45 -57t-76 -99.5t-90.5 -119t-87 -117t-65.5 -92t-26 -43.5q-4 -16 13 -17h39q20 0 29.5 7.5t33.5 41.5l238 316h32q8 -25 23.5 -75t33 -103.5t34 -98.5t26.5 -61h2q4 -16 17.5 -21.5t29.5 -5.5h35q27 0 51.5 5.5t26.5 25.5z" />
<glyph unicode="&#xf5;" horiz-adv-x="1218" d="M1169 731q10 94 -1 186.5t-50 164t-109.5 115.5t-181.5 44q-143 0 -257.5 -73.5t-198.5 -186.5t-134.5 -248t-62.5 -258q-10 -96 0 -188t49 -165t111 -117t182 -44q147 0 262 72.5t198 186.5t132 249t61 262zM965 582q-6 -68 -25.5 -150t-57.5 -152.5t-97.5 -118.5 t-147.5 -48q-94 0 -147.5 52t-78 129t-26.5 165t6 159q8 74 27.5 161t59.5 162t103.5 125t159.5 50q90 0 139.5 -58.5t70 -142.5t20.5 -176q0 -89 -6 -157zM1251 1872l-47 45q-39 -35 -69.5 -54.5t-83.5 -19.5q-47 0 -88 14.5t-82 31t-82 30.5t-86 14q-35 0 -73 -21.5 t-74 -52t-66.5 -65.5t-46.5 -63h-2l45 -39q35 41 67.5 60.5t83.5 19.5q27 0 60.5 -13.5t70.5 -29t77 -27.5t81 -12q49 0 91 15t81 42t73.5 58.5t69.5 66.5z" />
<glyph unicode="&#xf6;" horiz-adv-x="1218" d="M1169 731q10 94 -1 186.5t-50 164t-109.5 115.5t-181.5 44q-143 0 -257.5 -73.5t-198.5 -186.5t-134.5 -248t-62.5 -258q-10 -96 0 -188t49 -165t111 -117t182 -44q147 0 262 72.5t198 186.5t132 249t61 262zM965 582q-6 -68 -25.5 -150t-57.5 -152.5t-97.5 -118.5 t-147.5 -48q-92 0 -144.5 50t-78 126t-28.5 161t3 156q8 74 27.5 163t58.5 166t103.5 129t162.5 52q90 0 139.5 -58.5t70 -142.5t20.5 -176q0 -89 -6 -157zM1075 1776q2 20 1 46.5t-9 49t-24.5 39t-43.5 16.5t-46 -16.5t-32.5 -40t-20.5 -49t-9 -45.5q-2 -23 -1 -47.5t9 -45 t23.5 -34t44.5 -13.5q27 0 47 13.5t32.5 34t19.5 45t9 47.5zM737 1776q2 20 1 46.5t-9 49t-23.5 39t-41.5 16.5q-27 0 -46.5 -16.5t-33 -39t-20.5 -49t-9 -46.5q-2 -23 -1 -47.5t9 -45t23.5 -34t44.5 -13.5q27 0 46 13.5t31.5 34t19.5 45t9 47.5z" />
<glyph unicode="&#xf7;" horiz-adv-x="1538" d="M1475 516l16 162h-1288l-17 -162h1289zM874 156q2 25 3 53q0 31 -7.5 57.5t-26 45t-48.5 18.5q-33 0 -55.5 -19.5t-37 -47t-21.5 -60.5t-9 -58q-4 -25 -3 -54.5t9 -55t26.5 -42t51.5 -16.5q31 0 52 18.5t35.5 46.5t21.5 58.5t9 55.5zM973 1047q2 23 2 53q0 31 -8.5 58.5 t-24.5 46t-47 18.5q-33 0 -55.5 -19.5t-37 -48.5t-22.5 -61.5t-10 -57.5q-2 -27 -2 -57q0 -29 8 -53.5t26.5 -41t53.5 -16.5q31 0 52.5 19.5t34.5 47.5t20.5 58.5t9.5 53.5z" />
<glyph unicode="&#xf8;" horiz-adv-x="1220" d="M1174 748q10 109 -5.5 199.5t-83.5 172.5l148 203l-70 51l-133 -186h-12q-47 25 -89 38t-100 13q-145 0 -261.5 -74.5t-200.5 -189.5t-135.5 -252t-63.5 -262q-10 -109 3 -194t71 -173l-156 -215l68 -49l139 190h12q51 -29 95 -43t106 -14q150 0 267.5 74t202.5 189.5 t134.5 254t63.5 267.5zM967 614q-8 -72 -27.5 -158.5t-58.5 -162.5t-101.5 -128t-154.5 -52q-66 0 -110 27.5t-85 72.5l508 709h18q14 -78 16.5 -153t-5.5 -155zM918 1032l-510 -713h-19q-14 66 -12 135.5t10 139.5q8 74 28.5 164t61.5 170t105.5 134t160.5 54 q112 0 175 -84z" />
<glyph unicode="&#xf9;" horiz-adv-x="1312" d="M1268 98q-23 -4 -45.5 -8t-44.5 -4q-55 0 -67.5 37t-12.5 82q-2 104 5 206.5t17 206.5q16 147 35 292t35 292h-49q-39 0 -62.5 -23.5t-39 -57.5t-22.5 -71.5t-11 -64.5q-10 -57 -25.5 -142t-40.5 -180.5t-60.5 -191.5t-82.5 -173t-109.5 -125t-142.5 -48q-59 0 -88 29.5 t-40 73.5t-8 95.5t7 94.5q10 86 16 171t12 171q8 111 10.5 221.5t12.5 220.5h-240l-8 -74h135q-41 -190 -77.5 -377.5t-57.5 -379.5q-6 -68 -5 -139.5t22.5 -129t69.5 -94.5t134 -37q66 0 136.5 32t135 84t116 122t77.5 147l-12 -120q-4 -41 -6 -85.5t8 -81t36.5 -61 t80.5 -24.5q66 0 129 16t129 27zM872 1403q0 6 -13 19.5t-29.5 39t-26.5 65.5t-4 101q4 53 17 103.5t18 103.5q4 45 -11.5 83t-68.5 38q-29 0 -49.5 -13.5t-34 -34t-20.5 -46t-9 -47.5q-10 -90 20.5 -180.5t75.5 -161.5q6 -8 18.5 -27t27 -37t29.5 -32.5t26 -14.5 q12 0 22 15.5t12 25.5zM1268 98v2h-2v-2h2z" />
<glyph unicode="&#xfa;" horiz-adv-x="1312" d="M1268 98q-23 -4 -45.5 -8t-44.5 -4q-55 0 -67.5 37t-12.5 82q-2 104 5 206.5t17 206.5q16 147 35 292t35 292h-49q-39 0 -62.5 -23.5t-39 -57.5t-22.5 -71.5t-11 -64.5q-10 -57 -25.5 -142t-40.5 -180.5t-60.5 -191.5t-82.5 -173t-109.5 -125t-142.5 -48q-59 0 -88 29.5 t-40 73.5t-8 95.5t7 94.5q10 86 16 171t12 171q8 111 10.5 221.5t12.5 220.5h-240l-8 -74h135q-41 -190 -77.5 -377.5t-57.5 -379.5q-6 -68 -5 -139.5t22.5 -129t69.5 -94.5t134 -37q66 0 136.5 32t135 84t116 122t77.5 147l-12 -120q-4 -41 -6 -85.5t8 -81t36.5 -61 t80.5 -24.5q66 0 129 16t129 27zM989 1815q2 23 0 48t-11 45.5t-26.5 34t-44.5 13.5q-53 0 -76.5 -39t-27.5 -84q-4 -51 -4 -102q0 -49 -4 -101q-8 -66 -26.5 -110.5t-72.5 -87.5h-2q-18 -10 -22 -29q-2 -12 5 -26.5t21 -14.5q4 0 12.5 5t10.5 7h2q45 35 90 87t82 112.5 t62.5 123.5t31.5 118zM1268 98v2h-2v-2h2z" />
<glyph unicode="&#xfb;" horiz-adv-x="1312" d="M1268 98v2h-2v-2q-23 -4 -45.5 -8t-42.5 -4q-55 0 -67.5 37t-12.5 82q-2 104 5 206.5t17 206.5q16 147 35 292t35 292h-49q-39 0 -62.5 -23.5t-39 -57.5t-22.5 -71.5t-11 -64.5q-10 -57 -25.5 -142t-40.5 -180.5t-60.5 -191.5t-82.5 -173t-109.5 -125t-142.5 -48 q-59 0 -88 29.5t-40 73.5t-8 95.5t7 94.5q10 86 16 171t12 171q8 111 10.5 221.5t12.5 220.5h-240l-8 -74h135q-41 -190 -77.5 -377.5t-57.5 -379.5q-6 -68 -5 -139.5t22.5 -129t69.5 -94.5t134 -37q66 0 136.5 32t135 84t116 122t77.5 147l-12 -120q-4 -41 -6 -85.5t8 -81 t36.5 -61t80.5 -24.5q66 0 129 16t129 27zM1114 1442q0 6 -12 41t-30.5 85t-41 107.5t-44 109.5t-38 91t-22.5 51q-4 6 -9.5 17.5t-15.5 11.5h-65q-12 -16 -46 -59.5t-77 -99.5t-89 -117.5t-85 -115t-63.5 -91t-26.5 -48.5q0 -14 16 -14h35q23 0 33 7t32 40l238 316h35 l102 -306q10 -29 18.5 -43t40.5 -14h35q27 0 52.5 5.5t27.5 25.5z" />
<glyph unicode="&#xfc;" horiz-adv-x="1312" d="M1268 98q-23 -4 -45.5 -8t-44.5 -4q-55 0 -67.5 37t-12.5 82q-2 104 5 206.5t17 206.5q16 147 35 292t35 292h-49q-39 0 -62.5 -23.5t-39 -57.5t-22.5 -71.5t-11 -64.5q-10 -57 -25.5 -142t-40.5 -180.5t-60.5 -191.5t-82.5 -173t-109.5 -125t-142.5 -48q-59 0 -88 29.5 t-40 73.5t-8 95.5t7 94.5q10 86 16 171t12 171q8 111 10.5 221.5t12.5 220.5h-240l-8 -74h135q-41 -190 -77.5 -377.5t-57.5 -379.5q-6 -68 -5 -139.5t22.5 -129t69.5 -94.5t134 -37q66 0 136.5 32t135 84t116 122t77.5 147l-12 -120q-4 -41 -6 -85.5t8 -81t36.5 -61 t80.5 -24.5q66 0 129 16t129 27zM1059 1776q2 20 1 46.5t-9.5 50t-24.5 39t-43 15.5t-46 -16.5t-32.5 -40t-20.5 -49t-10 -45.5q-2 -23 -1 -47.5t9.5 -45t24 -34t43.5 -13.5q27 0 47.5 13.5t32.5 34t19.5 45t9.5 47.5zM721 1776q2 20 1 46.5t-8 49t-22.5 39t-42.5 16.5 t-46 -15.5t-32.5 -39t-20.5 -50t-9 -46.5q-2 -23 -1 -46.5t8 -45t22.5 -35t43.5 -13.5q27 0 46.5 13.5t32 34t19.5 45t9 47.5zM1268 98v2h-2v-2h2z" />
<glyph unicode="&#xfd;" horiz-adv-x="1253" d="M1075 -72q23 211 31 420t31 420q10 111 25.5 217.5t27.5 216.5h-49q-39 0 -62.5 -23.5t-39 -57.5t-22.5 -71.5t-11 -64.5q-10 -57 -25.5 -142t-40.5 -180.5t-59.5 -191.5t-82.5 -173t-109.5 -125t-141.5 -48q-61 0 -90 31.5t-38 78t-7 99.5t6 96q18 195 27.5 386.5 t21.5 385.5h-240l-8 -74h135q-41 -190 -77.5 -377.5t-57.5 -379.5q-6 -68 -5 -139.5t22.5 -129t69.5 -94.5t134 -37q68 0 141.5 31t138 83t112 124t63.5 153l6 -98q6 -131 3 -262t-17 -264q-20 -190 -122.5 -305t-303.5 -115q-90 0 -138.5 28.5t-74.5 108.5q-2 4 -5 14.5 t-7.5 19.5t-9.5 16.5t-13 7.5q-25 0 -43 -17.5t-32.5 -41t-21.5 -50.5t-10 -45q-6 -49 19 -80t63.5 -48t84.5 -23.5t83 -6.5q70 0 139.5 11.5t136 35t128 61.5t114.5 91q55 55 91 118.5t57.5 130t33 137t19.5 142.5zM952 1815q2 23 0 48t-11 45.5t-26.5 34t-46.5 13.5 q-53 0 -76.5 -39t-27.5 -84q-4 -51 -3 -101.5t-3 -101.5q-8 -66 -26.5 -110.5t-72.5 -87.5h-2q-18 -10 -22 -29q-2 -12 5 -26.5t22 -14.5q4 0 12 5t10 7h2q45 35 90 87t82 112.5t62.5 123.5t31.5 118z" />
<glyph unicode="&#xfe;" horiz-adv-x="1187" d="M1126 625q12 123 -7 231.5t-74.5 189t-148.5 128t-226 47.5q-25 0 -52.5 -4.5t-62.5 -4.5l80 723q-47 -4 -76 -15t-46 -30.5t-26.5 -50.5t-15.5 -76q-4 -35 -13 -95t-21.5 -140t-25 -177.5t-24.5 -205.5q-90 -51 -157.5 -108.5t-139.5 -131.5l51 -57q49 53 107.5 97 t134.5 83q-35 -217 -65.5 -434t-53.5 -436q-25 -231 -50.5 -460.5t-49.5 -461.5q-2 -10 -2 -27q0 -18 16 -18q25 0 40 7t25.5 19.5t19.5 30t20 37.5q37 68 59.5 125.5t35.5 112.5t21.5 114.5t16.5 131.5q4 53 10 106t10 107h8q20 0 53 -6.5t56 -6.5q129 0 230.5 60.5 t174 155t114.5 211t54 229.5zM918 545q-6 -72 -23.5 -155t-53.5 -153.5t-96.5 -118.5t-152.5 -48q-39 0 -75 10t-68 33l104 997h8q16 0 35.5 3t38.5 3q100 0 160.5 -60.5t90 -147.5t35 -186t-2.5 -177z" />
<glyph unicode="&#xff;" horiz-adv-x="1253" d="M1075 -72q23 211 31 420t31 420q10 111 25.5 217.5t27.5 216.5h-49q-39 0 -62.5 -23.5t-39 -57.5t-22.5 -71.5t-11 -64.5q-10 -57 -25.5 -142t-40.5 -180.5t-59.5 -191.5t-82.5 -173t-109.5 -125t-141.5 -48q-61 0 -90 31.5t-38 78t-7 99.5t6 96q18 195 27.5 386.5 t21.5 385.5h-240l-8 -74h135q-41 -190 -77.5 -377.5t-57.5 -379.5q-6 -68 -5 -139.5t22.5 -129t69.5 -94.5t134 -37q68 0 141.5 31t138 83t112 124t63.5 153l6 -98q6 -131 3 -262t-17 -264q-20 -190 -122.5 -305t-303.5 -115q-90 0 -138.5 28.5t-74.5 108.5q-2 4 -5 14.5 t-7.5 19.5t-9.5 16.5t-13 7.5q-25 0 -43 -17.5t-32.5 -41t-21.5 -50.5t-10 -45q-6 -49 19 -80t63.5 -48t84.5 -23.5t83 -6.5q70 0 139.5 11.5t136 35t128 61.5t114.5 91q55 55 91 118.5t57.5 130t33 137t19.5 142.5zM1065 1776q2 20 1 46.5t-9 49t-24.5 39t-43.5 16.5 t-46 -16.5t-32.5 -40t-20.5 -49t-9 -45.5q-2 -23 -1 -47.5t9 -45t23.5 -34t43.5 -13.5q27 0 47.5 13.5t33 34t19.5 45t9 47.5zM727 1776q2 20 1 46.5t-9 49t-23.5 39t-42.5 16.5t-46 -16.5t-32.5 -39t-20.5 -49t-9 -46.5q-2 -23 -1 -47.5t9 -45t23.5 -34t44.5 -13.5 q27 0 46 13.5t31.5 34t19.5 45t9 47.5z" />
<glyph unicode="&#x152;" horiz-adv-x="2201" d="M2077 305q0 2 1 13.5t1 23.5t-2 21.5t-9 9.5q-51 0 -76.5 -19.5t-41 -50.5t-26.5 -64.5t-33.5 -64.5t-64.5 -50.5t-116 -19.5q-12 0 -32.5 -1t-45.5 -1q-29 0 -60.5 2t-60 7.5t-49 14.5t-28.5 26q-8 16 -9 34q0 20 2 41l3 19q12 117 22 229.5t21 229.5l6 47h370 q33 0 50.5 11t21.5 46l6 65h-436q10 141 19.5 279.5t21.5 280.5h4q10 0 36.5 2t56.5 3t56.5 3t38.5 2h125q35 0 58.5 -4t39 -15.5t24.5 -33t14 -58.5q2 -16 1 -39.5t3 -45t16 -37t37 -15.5h18q16 0 32.5 3t16.5 13l33 310q2 16 -1 21t-25 5l-713 2l-25 -192l-14 37 q-66 88 -166 136t-217 48q-111 0 -208 -39t-180 -106.5t-149.5 -155.5t-115.5 -187.5t-79 -203t-40 -199.5q-16 -145 5.5 -276t86 -232.5t173 -161t267.5 -59.5q76 0 138.5 17.5t117 50t105.5 75.5t106 97l23 37q-4 -49 -9 -118t-5 -118q197 0 333 1t224 2t135 3t69.5 4 t26.5 5t6 8q16 66 37 140t29 142zM1288 725q-10 -100 -39.5 -213t-87 -209t-144.5 -159.5t-212 -63.5q-90 0 -156.5 35t-111.5 94t-73 135t-40 159t-13 166t7 154q10 100 39.5 213t86 208t143.5 158.5t212 63.5q92 0 159.5 -34.5t113 -93t72 -134.5t38.5 -157.5t13 -164.5 t-7 -157z" />
<glyph unicode="&#x153;" horiz-adv-x="1800" d="M1778 915q16 137 -50.5 226.5t-209.5 89.5q-111 0 -201 -54.5t-166 -138.5q-31 45 -63.5 82t-69.5 63.5t-81 41t-99 14.5q-145 0 -262 -76t-203 -191.5t-137.5 -253.5t-63.5 -263q-10 -94 2 -182.5t51 -156t110 -108.5t177 -41q137 0 235.5 51.5t192.5 159.5 q27 -49 51.5 -88t55 -64.5t71.5 -40t101 -14.5q109 0 212 48.5t175 134.5q0 2 9 11t19.5 21.5t19.5 26.5t11 27q2 14 -13.5 32.5t-29.5 18.5q-10 0 -12 -8q-41 -68 -115 -113t-149 -45q-59 0 -97.5 21.5t-59 58.5t-27.5 84t-5 98q117 0 223.5 37t190.5 105.5t139.5 166.5 t67.5 219zM973 614q-8 -70 -27.5 -156.5t-58.5 -163.5t-100.5 -129t-153.5 -52t-143.5 50t-75 124.5t-25.5 159.5t4 157q8 76 28.5 165t62.5 166t106.5 129t163.5 52q88 0 135 -54t68.5 -132t21.5 -164t-6 -152zM1599 874q-8 -76 -39.5 -146.5t-84 -124.5t-121 -87 t-148.5 -33q-35 0 -42 21.5t-3 50.5q4 39 11.5 96.5t20.5 122t34.5 129t52.5 115.5t73 84t97 33q49 0 81 -26t48 -63.5t20 -84t0 -87.5z" />
<glyph unicode="&#x178;" horiz-adv-x="1280" d="M1442 1466l10 82h-375l-10 -82h37q35 0 62.5 -10t23.5 -51q-2 -20 -28.5 -66.5t-65.5 -108t-87 -130t-92.5 -130t-81 -109.5t-55.5 -68l-22 -25q-76 199 -166 401.5t-203 378.5h-217l-10 -82h96q61 -215 142 -418.5t178 -402.5h2q-6 -59 -16.5 -118.5t-16.5 -118.5 q-8 -82 -14.5 -163t-12.5 -163h-141l-8 -82h493l8 82h-139q8 76 18.5 150.5t18.5 150.5q8 66 11 131.5t10 130.5h2l573 821h76zM1085 1866q2 18 0 41.5t-8 43t-20.5 34t-36.5 14.5q-23 0 -40 -14.5t-27.5 -34t-16.5 -42t-8 -40.5t-2 -41t5 -41.5t19.5 -30.5t38.5 -12 q25 0 42.5 11t28.5 29.5t17 40.5t8 42zM696 1868q2 16 1 38.5t-7 43t-19.5 35t-35.5 14.5q-25 0 -42.5 -13.5t-28.5 -34t-17 -43t-8 -40.5t-1 -40t7 -41.5t19.5 -31.5t37.5 -12q25 0 42.5 12t27.5 30.5t16 40.5t8 42z" />
<glyph unicode="&#x2c6;" horiz-adv-x="1441" d="M1143 1749q0 8 -11.5 41t-25.5 70.5t-28.5 71.5t-20.5 48q-4 6 -17.5 41t-30 75t-31.5 72t-22 32h-26t-27 -2q-10 -10 -39.5 -47t-67.5 -86.5t-79 -104.5t-76 -103.5t-58.5 -83t-23.5 -40.5q-2 -12 12 -13h13q16 0 25 1t16.5 5.5t13.5 12.5l18 24l211 275h33l92 -266 q6 -16 9.5 -26.5t8.5 -17t14 -8.5t26 -2h16q23 0 47.5 4t28.5 27z" />
<glyph unicode="&#x2dc;" horiz-adv-x="1441" d="M1200 1595l-41 39q-35 -23 -61.5 -43t-71.5 -20q-41 0 -77 12t-71.5 26.5t-72.5 27t-76 12.5q-35 0 -67.5 -18.5t-62.5 -46.5t-55.5 -58.5t-45.5 -55.5h-2l43 -32q31 33 58.5 50t72.5 17q35 0 65.5 -10t61 -23.5t61.5 -23.5t66 -10q43 0 80.5 13t71.5 35.5t64.5 50 t59.5 58.5z" />
<glyph unicode="&#x2000;" horiz-adv-x="1151" />
<glyph unicode="&#x2001;" horiz-adv-x="2302" />
<glyph unicode="&#x2002;" horiz-adv-x="1151" />
<glyph unicode="&#x2003;" horiz-adv-x="2302" />
<glyph unicode="&#x2004;" horiz-adv-x="767" />
<glyph unicode="&#x2005;" horiz-adv-x="575" />
<glyph unicode="&#x2006;" horiz-adv-x="383" />
<glyph unicode="&#x2007;" horiz-adv-x="383" />
<glyph unicode="&#x2008;" horiz-adv-x="287" />
<glyph unicode="&#x2009;" horiz-adv-x="460" />
<glyph unicode="&#x200a;" horiz-adv-x="127" />
<glyph unicode="&#x2010;" horiz-adv-x="919" d="M797 555l14 139h-578l-14 -139h578z" />
<glyph unicode="&#x2011;" horiz-adv-x="919" d="M797 555l14 139h-578l-14 -139h578z" />
<glyph unicode="&#x2012;" horiz-adv-x="919" d="M797 555l14 139h-578l-14 -139h578z" />
<glyph unicode="&#x2013;" horiz-adv-x="980" d="M797 555l14 139h-578l-14 -139h578z" />
<glyph unicode="&#x2014;" horiz-adv-x="1560" d="M1378 555l15 139h-1160l-14 -139h1159z" />
<glyph unicode="&#x2018;" horiz-adv-x="401" d="M592 1915q2 10 0 26.5t-17 16.5q-14 0 -27 -9.5t-24 -19.5h-2q-57 -39 -110.5 -97t-96.5 -127t-71.5 -140.5t-34.5 -137.5q-2 -25 0 -51t12 -47.5t28.5 -35t49.5 -13.5t53.5 14.5t38 36t23.5 49t12 52.5q4 47 0 93t0 93q4 33 16.5 70.5t31 74.5t43 69t52.5 54 q6 6 14.5 12.5t8.5 16.5z" />
<glyph unicode="&#x2019;" horiz-adv-x="464" d="M528 1804q2 25 0 52.5t-11 49t-27.5 36t-49.5 14.5t-53 -14.5t-37.5 -36t-24 -48t-10.5 -51.5q-6 -47 -2 -93t0 -93q-8 -72 -47 -147.5t-98 -122.5v-2q0 -2 -2 0q-20 -14 -21 -33q-2 -10 3.5 -23.5t15.5 -13.5q12 0 28.5 9t26.5 18q57 39 110.5 97t94.5 124.5t68.5 138 t35.5 139.5z" />
<glyph unicode="&#x201a;" horiz-adv-x="407" d="M356 168q2 25 1 52.5t-10 49t-28.5 35.5t-50.5 14q-29 0 -51 -14t-38.5 -36.5t-26 -49t-11.5 -51.5q-4 -47 1 -93t1 -93q-10 -88 -56 -157t-112 -149q-2 -10 3.5 -23t15.5 -13q6 0 20.5 9t22.5 13q59 33 113.5 92.5t98.5 130t72.5 145.5t34.5 138z" />
<glyph unicode="&#x201c;" horiz-adv-x="843" d="M1032 1919q2 8 -2 24.5t-14 16.5q-8 0 -22.5 -9t-22.5 -14h-2q-55 -33 -110.5 -93t-99.5 -131t-74 -145.5t-36 -135.5q-4 -27 -2 -53.5t11.5 -48t29 -36t49.5 -14.5q31 0 53.5 14.5t38 36t23.5 49t12 52.5q4 47 0 92t0 92q8 74 47 145.5t97 124.5l1 1t3 1q8 4 14 12.5 t6 18.5zM592 1915q2 10 0 26.5t-17 16.5q-14 0 -27 -9.5t-24 -19.5h-2q-57 -39 -110.5 -97t-96.5 -127t-71.5 -140.5t-34.5 -137.5q-2 -25 0 -51t12 -47.5t28.5 -35t49.5 -13.5t53.5 14.5t38 36t23.5 49t12 52.5q4 47 0 93t0 93q4 33 16.5 70.5t31 74.5t43 69t52.5 54 q6 6 14.5 12.5t8.5 16.5z" />
<glyph unicode="&#x201d;" horiz-adv-x="843" d="M528 1804q2 25 0 52.5t-11 49t-27.5 36t-49.5 14.5t-53 -14.5t-37.5 -36t-24 -48t-10.5 -51.5q-6 -47 -2 -93t0 -93q-8 -72 -47 -147.5t-98 -122.5v-2q0 -2 -2 0q-20 -14 -21 -33q-2 -10 3.5 -23.5t15.5 -13.5q12 0 28.5 9t26.5 18q57 39 110.5 97t94.5 124.5t68.5 138 t35.5 139.5zM967 1804q2 25 0 51.5t-11.5 49t-28 37t-48.5 14.5q-29 0 -51.5 -14.5t-38 -36t-24.5 -48t-11 -51.5q-6 -47 -2 -94t0 -94q-6 -66 -33 -118t-56.5 -91t-53 -61.5t-23.5 -26.5q-2 -10 0 -26.5t16 -16.5q12 0 27.5 10t25.5 17q57 39 110.5 97t95.5 124.5t70 138 t36 139.5z" />
<glyph unicode="&#x201e;" horiz-adv-x="843" d="M356 170q2 25 1 52.5t-10 49t-27.5 36t-49.5 14.5t-53 -14.5t-37.5 -36t-25 -48t-11.5 -51.5q-4 -47 0 -93t0 -93q-8 -72 -47 -148t-96 -123v-2q0 -2 -2 0q-18 -10 -23 -32q0 -10 4.5 -23.5t14.5 -13.5t27.5 9t27.5 17q57 39 109.5 97.5t94.5 125t69.5 138t33.5 139.5z M795 170q2 25 1 51.5t-10.5 49t-28 37t-48.5 14.5q-29 0 -51.5 -14.5t-38 -36t-25.5 -48t-12 -51.5q-4 -47 0 -94t0 -94q-6 -66 -34 -118t-56.5 -91t-52 -61.5t-23.5 -26.5q-2 -10 -1 -26.5t15 -16.5q12 0 28.5 10t26.5 16q57 39 110.5 97.5t95.5 125t70 138t34 139.5z" />
<glyph unicode="&#x2022;" horiz-adv-x="858" d="M819 612q6 68 -11 131.5t-56 112.5t-96.5 79t-127.5 30q-72 0 -134 -30t-111.5 -79t-80 -112.5t-36.5 -131.5q-8 -68 9.5 -132t56 -113.5t95 -79t128.5 -29.5t134 29.5t111.5 79t80 113.5t38.5 132z" />
<glyph unicode="&#x2026;" horiz-adv-x="1486" d="M1294 152q2 23 1 53.5t-8 57t-24.5 45t-48.5 18.5q-33 0 -55 -19.5t-36.5 -47.5t-21.5 -60.5t-9 -57.5q-4 -27 -3 -56.5t8 -55t25.5 -42t53.5 -16.5q31 0 52 19.5t35.5 47.5t21.5 58.5t9 55.5zM412 152q2 23 1 53.5t-8.5 57t-25 45t-47.5 18.5q-33 0 -55.5 -19.5 t-37 -47.5t-21.5 -60.5t-9 -57.5q-4 -25 -3 -54.5t9 -55t26.5 -43t51.5 -17.5q31 0 52.5 19.5t35.5 47.5t21.5 58.5t9.5 55.5zM852 152q2 23 2 53q0 31 -8 57.5t-24.5 45t-47.5 18.5q-35 0 -57.5 -19.5t-35.5 -47.5t-20.5 -60.5t-9.5 -57.5q-4 -25 -3 -54.5t8.5 -55 t25.5 -43t51 -17.5t54.5 19.5t35 47.5t20.5 58.5t9 55.5z" />
<glyph unicode="&#x202f;" horiz-adv-x="460" />
<glyph unicode="&#x2039;" horiz-adv-x="522" d="M752 1151q0 6 -6.5 17.5t-16.5 22.5t-20.5 20.5t-16.5 9.5l-2 -2l-246 -258q-78 -80 -153.5 -162t-157.5 -156l-30.5 -30.5t-22.5 -34.5q-2 -10 18.5 -47t51 -88.5t68.5 -112t73 -114.5t62.5 -98t37.5 -65q16 -29 30.5 -41t51.5 -12h129q8 0 17.5 2t9.5 10q2 6 -3 14.5 t-5 14.5q-104 141 -203 284.5t-185 297.5q16 16 61.5 60t103 99.5t119 115.5t113.5 113.5t87 91.5t35 48z" />
<glyph unicode="&#x203a;" horiz-adv-x="522" d="M563 625q4 18 -3 28.5l-15 22.5l-23 37q-22 37 -56 93t-73 120.5t-75.5 123t-64.5 100.5t-36 50q-16 2 -31 2h-28h-107q-4 0 -19.5 -1t-17.5 -11q0 -6 14.5 -30.5t37 -57.5t49 -72t52.5 -73.5t45 -61.5t28 -37q47 -66 89 -135.5t81 -140.5q-16 -18 -60.5 -61.5 t-100.5 -98.5t-118.5 -115.5t-114 -114t-86 -92.5t-34.5 -49q0 -8 7 -19.5t17 -22.5t21.5 -18t19.5 -9q131 147 268.5 291.5t280.5 281.5q12 12 31.5 33t21.5 37z" />
<glyph unicode="&#x205f;" horiz-adv-x="575" />
<glyph unicode="&#x20ac;" horiz-adv-x="1308" d="M834 461l16 164h-438q0 47 3 93t7 91l2 25h475l16 161h-464q20 92 54 179.5t89 157t134 111.5t187 42q68 0 119 -9.5t86 -33t53.5 -66.5t24.5 -110q2 -16 3 -35t7 -35t17.5 -26.5t34.5 -10.5q6 0 14 -1t18 -1q12 0 21.5 4t11.5 19l29 288q4 23 2 36.5t-21 25.5 q-20 14 -66 25.5t-98.5 20.5t-101.5 14t-76 5q-139 0 -253.5 -49t-205 -131t-157 -191.5t-109.5 -228.5h-104l-17 -161h74q-10 -41 -15 -80t-9 -78l-7 -51h-129l-16 -164h145q8 -106 39 -196.5t91.5 -156t152.5 -102.5t223 -37q125 0 246 43t221 131q10 8 26.5 24.5t34 35 t30 37t12.5 30.5q2 12 -13.5 32t-29.5 20q-2 0 -2 -3h-2q-47 -43 -92.5 -81.5t-93.5 -67.5t-102 -46.5t-118 -17.5q-92 0 -159.5 28t-113.5 76t-74 112.5t-40 138.5h408z" />
<glyph unicode="&#x2122;" horiz-adv-x="2314" d="M2378 729l6 70h-17q-37 0 -56 5t-29.5 17.5t-13.5 34t-7 53.5q-4 31 -9 74t-10.5 94t-11.5 104.5t-12 106.5q-6 51 -11 99.5t-9.5 85t-7.5 60t-3 28.5q-2 23 -9 77t-14 112t-14.5 106.5t-9.5 56.5h-229l-6 -70h143q-53 -123 -109.5 -245.5t-109.5 -235.5l-98 -210 t-53.5 -110.5t-23.5 -43t-9 -7.5l-9 2l-2 2v4q-18 59 -31.5 119t-23.5 119q-8 35 -14 67.5t-13 67.5v2q-23 125 -49 257t-73 282h-199l-6 -70h112l-284 -911q-16 -57 -45 -95t-95 -38l-6 -70h297l6 70h-96l-8 12l244 860q33 -244 69.5 -480.5t93.5 -426.5q10 -35 24.5 -40 t53.5 -5q25 0 37 6t27 37l370 876l76 -827l-12 -12h-86l-6 -70h381zM358 735h369l8 70h-102l-10 10q16 94 32.5 190.5t26.5 192.5q12 123 18.5 235.5t10.5 229.5q2 39 3 79t5 81l80 10q55 0 110.5 -5t75.5 -34l2 -2q4 -10 7 -29.5t1 -36.5q4 -41 19.5 -73.5t62.5 -32.5 q20 0 27 22q4 33 4 66t-2 68q-2 33 -1 65.5t5 67.5q2 18 -12 18q-113 0 -219 -6q-55 -2 -109.5 -4t-107.5 -2q-47 0 -98.5 1t-104.5 3q-47 2 -97 2h-90q-12 0 -15 -7t-5 -18q-2 -16 -9 -41.5t-14 -42.5q-14 -47 -25 -90t-16 -84q-2 -12 9.5 -14t23.5 -2q43 0 59.5 25.5 t20.5 58.5q4 20 11 43t22.5 41t42 29.5t72.5 11.5l151 -12q-33 -158 -59.5 -314.5t-42.5 -316.5q-10 -92 -15.5 -186.5t-7.5 -186.5l-10 -10h-98z" />
<glyph unicode="&#x25fc;" horiz-adv-x="1198" d="M0 1198h1198v-1198h-1198v1198z" />
</font>
</defs>
</svg>
