<?xml version="1.0" standalone="no"?>
<!DOCTYPE svg PUBLIC "-//W3C//DTD SVG 1.1//EN" "http://www.w3.org/Graphics/SVG/1.1/DTD/svg11.dtd" >
<svg xmlns="http://www.w3.org/2000/svg" xmlns:xlink="http://www.w3.org/1999/xlink" version="1.1">
<metadata></metadata>
<defs>
<font id="devroye_extraregular" horiz-adv-x="1118" >
<font-face units-per-em="2048" ascent="1638" descent="-410" />
<missing-glyph horiz-adv-x="598" />
<glyph horiz-adv-x="0" />
<glyph unicode="&#xd;" horiz-adv-x="598" />
<glyph unicode=" "  horiz-adv-x="598" />
<glyph unicode="&#x09;" horiz-adv-x="598" />
<glyph unicode="&#xa0;" horiz-adv-x="598" />
<glyph unicode="!" horiz-adv-x="1570" d="M1026 1554q-18 78 -63 127.5t-107.5 72t-136.5 19t-148 -27.5q-84 -27 -161.5 -78t-135 -119.5t-84 -150.5t-4.5 -172q6 -27 18.5 -52.5t31 -44t44 -25.5t60.5 3q16 6 35.5 16.5t35 24.5t24.5 32.5t5 37.5q-6 18 -20 31.5t-30.5 26.5t-32 31.5t-21.5 49.5q-10 43 -1 83 t33.5 74.5t60.5 60t77 40.5q66 20 120 13t96 -36.5t69.5 -78t39.5 -105.5q18 -78 10.5 -163t-30.5 -172t-52.5 -174t-53 -170t-33.5 -158.5t4 -141.5q12 -57 56 -86t108 -8q55 18 67.5 58t1.5 87q-10 59 -21 114.5t-24 113.5q-14 70 -2 140.5t35 140t52.5 140t52 141 t31.5 142t-7 143.5zM1602 1397l12 28q12 27 27.5 66t27.5 76t16.5 67.5t-8.5 42.5q-12 14 -27.5 20.5t-31.5 14.5q-39 12 -68.5 0t-53 -37.5t-42 -59.5t-31.5 -63q-119 -274 -214 -548.5t-197 -548.5q-6 -14 -13.5 -35t-9.5 -40.5t4 -34.5t27 -21q23 -10 38 4t27 32 q39 55 68 115t57 119q102 199 203 398.5t189 404.5zM975 8q2 23 2 53q0 31 -7 58.5t-23.5 46t-47.5 18.5q-33 0 -55.5 -19.5t-36.5 -47t-21.5 -60t-9.5 -57.5q-4 -25 -3 -54.5t9.5 -56t25.5 -44t50 -17.5q31 0 52.5 19.5t34.5 47t20.5 59t9.5 54.5z" />
<glyph unicode="#" horiz-adv-x="2111" d="M1681 35q2 4 2 14q0 12 -8 12q-25 0 -50.5 -1t-51.5 -1q-33 0 -65.5 4.5t-63.5 16.5l143 1386h144l10 82h-420l-10 -82h180l-137 -1321q-80 74 -147.5 172.5t-127 207t-112 219t-99.5 208.5q-74 152 -150.5 300.5t-154.5 295.5h-268l-10 -82h151l-143 -1384h-152l-8 -82 h397l9 82h-154l125 1204l31 -96q37 -117 83 -228.5t95 -222.5q57 -125 125.5 -260t161 -246.5t214 -183.5t285.5 -72h27q20 0 45 1.5t48.5 7.5t38.5 17.5t17 31.5zM2128 1030q4 39 -1 76t-23.5 64.5t-48.5 44t-75 16.5q-55 0 -99 -27.5t-74.5 -70.5t-49 -94.5t-24.5 -98.5 q-8 -80 26.5 -138.5t122.5 -58.5q57 0 100 27t74 69t48.5 92t23.5 99zM2042 975q-2 -25 -9.5 -55.5t-21.5 -58t-35.5 -46t-54.5 -18.5q-37 0 -58.5 21.5t-31.5 52t-12 66.5t2 64q2 27 9 58t22.5 56.5t38 43t57.5 17.5t55 -21.5t29.5 -52.5t10.5 -65.5t-1 -61.5zM2058 352 l17 140h-387l-17 -140h387z" />
<glyph unicode="0" horiz-adv-x="1323" d="M1356 1018q14 117 -6.5 219t-75.5 180t-144.5 123t-214.5 45q-145 0 -266 -58.5t-210 -155.5t-144 -223t-72 -259q-12 -115 5.5 -218.5t69.5 -182t138 -125t213 -46.5q154 0 277 56.5t213 152t145.5 222.5t71.5 270zM1147 928q-10 -86 -37 -174t-75 -158t-120.5 -114 t-177.5 -44q-104 0 -168.5 49.5t-96.5 125t-37 167.5t7 181q10 82 37 173t75 166.5t119.5 126t172.5 50.5q109 0 173 -53.5t96 -134.5t37 -177t-5 -184zM788 109q2 14 1 33.5t-9 37t-25.5 29.5t-47.5 12q-35 0 -57.5 -12t-37 -30.5t-20.5 -39t-8 -37.5q-2 -16 -1 -35.5 t9 -37t26.5 -28.5t53.5 -11q31 0 52 12t34.5 30.5t20.5 39.5t9 37z" />
<glyph unicode="1" horiz-adv-x="1187" d="M1118 346q2 14 1 20.5t-17 6.5q-53 0 -80 -19.5t-41 -50.5t-25.5 -64.5t-35 -64.5t-66.5 -50.5t-121 -19.5q-57 0 -104 -2t-78 8.5t-44 40t-5 93.5q37 309 66.5 611t58.5 611h198l11 82h-474l-10 -82h137q-53 -240 -94 -475t-69 -477q-12 -111 -20.5 -216t-16.5 -216 h-107l-8 -82h840q16 0 19 14.5t7 24.5q18 76 43 152.5t35 154.5zM1247 578l10 81h-135q10 74 16.5 115t12.5 76t12 76t15 114q8 66 12 105t5 63.5t1 40.5v43q0 27 2 65t8 105h131l9 82h-406l-8 -82h133q-2 -6 -2 -12t-2 -12t-2 -13q0 -6 -2 -12q-16 -70 -27.5 -110.5 t-18.5 -68.5t-12.5 -48.5t-10.5 -48t-12 -69.5t-18 -112q-6 -63 -8 -94t-2 -55v-53q0 -31 -4 -95h-106l-11 -81h420z" />
<glyph unicode="2" horiz-adv-x="1990" d="M1901 2q18 0 34.5 49t29.5 110.5t23.5 118t16.5 68.5q-51 23 -77.5 14.5t-43 -36t-31 -65.5t-40 -71.5t-68.5 -58.5t-119 -25q-104 0 -178 3.5t-90 23.5q-10 33 -7 103.5t13 158.5t23.5 182.5t21.5 176.5h367q33 0 51 11t22 46l9 66h-435q8 135 22.5 276t24.5 283 q10 0 32 2t46.5 3t49 3t40.5 2h152q70 0 97.5 -19.5t33.5 -91.5v-41q0 -23 4 -44t15.5 -36.5t35.5 -15.5q37 0 50.5 1t17.5 44q16 102 24.5 163.5t11.5 93.5t1 41t-8 9h-865l2 -2h-2l-10 -80h133l4 -2q-35 -147 -63.5 -295.5t-48.5 -296.5h-654q33 295 56 590h129l10 82 l-404 2l-10 -82h137q-49 -223 -88 -440t-67 -440q-14 -129 -25.5 -252t-19.5 -252h-107l-8 -82h420l8 82h-135q16 86 28.5 169t22.5 169l43 338h645q-25 -111 -36 -222.5t-17 -222.5q-4 -59 -8 -115.5t-8 -113.5h-107l-8 -84z" />
<glyph unicode="3" horiz-adv-x="2201" d="M2198 2l-13 72q-25 -8 -59 -8q-59 0 -96 43t-60.5 110.5t-41 148.5t-39 158.5t-52.5 140t-82 91.5q160 61 256 159.5t117 266.5q14 111 -9.5 183.5t-76.5 115.5t-135 60.5t-183 17.5q-117 0 -231.5 -5.5t-230.5 -7.5h-52l-10 -82h137q-35 -150 -64.5 -319.5t-53.5 -317.5 h-652q16 150 33.5 319t30.5 318h131l10 82h-410l-10 -82h137q-27 -109 -47 -211t-38.5 -203.5t-34 -204t-29.5 -212.5q-14 -129 -28.5 -276.5t-22.5 -276.5h-107l-8 -82h420l8 82h-135q25 127 41 239.5t29 229.5q4 39 10 80t10 82h643q-12 -61 -20.5 -115.5t-13.5 -105 t-8 -101.5t-7 -108q-4 -51 -8 -101.5t-6 -99.5h-107l-8 -82h422l8 82h-135q12 72 24.5 152.5t24.5 162.5t22.5 163t18.5 155q43 0 88 2t98 2q14 -63 31.5 -143t42.5 -163t57.5 -162t77.5 -140.5t103.5 -99.5t134.5 -38q41 0 80 8.5t78 20.5zM1907 1118 q-20 -164 -105.5 -232.5t-251.5 -68.5q-33 0 -65.5 5t-63.5 3q10 84 17.5 161t13.5 151.5t11 152.5t12 162q25 -2 50 1t52 3q186 0 269.5 -74t60.5 -264z" />
<glyph unicode="4" horiz-adv-x="1740" d="M1692 864q18 150 -8.5 283t-97 233.5t-185.5 158.5t-275 58q-188 0 -342.5 -76.5t-269.5 -202.5t-185.5 -289t-90.5 -335q-18 -147 5 -279t89.5 -232.5t178.5 -160t271 -59.5q197 0 355.5 71.5t274.5 194.5t186.5 287t93.5 348zM1450 745q-14 -117 -50 -234.5 t-101.5 -212.5t-166 -154.5t-241.5 -59.5q-143 0 -230.5 65.5t-131.5 169t-51 228.5t9 244q12 111 49 233.5t104 225t165 170t235 67.5q98 0 169 -33t120 -89t78 -130t41 -156t12 -168t-10 -166zM1116 289l10 82h-135q10 74 16.5 114.5t12.5 75.5t12 76t15 115q12 98 16 152 t5 92t1 75t4 103h131l10 81h-405l-10 -81h133q-2 -31 -10.5 -64t-20.5 -81t-26.5 -117.5t-28.5 -172.5q-6 -61 -12 -106q-4 -33 -6.5 -59.5t-5.5 -56.5t-5 -64.5t-4 -81.5h-106l-11 -82h420z" />
<glyph unicode="5" horiz-adv-x="1648" d="M1616 821q25 197 -17.5 341.5t-138.5 238.5t-243.5 139t-333.5 45q-131 0 -261 -16.5t-262 -38.5v-80q35 8 74 12t82 4q-53 -242 -95 -476t-71 -476q-12 -111 -20 -216t-15 -216h-110l-8 -82q111 0 219 -5t219 -5h59q190 0 350 59.5t280 168t194.5 262t97.5 341.5z M1403 705q-16 -137 -63.5 -249t-126 -191t-190.5 -122t-255 -43q-18 0 -52 1t-70 4.5t-66.5 11.5t-40.5 24q-14 23 -12.5 63t5.5 66q25 211 46.5 415t46.5 415q12 94 22 187t12 188q195 0 344.5 -44.5t247 -138.5t137.5 -239t15 -348zM1081 270l9 82h-136q12 74 19.5 115 t13.5 76t11.5 75.5t13.5 114.5q12 98 16 152.5t5 92.5t1 75t4 102h131l11 82h-398l-10 -82h133q-4 -31 -13 -63.5t-21.5 -80.5t-26 -118t-25.5 -172q-6 -61 -12 -107q-4 -33 -6 -59.5t-5 -56t-6.5 -64.5t-5.5 -82h-106l-8 -82h411z" />
<glyph unicode="6" horiz-adv-x="2054" d="M2169 1188q12 92 7 177t5 177q2 18 -14 19q-141 0 -283.5 -7.5t-284.5 -7.5h-114h-55q-27 0 -56 2q-111 2 -171 3t-89 1q-31 0 -35 -2q-6 0 -77.5 -3t-213.5 -3q-129 0 -257 4t-257 4q-12 0 -14 -9t-4 -17q-2 -25 -11 -51.5t-18 -51.5q-18 -59 -37.5 -120.5t-25.5 -120.5 q-4 -10 14.5 -12.5t32.5 -2.5h14q33 0 48.5 20.5t24.5 51.5t17.5 65.5t27.5 65.5t56 51.5t105 20.5q25 0 50.5 1t49.5 1h111q-47 -215 -86 -425t-66 -427q-16 -129 -27.5 -255t-17.5 -255h-143l-8 -82h477l8 82h-147q27 129 49 260t37 262q25 199 28.5 396.5t28.5 396.5 l4 47h74h39q18 0 39 2q74 4 122 6t78 2q33 0 53.5 -2t41 -3t47 -2t69.5 -1h111q-49 -215 -88 -425t-66 -427q-16 -129 -26.5 -255t-18.5 -255h-143l-8 -82h477l8 82h-148q27 129 49.5 260t39.5 262q23 199 26.5 396.5t28.5 396.5l6 47q37 0 75 1t74 1h50q20 0 43.5 -2t45 -7 t39 -12.5t25.5 -19.5q14 -23 17.5 -61.5t8.5 -78.5t17.5 -69t42.5 -29q16 0 39 -2t29 21z" />
<glyph unicode="7" horiz-adv-x="1906" d="M1925 -2l10 82q-53 0 -84.5 17.5t-51 47t-29 67.5t-17.5 81q-70 297 -136.5 587.5t-146.5 585.5h46l10 82h-264l-11 -84h70q-270 -547 -424 -846t-186 -358q-61 313 -138 647t-155 641h-209l-10 -82h106q31 -352 85 -690t136 -676q4 -12 8.5 -30.5t11.5 -37t18 -30.5 t30 -12q39 0 71.5 4t55.5 45l289 592h456q31 -141 59.5 -277.5t65.5 -273.5h-121l-10 -82h465zM1444 737h-381l283 582z" />
<glyph unicode="8" horiz-adv-x="1845" d="M2048 1466l10 82l-471 2l-10 -84q37 0 71.5 -4t60.5 -18t40 -41t10 -72q-4 -35 -34.5 -111.5t-75.5 -175t-99.5 -209t-106.5 -211t-95 -182.5t-66 -123l-31 -53q0 8 -1 14.5t-3 14.5q-70 317 -139.5 629.5t-151.5 623.5h-303l-10 -82h182l-602 -1218q-18 -37 -35.5 -66.5 t-41 -52.5t-55.5 -35t-75 -12l-8 -82h379l8 82h-139l254 551h461q31 -141 60.5 -277.5t64.5 -273.5q2 -37 24.5 -59.5t69.5 -22.5q35 0 57.5 33t59.5 104l651 1329h90zM948 739h-381l283 592z" />
<glyph unicode="9" horiz-adv-x="1955" d="M1929 911q18 8 24.5 18.5t1.5 17.5t-19.5 8t-32.5 -7q-80 -31 -135.5 -52.5t-92.5 -30.5t-59.5 -6t-34.5 22q-18 27 -50 51t-68 40.5t-74.5 27t-71.5 10.5q-39 0 -65.5 -6.5t-51 -14.5t-51.5 -14t-66 -6q-49 -4 -79.5 16.5t-49 57t-24.5 87t-6 107.5q0 78 9 120t40 73 q33 -8 73.5 0t75.5 29.5t57.5 53t16.5 68.5q-14 51 -46 70.5t-76 22.5t-94 -2t-101.5 -1t-98.5 24.5t-84 76.5q-25 37 -44 78.5t-52 62.5q-29 35 -55.5 37t-48 -10.5t-38 -31t-24.5 -26.5q-16 -16 -9 -47t20.5 -62.5t25.5 -60.5t8 -37q-63 -25 -96 -60.5t-46 -76.5t-12 -86 t3 -88t0 -83t-21 -71q-31 -51 -81 -98t-96 -95t-74.5 -99.5t-14.5 -112.5q0 -23 17.5 -61.5t53 -77.5t89 -68t127.5 -29q78 0 118.5 20.5t59 53.5t20.5 75t3 87t6.5 88t31 78t77.5 58.5t147 27.5q14 -31 33.5 -55.5t38 -47t30.5 -48t12 -62.5q-29 -55 -78 -106.5 t-106 -101.5t-116.5 -99.5t-105.5 -99.5t-73 -101t-20 -107q35 -66 103.5 -80t139.5 33q0 31 -3 55.5t-4 47t3 44t19 50.5l43 72q31 -74 37 -135.5t1.5 -115t-13.5 -101.5t-9 -95h154q12 57 9 114.5t-9.5 110t-9.5 96.5t10.5 75.5t48.5 50t104 18.5q39 0 55.5 1t20.5 -1 t3 -8t5 -19q-23 -61 -10.5 -127.5t36 -133t47 -131t23.5 -124.5q84 -2 110 24.5t17.5 72t-36 101.5t-50 115.5t-26.5 115t37 96.5q10 -10 25.5 -50.5t33.5 -93.5t40.5 -113.5t47.5 -110.5t50.5 -83t51.5 -33q39 0 60.5 7.5t34 16.5t20.5 16t25 7q-2 12 1 23.5t5 23t0 23.5 t-17 29q-51 2 -91 16t-68.5 48t-49 90.5t-32.5 142.5q80 29 121 78t61.5 104t29.5 107.5t23 84.5zM623 1319q33 61 66.5 101t66.5 26q31 -16 30 -70q0 -55 -32 -112q-33 -59 -77 -87t-77 -12q-31 16 -20.5 55.5t43.5 98.5zM457 1419q31 61 72.5 96t70.5 21q29 -16 17.5 -60 t-42.5 -108q-35 -61 -63.5 -105t-58.5 -30q-29 16 -28 69.5t32 116.5zM289 774q20 39 42.5 64.5t41.5 15.5q20 -8 20 -45q0 -35 -20 -70q-23 -39 -50.5 -56t-48.5 -7q-20 10 -14 35.5t29 62.5zM195 840q20 39 45.5 61.5t46.5 11.5q18 -10 11 -37.5t-28 -68.5 q-20 -41 -39.5 -68.5t-37.5 -17.5q-18 8 -19 43q1 37 21 76zM643 1290q0 -18 10.5 -30.5t26.5 -12.5t26.5 12.5t10.5 30.5t-10.5 31.5t-26.5 13.5t-26.5 -13.5t-10.5 -31.5zM477 1389q0 -16 10.5 -28.5t26.5 -12.5t27.5 12t11.5 29q0 16 -11.5 28.5t-27.5 12.5t-26.5 -12.5 t-10.5 -28.5z" />
<glyph unicode="&#x3c;" d="M123 915q2 6 3 13.5t7 11.5l1026 608l84 -135l-837 -498l729 -491l-107 -133l-901 602q-4 6 -4 22zM805 -4l-713 489l101 129l718 -485z" />
<glyph unicode="=" horiz-adv-x="1538" d="M1497 809l16 162h-446l102 233h-145l-102 -233h-697l-16 -162h641l-184 -416h-500l-19 -164h445l-100 -229h147l100 229h697l18 164h-641l182 416h502z" />
<glyph unicode="&#x3e;" d="M1214 915q2 6 1 13.5t-7 11.5l-895 608l-112 -135l731 -498l-832 -491l78 -133l1028 602q8 12 8 22zM340 -4l815 489l-72 129l-821 -485z" />
<glyph unicode="?" horiz-adv-x="1538" d="M1438 227l16 164q-61 43 -135 66.5t-153 26.5t-158.5 -14t-153.5 -54q-92 -49 -187.5 -79t-185.5 -35t-171 16.5t-144 74.5l-19 -164q59 -51 133 -73.5t154 -22.5t161 19.5t155 54.5q92 55 187 82.5t184 31t170 -20.5t147 -73zM1499 807l17 162q-66 39 -139.5 59.5 t-151.5 23.5t-157 -12.5t-155 -48.5q-92 -49 -187 -77.5t-185 -32.5t-171 17.5t-145 72.5l-16 -162q59 -49 133 -71.5t154 -22.5t160.5 19.5t154.5 53.5q186 98 367.5 102.5t320.5 -83.5z" />
<glyph unicode="A" horiz-adv-x="1441" d="M485 1708q-74 -12 -154.5 -13t-156.5 -14.5t-141.5 -52.5t-106.5 -125q0 -23 -6 -52.5t-4 -39.5q-12 -37 -43 -47q-29 -27 -42 -58.5t-20.5 -65.5t-12.5 -67.5t-17 -66.5q-10 -41 -10 -78t6 -72.5t15 -70.5l18 -70q-6 -104 -7 -209q0 -102 -1 -206.5t-7 -209t-26 -210.5 q12 -14 22 -32t21.5 -34t27 -27.5t37.5 -11.5q190 -59 393 -71.5t411 -6.5t416 16.5t408 -1.5q70 29 117 86t70.5 124.5t23.5 137.5q0 72 -22 131q-2 70 -22.5 135.5t-36 131t-14.5 133t40 138.5q8 51 18.5 104.5t14.5 106t-4.5 101.5t-34.5 92q-33 92 -86 178t-131 129 q-23 23 -31 58.5t-35 58.5q-61 68 -141 88t-168 20t-179 -8t-177 0q-53 -4 -103.5 -21.5t-103.5 -27.5h-15zM967 0l8 82h121q-35 137 -65 273.5t-60 277.5h-461l-254 -551h139l-8 -82h-379l8 82q43 0 75 12t55.5 35t41 52.5t35.5 66.5l602 1218h-182l10 82h301 q88 -313 160 -623.5t143 -629.5q8 -43 17.5 -81t29 -67.5t51 -47t85.5 -17.5l-8 -82h-465zM948 739h-381l283 592z" />
<glyph unicode="B" horiz-adv-x="1335" d="M176 1638h23q-41 -76 -54.5 -156.5t-13.5 -164.5t7 -169t7 -169t-13 -165t-52 -155q-41 -84 -61.5 -185t-28.5 -207.5t-8 -213.5q0 -106 2 -198q92 -86 181 -123t178 -44t181 7t191.5 31.5t208 27.5t229.5 -4q51 -2 99 11.5t98 33.5q10 4 18 14.5t10 18.5 q23 94 44.5 189.5t34.5 190.5t15.5 189.5t-14.5 186.5q4 123 24.5 244.5t45 242.5t46 242t28.5 243q-72 41 -145 82t-149.5 72t-159.5 46.5t-175 4.5q-78 -2 -156 -5t-155 1q-66 -35 -122.5 -45t-111.5 -8t-112.5 9t-125.5 7q-23 0 -36 -12t-15 -29q0 -14 7 -27.5t30 -13.5z M1264 485q-14 -123 -80 -216t-160 -155.5t-206.5 -93t-223.5 -30.5h-53q-92 0 -183.5 5t-183.5 5l10 86h107q6 106 14 213t21 213q29 242 68.5 478.5t99.5 475.5h-142l10 82q137 0 272.5 4t272.5 4q80 0 146.5 -18t111.5 -58t66.5 -102.5t11.5 -148.5q-14 -113 -79.5 -202 t-176.5 -136h-6l-2 -12h8q154 -27 225.5 -132.5t51.5 -261.5zM1042 428q-18 -154 -107 -243t-249 -89q-53 0 -91 4t-60.5 21.5t-29.5 50.5t-1 88l63 533q29 -2 57.5 1t57.5 3q92 0 164 -21.5t120 -66.5t68 -115t8 -166zM1032 1176q-10 -90 -37.5 -144.5t-72.5 -85.5 t-107.5 -41t-142.5 -10h-94q16 141 29.5 279.5t23.5 279.5q33 0 65.5 2t65.5 2q143 0 215.5 -66t54.5 -216z" />
<glyph unicode="C" horiz-adv-x="1308" d="M55 1694q4 -61 4 -127t35 -117q20 -59 6 -126t-57 -122q-35 -92 -47 -188t-29 -191q6 -35 26.5 -69.5t14.5 -71.5q-4 -25 -26 -45q-35 -37 -47.5 -79t-14.5 -87t-1 -91t-7 -89q0 -33 -8 -64.5t-13.5 -63.5t-4.5 -62.5t20 -59.5q10 -35 18 -75t23.5 -74.5t41 -60.5 t70.5 -32q162 -20 327 -30.5t337 -10.5q342 0 680 68q49 45 58 96t2 107.5t-16 114t3 114.5q55 66 72.5 148.5t21.5 160.5q-4 33 -11 65t-15 64v-10q-2 25 2 49.5t6 48.5q10 51 -19 93q2 39 33 78.5t63.5 80.5t54 80t5.5 74q2 53 -9.5 105.5t-19.5 105.5t-6 106.5t33 108.5 q12 39 10 72q0 12 -9 22t-22 12q-47 8 -96 6t-98 -2q-47 0 -92 9.5t-84 38.5q-102 41 -212 47t-222.5 -2.5t-225 -21.5t-221.5 -13q-72 -20 -141.5 -23.5t-141.5 -13.5q-18 4 -36.5 -11t-14.5 -42zM1272 270q-2 -12 -15.5 -30.5t-31 -37t-33.5 -34.5t-27 -25 q-104 -88 -224 -131t-245 -43q-162 0 -265 56.5t-158.5 153.5t-69 225t5.5 272q18 160 77.5 323.5t161 295.5t245 216t327.5 84q29 0 78 -5t101 -14t97 -21.5t66 -24.5q18 -12 19 -25.5t-1 -36.5l-34 -288q-2 -23 -29 -23q-10 0 -20.5 1t-18.5 1q-20 0 -31.5 10.5 t-17.5 26.5t-7 34.5t-1 35.5q-4 68 -22.5 110.5t-52.5 66t-85 33t-119 9.5q-137 0 -228 -65.5t-148.5 -166t-87 -219.5t-42.5 -225q-14 -117 -12 -241t41 -226t122 -169t228 -67q63 0 117.5 17.5t102.5 46.5t94.5 67.5t95.5 81.5q12 6 29.5 -14.5t17.5 -34.5z" />
<glyph unicode="D" horiz-adv-x="1648" d="M27 1667q-4 -20 1 -39.5t11 -38t8 -38t-6 -40.5q10 -61 -12.5 -124.5t-45 -126t-25.5 -121t46 -109.5q14 -131 -4 -274q-10 -104 -28.5 -210t-35 -210.5t-25.5 -205.5t1 -198q55 -59 121.5 -90.5t141.5 -47t155 -19.5t159.5 -9.5t157.5 -15.5t148 -37q135 -8 271 5.5 t271 50.5q35 20 70 44.5t69.5 46t72.5 37t79 15.5q61 45 97 104.5t59.5 126t38 136t32.5 133.5q10 45 8.5 87t-6 83t-6.5 83t9 87q8 88 18 180t13 183t-4 179t-32 172q-4 41 -0.5 84t9.5 86q-119 88 -262.5 115t-296.5 27q-154 0 -310.5 -11.5t-304.5 -1.5q-78 -20 -153 -20 q-76 0 -151 1t-149.5 -3t-150.5 -31h-4q-16 4 -36.5 -8t-18.5 -37zM1616 821q-23 -188 -97.5 -341.5t-194.5 -262t-279.5 -168t-350.5 -59.5h-59q-111 0 -219.5 5t-218.5 5l8 82h110q6 111 14.5 216t20.5 216q29 242 71 476.5t95 475.5q-43 0 -82 -4t-74 -12v80 q131 23 261.5 39t261.5 16q186 0 333.5 -45t243.5 -139t138.5 -238.5t17.5 -341.5zM1403 705q-16 -137 -63.5 -249t-126 -191t-190.5 -122t-255 -43q-18 0 -52 1t-70 4.5t-66.5 11.5t-40.5 24q-14 23 -12.5 63t5.5 66q25 211 46.5 415t46.5 415q12 94 22 187t12 188 q195 0 344.5 -44.5t247 -138.5t137.5 -239t15 -348z" />
<glyph unicode="E" horiz-adv-x="1269" d="M51 1075q12 -47 -4 -95t-40.5 -96t-44 -97.5t-13.5 -96.5q-6 -41 -9 -82t1 -81t17 -75.5t40 -64.5q-18 -25 -36.5 -53.5t-31 -59t-15.5 -61.5t11 -61q0 -14 5.5 -25.5t11.5 -23t10 -23.5t0 -27q-8 -31 -11 -64.5t4 -63t27.5 -50t57.5 -22.5q74 -43 161 -54.5t179 -12.5 t184 -5t174 -35q129 0 259 -5t259 1q41 31 76 74t56.5 91t25.5 98t-16 97q25 90 46 181.5t36.5 183.5t21.5 183t-2 181q-12 33 -21.5 65t-3.5 69q-27 92 -11.5 188t52.5 188q31 45 60.5 100.5t42 111t0 104.5t-65.5 82q-141 59 -294.5 69.5t-311.5 0t-316.5 -26t-312.5 -6.5 q-23 -10 -44 -22.5t-46 -22.5q-20 -2 -33 -23q-6 -6 -8 -14q-41 -76 -78 -148.5t-58.5 -147.5t-22.5 -155t32 -168zM1159 346q-6 -12 -16 -68.5t-23.5 -118t-30 -110.5t-34.5 -49h-881l8 82h107q8 111 16 216t21 216q29 242 69.5 477.5t93.5 474.5h-137l10 82h865 q12 0 11 -17.5t-3 -25.5l-37 -264q-4 -43 -17.5 -44t-50.5 -1q-25 0 -36 15.5t-16 37t-4 45t1 39.5q-6 72 -34.5 91.5t-98.5 19.5l-317 -10q-29 -281 -50 -560h437l-8 -65q-4 -35 -22.5 -46t-51.5 -11h-371l-20 -174q-4 -16 -7 -52q-4 -43 -11 -107.5t-11 -126t-5 -107.5 t7 -54q16 -20 90 -23.5t178 -3.5q76 0 118 19.5t64.5 50.5t34 64.5t26.5 64.5t42 50.5t78 19.5q16 0 17 -5.5t-1 -21.5z" />
<glyph unicode="F" horiz-adv-x="1097" d="M227 1690q-35 -43 -75.5 -90.5t-73.5 -97.5t-49.5 -103t0.5 -111q-43 -223 -73 -445t-50 -440q-29 -20 -16.5 -44.5t34 -50t40 -52.5t3.5 -51q-14 -29 -29.5 -55.5t-24.5 -49t-8 -39t21 -26.5q27 -14 52.5 -25.5t54.5 -25.5q-20 -25 -32.5 -55.5t-12.5 -59.5t14 -52.5 t45 -35.5q27 -16 57.5 -22.5t61.5 -9.5t61.5 -8t59.5 -17q104 -10 215.5 -7.5t219 29.5t207 81t179.5 146q78 39 102.5 79t16.5 86t-36 101.5t-54 127.5q12 104 57 237t89 270.5t71.5 267.5t5.5 230q2 25 -3 46.5t-10.5 43t-7.5 43t7 45.5q-12 66 -53.5 104t-94.5 62.5 t-112.5 42t-108.5 41.5q-172 8 -341 -3t-335 -79q-16 0 -31 -10q-29 2 -43 -18zM1157 1231q-4 -33 -21.5 -34t-39.5 -1q-35 0 -43.5 27.5t-8.5 64.5t-1 75t-25 58q-10 8 -26.5 13.5t-37 7.5t-41.5 2h-30h-115q-14 0 -34.5 -2t-42 -3t-40 -3t-28.5 -2q-14 -141 -25.5 -279.5 t-22.5 -280.5h437l-8 -65q-4 -35 -22.5 -46t-51.5 -11h-369q-20 -168 -42.5 -335t-51.5 -335h168l-8 -82h-453l8 82h107q8 129 19 252t26 252q29 223 67.5 440t87.5 440h-137l10 82h822q10 0 8 -18.5t-2 -24.5zM53 -27l-8 4q4 0 8 -4z" />
<glyph unicode="G" horiz-adv-x="1499" d="M236 1702q-49 -82 -100.5 -177t-79 -186.5t-21.5 -170t71 -128.5q-43 -18 -69.5 -53t-38.5 -80t-14 -95t2 -95q-10 -49 -27.5 -93t-29 -87t-10.5 -83t30 -79q12 -41 7 -86t-17.5 -89t-25.5 -89t-17 -86q-6 -57 24 -113q80 -104 194.5 -144t243.5 -47.5t264.5 -1 t258.5 -6.5q68 14 135 21.5t135 13.5t134.5 15.5t131.5 27.5q68 49 113 115.5t75.5 141.5t52 154t42.5 152q12 147 28.5 290.5t51.5 291.5q0 39 -10.5 75t-20.5 71.5t-14 72.5t8 78q-6 61 2 125.5t16 126.5q8 63 9.5 125.5t-17.5 122.5q-113 74 -221.5 90t-217 1.5t-216 -45 t-218 -52t-224 -20.5t-232.5 52q-33 -10 -67.5 -6t-67.5 -12q-12 -10 -19 -12q-24 -4 -34 -27zM1427 506q-10 -86 -24 -167t-29 -167q-283 -203 -610 -203q-160 0 -269.5 55.5t-173 150.5t-84 224t-1.5 277q20 178 89.5 344t184.5 292t271.5 201.5t351.5 75.5q31 0 77.5 -2 t96 -8t93.5 -16.5t66 -24.5q18 -12 21.5 -25.5t-0.5 -35.5l-35 -289q-2 -23 -29 -23q-10 0 -22 1t-19 1q-20 0 -31.5 11.5t-16.5 27t-6 33.5t-1 35q-4 63 -20.5 105t-49 65.5t-81 33t-113.5 9.5q-154 0 -261.5 -64.5t-178 -167t-109.5 -230.5t-55 -255q-14 -117 -4 -237.5 t55 -218t132 -160t226 -62.5q82 0 168 23.5t160 66.5h4q2 57 7 114.5t12 115.5q8 74 22 146.5t29 146.5h-172l10 81h346q-4 -72 -11.5 -141t-15.5 -139z" />
<glyph unicode="H" horiz-adv-x="1617" d="M14 819q0 -131 1 -259t-21 -263q18 -43 20 -89t-1 -93t-6 -95.5t5 -93.5q23 -25 23 -30q0 -8 -4 -11.5t-2 -8.5t26 -23q135 -6 263 -16.5t257 -41.5q111 -8 224.5 -18t228.5 -11.5t229.5 13t227.5 55.5q25 16 50.5 31.5t53.5 11.5q104 45 152.5 123t69 171t26.5 191.5 t25 182.5q14 86 8 170t-17.5 167t-20.5 164.5t-1 161.5q20 39 30.5 81t18.5 84t18.5 84t30.5 81q4 16 6 32.5t4 33.5q6 53 -6 101t-63 67q-221 25 -413.5 26.5t-381 -5.5t-384 -18.5t-419.5 -13.5q-16 0 -29.5 -12t-15.5 -29q-8 -25 6.5 -40t30.5 -23q-70 -94 -94.5 -199.5 t-38.5 -215t-35 -217.5t-82 -206zM631 1466q-12 -150 -28.5 -296t-31.5 -296h654q31 147 54.5 296t59.5 296h-139l10 82h406l-10 -82h-129q-14 -203 -33 -401.5t-43 -396.5q-18 -147 -40 -293t-44 -293h135l-8 -82h-422l8 82h109q10 166 21 338t46 338h-645l-43 -338 q-10 -86 -22.5 -169t-28.5 -169h135l-8 -82h-420l8 82h107q8 129 19 252t26 252q29 223 67.5 440t87.5 440h-137l10 82h410l-10 -82h-131z" />
<glyph unicode="I" horiz-adv-x="768" d="M10 1077q6 -37 3 -73.5t-8 -73.5t-11 -74t-6 -74q-61 -111 -87 -229.5t1 -235.5q-14 -66 -28.5 -142.5t-11.5 -149t30.5 -132t99.5 -88.5q88 -16 183 -33.5t193.5 -22.5t197 7.5t190.5 57.5q72 53 113.5 127.5t80.5 148.5q18 88 49 180t63 186.5t57.5 187.5t33.5 184.5 t-8.5 178.5t-69.5 169q-6 45 -4 96t4 104.5t1 104.5t-14 95t-43 78t-83 52q-197 37 -402.5 26.5t-404.5 -55.5q-29 -18 -25 -43q-43 -61 -79.5 -134t-56 -146.5t-12.5 -144.5t54 -132zM174 0l8 82h107q8 129 19 252t26 252q27 211 61.5 415.5t81.5 415.5q4 16 4 25q2 6 2 12 t2 12h-133l10 82h406l-10 -82h-131q-14 -203 -33 -400.5t-43 -395.5q-16 -147 -39 -294t-45 -294h135l-8 -82h-420z" />
<glyph unicode="J" horiz-adv-x="976" d="M174 922q-25 -80 -53.5 -139.5t-59 -116t-65.5 -115.5t-72 -139q-8 -55 -41 -103.5t-66.5 -95.5t-55 -96t-7.5 -107q10 -43 28.5 -83t22.5 -85q61 -72 144.5 -94t177.5 -24.5t190.5 4t182.5 -6.5q72 10 124 51.5t98 92.5t93 100t113 76q31 68 70.5 165t75.5 209.5 t63.5 233.5t33.5 238q-2 61 0.5 129.5t3.5 138.5t-4.5 136.5t-21.5 123.5q4 43 1 86t-32 74q-4 25 -13 50.5t-23.5 45t-36 31.5t-52.5 10q-98 2 -166.5 6t-129 0t-125 -20.5t-152.5 -55.5q-25 25 -61.5 32t-73.5 5q-31 0 -43.5 -25.5t2.5 -43.5q4 -80 11 -170t5 -182.5 t-20.5 -179t-65.5 -156.5zM848 678q-16 -129 -39 -256t-77 -229.5t-152.5 -166t-266.5 -63.5q-78 0 -143.5 20.5t-114.5 75.5q-12 12 -18 32t-7 41.5t0 43t3 39.5q2 12 4 39t9 55.5t19.5 50t34.5 21.5q53 0 76 -24.5t31 -60.5t10 -79t15.5 -79t47 -60.5t105.5 -24.5 q59 0 100 20.5t68 56.5t41 82t20 97q16 129 23.5 254t24.5 254q20 160 47.5 325t66.5 324h-178l10 82h307q-4 -217 -22 -433t-45 -437z" />
<glyph unicode="K" horiz-adv-x="1458" d="M217 1651q-53 -131 -72.5 -266.5t9.5 -264.5q-14 -156 -43 -312.5t-57.5 -312t-49 -311t-18.5 -309.5q16 -37 38.5 -55.5t51 -28.5t61.5 -16t70 -19q205 -18 413.5 -7t413.5 22q25 10 51.5 25.5t51.5 -1.5q41 -20 75.5 -37.5t66.5 -23.5t63.5 7t64.5 54q61 43 97 110.5 t55.5 150.5t24.5 174.5t2 179.5t-8 167.5t-7 139.5q4 135 42 259t69.5 242.5t36.5 235.5t-56 238q0 10 -8 18t-19 12q-166 53 -332.5 61.5t-335.5 -6t-341 -42t-351 -45.5q-16 0 -24 -7q-27 -5 -35 -32zM1425 0q-31 -8 -62.5 -14t-62.5 -6q-106 0 -185 52t-136 131t-99 172 t-75 173q-33 74 -61.5 146.5t-57.5 148.5l-125 -96h-4q-20 -160 -42.5 -312.5t-47.5 -312.5h135l-8 -82h-420l8 82h107q8 129 19 252t26 252q29 223 67.5 440t87.5 440h-137l10 82h271q-16 -174 -29.5 -344t-30.5 -344l-10 -41l590 504h2q18 14 36.5 34.5t20.5 43.5 q2 25 -10 38t-32.5 19t-44 7t-42.5 1l11 82h481l-10 -82h-101l-659 -546h2q23 -10 40 -20.5t34 -27.5q39 -37 73.5 -110.5t68.5 -163.5t70.5 -184.5t76.5 -172t87.5 -128t104.5 -50.5q35 0 59 9z" />
<glyph unicode="L" d="M240 1640q-43 -66 -65.5 -132t-33 -135.5t-10.5 -143.5q0 -72 2 -146q-10 -84 -11 -169l-2 -170t-9.5 -168.5t-32.5 -165.5q-12 -74 -46 -147t-60.5 -143.5t-32 -135t37.5 -121.5q88 -33 186.5 -39t199 -7t197.5 -11.5t183 -53.5q51 -12 111.5 -23.5t120 -8t113 29 t92.5 88.5q29 35 41 92.5t14 126t-2 142t-8 143.5t-2 131.5t16 101.5q12 72 1 116t-37.5 73t-62.5 49.5t-73 46t-70.5 63.5t-54.5 101q14 53 15 110.5t-42 92.5q-31 27 -31.5 68.5t12.5 91t33.5 99.5t31 95t3 79t-48.5 48q-150 10 -299 14t-303 -24q-31 -6 -39 -33 q-22 0 -34 -25zM1118 346q-10 -78 -34.5 -154.5t-43.5 -152.5q-4 -10 -7 -24.5t-19 -14.5h-840l8 82h107q8 111 16 216t21 216q29 242 69.5 477.5t93.5 474.5h-137l10 82h474l-11 -82h-198q-29 -309 -58.5 -611t-66.5 -611q-8 -63 5 -93t44 -40.5t78 -8.5t104 2 q78 0 121 19.5t66.5 50.5t35 64.5t26.5 64.5t41 50.5t79 19.5q16 0 17 -6.5t-1 -20.5z" />
<glyph unicode="M" horiz-adv-x="2027" d="M287 1651q-27 -72 -75 -162t-87 -183.5t-54.5 -186.5t21.5 -171q8 -86 -24.5 -167t-71.5 -160.5t-68.5 -161.5t-17.5 -170q-4 -66 6 -126.5t27.5 -118.5t39 -114.5t44.5 -111.5q150 -51 291 -67.5t278 -16.5t272.5 11t274.5 17.5t284.5 1t303.5 -37.5q16 12 35.5 24 t40 19.5t39 6.5t34.5 -20q18 -4 37.5 1t38 12.5t37 12.5t39.5 3q41 25 53 74t8 110.5t-20.5 130t-30.5 134t-21.5 122t4.5 93.5q35 66 63 137t9 143q-16 61 -12 85t15 42t22.5 46t9.5 95q-6 55 -16.5 108.5t-38.5 100.5q-6 49 3 104.5t11 107.5t-13.5 96.5t-70.5 72.5 q-59 55 -131 94t-131 95q-168 -4 -350.5 7t-361.5 14t-348 -14.5t-308 -76.5l-43 -12q-20 -6 -29 -21l-9 -9t-9 -13zM1485 0l8 82h133q-12 131 -23.5 273.5t-20.5 286.5t-16 286.5t-10 273.5l-32 -74l-498 -1087q-20 -43 -37.5 -48t-54.5 -5q-41 0 -58.5 6t-29.5 49 q-33 119 -59.5 256t-46 279.5t-34 282.5t-24.5 267l-14 103l-373 -1149h145l-8 -82h-381l8 82q45 0 76 13.5t51.5 38t35 57t26.5 69.5l403 1165l-2 41h-155l10 82h258q49 -174 80.5 -350t60.5 -356q18 -117 38 -232.5t44 -232.5q4 -16 10 -27.5t27 -11.5q25 0 29 12t12 29 q123 266 248 522t243 524l5 41h-173l11 82h297q18 -190 40.5 -374.5t41.5 -376.5q12 -135 23 -270.5t24 -270.5q6 -53 9 -87t17.5 -53.5t45 -26.5t90.5 -7l-9 -82h-491z" />
<glyph unicode="N" horiz-adv-x="1802" d="M254 1665q-63 -66 -104 -139.5t-67 -151.5t-42 -159.5t-31.5 -163.5t-36 -162t-55.5 -158q-12 -47 -13 -98t12 -96t42 -81t76 -53q-6 -63 -42 -122.5t-73 -118t-58.5 -118.5t1.5 -128q37 -66 95 -97.5t128 -51t140.5 -36t131.5 -48.5q131 -37 273.5 -59.5t287 -19.5 t288 36.5t280.5 109.5q16 8 34.5 9t37.5 1q18 0 36.5 2t36.5 13q104 14 189.5 74.5t122.5 164.5q23 49 28 95q10 74 -5 141t-40 129q-8 18 -24.5 27.5t-34 17.5t-29.5 19.5t-12 33.5q-14 57 -5 114.5t28.5 116t43 117t34.5 114.5t4 112.5t-46 109.5q-27 59 -8.5 118.5 t44.5 118t39 117t-19 115.5q-39 78 -119 113t-172 18q-344 -16 -679 -28.5t-679 -42.5q-23 -4 -35 -21zM1683 35q-6 -35 -49 -46.5t-86 -11.5h-43q-164 0 -284.5 72t-210.5 183.5t-157 245.5t-122 261q-47 111 -91 222.5t-79 228.5l-29 96l-147 -1204h154l-9 -82h-397l8 82 h152l170 1384h-152l11 82h268q76 -147 149.5 -294.5t145.5 -301.5q45 -98 95 -208.5t107.5 -219t124 -207t144.5 -172.5l162 1321h-181l11 82h419l-10 -82h-143l-170 -1386q57 -23 115.5 -21t115.5 2q8 0 8 -12v-14z" />
<glyph unicode="O" horiz-adv-x="1740" d="M190 1700q-35 -41 -69.5 -85t-62 -90t-43 -95.5t-11.5 -102.5q-4 -68 -15.5 -138.5t-58.5 -129.5q-8 -61 -20 -124t-23.5 -125t-17.5 -123.5t-4 -123.5q20 -39 55 -62.5t70 -45.5q-25 -4 -46.5 -7.5t-43.5 -9.5q-8 -2 -18.5 -10t-14.5 -14q-12 -27 -9 -51.5t7 -47.5 q-2 -2 -2 -10q-2 -2 -2 -4l-2 -2q4 -35 4 -74q0 -37 -25 -71q-2 -20 6.5 -38t17.5 -35.5t14 -35.5t-3 -39q20 -70 67.5 -116t110 -73.5t134 -37.5t141.5 -8q106 -31 216.5 -42.5t223.5 -13.5t226.5 0t226.5 -2q74 45 155.5 73t163.5 56.5t155.5 66.5t131.5 103q57 74 91 155 t47 166t11 169t-16 164q23 129 31 262t-10.5 259t-69.5 237.5t-148 197.5q-29 33 -30 80q-2 8 -9.5 16t-15.5 13q-43 20 -90 24t-96 4h-99q-49 0 -94 13q-135 0 -270 6t-271.5 5t-272.5 -14.5t-271 -52.5q-12 4 -26 2t-26 -18zM1692 864q-23 -184 -93.5 -348t-186.5 -287 t-274.5 -194.5t-355.5 -71.5q-160 0 -271.5 59.5t-178 160t-90 232.5t-4.5 279q20 172 90.5 335t185.5 289t269.5 202.5t342.5 76.5q160 0 275 -58t185.5 -158.5t97 -233.5t8.5 -283zM1450 745q-14 -117 -50 -234.5t-101.5 -212.5t-166 -154.5t-241.5 -59.5 q-143 0 -230.5 65.5t-131.5 169t-51 228.5t9 244q12 111 49 233.5t104 225t165 170t235 67.5q98 0 169 -33t120 -89t78 -130t41 -156t12 -168t-10 -166z" />
<glyph unicode="P" horiz-adv-x="1220" d="M244 1716q-43 -45 -95.5 -94t-92.5 -102.5t-58 -112.5t6 -125q33 -49 46 -109.5t8 -124t-28.5 -125t-64.5 -114.5q-57 -106 -83.5 -217t-37 -222.5t-10.5 -224.5t-2 -223q37 -45 89 -66.5t111.5 -30.5t120 -14.5t113.5 -17.5q82 -4 170 -20.5t176 -21.5t172 14.5 t160 89.5q41 27 87 42t92 29.5t90 35t81 56.5q94 88 129 194.5t43.5 218.5t7.5 226.5t23 221.5q14 129 33.5 251.5t52.5 251.5q-10 119 -63.5 206t-135 143.5t-186 85t-217.5 30.5t-225.5 -19.5t-212.5 -64.5q-25 -8 -58 -8q-43 0 -86 5t-86 1q-16 0 -27.5 -9t-15.5 -19 q-16 -5 -26 -17zM1266 1135q-14 -127 -73.5 -222.5t-149 -160t-199 -97t-223.5 -32.5q-18 0 -37 2t-37 0q-33 -270 -80 -543h135l-8 -82h-420l8 82h107q8 129 19 252t26 252q29 223 67.5 440t87.5 440h-137l10 82q104 0 202 4t202 4q111 0 209 -16t167.5 -62t104.5 -129 t19 -214zM1055 1075q-20 -174 -127 -261t-275 -87q-23 0 -47 1t-47 1q20 180 35.5 352t30.5 353q16 -4 44.5 2t47.5 6q186 0 274.5 -88.5t63.5 -278.5z" />
<glyph unicode="Q" horiz-adv-x="1744" d="M98 977q2 -18 -5 -33.5t-19.5 -31t-24.5 -30t-20 -30.5q-29 -47 -54.5 -98.5t-42 -103.5t-21.5 -106.5t7 -105.5q-2 -68 -16.5 -148.5t-15.5 -156.5t25 -138.5t103 -94.5q33 -18 72 -31.5t75 -30t65.5 -40t45.5 -62.5q98 -43 193.5 -95.5t193 -100.5t200 -85t214.5 -49 q82 -35 179.5 -34t191.5 16q29 25 61.5 44t62 40.5t54.5 48t37 63.5q43 61 46 122t-12.5 119t-38 115.5t-30.5 116.5q88 100 163 218t128 246t80.5 259t19.5 255t-55 237.5t-143 206.5q-20 18 -34 43.5t-26 53.5t-26.5 53.5t-34.5 45.5q-12 31 -28.5 64t-39 59.5t-55.5 40.5 t-76 8q-102 -14 -188 -13t-164 6t-151.5 9t-149.5 -3t-160 -32.5t-180 -78.5q-23 -14 -23 -37q-51 -43 -110.5 -100.5t-114.5 -123t-102.5 -134t-73 -135t-24.5 -125t42 -103.5zM1700 872q-35 -295 -176.5 -503.5t-421.5 -348.5h2q37 -10 61.5 -39.5t43 -67.5t37 -80t44 -77 t62.5 -57.5t94 -22.5q18 0 36.5 4.5t37.5 4.5q8 0 7 -19.5t-1 -25.5q-2 -18 -27.5 -28.5t-57.5 -15t-62.5 -5.5t-43.5 -1q-61 0 -129.5 15.5t-125 48.5t-90.5 85t-25 126q6 35 12 62.5t27 60.5h-13q-51 0 -104 -13.5t-107 -13.5q-154 0 -264 62.5t-178 165t-92.5 236.5 t-7.5 275q23 174 94 336t185 288t268.5 202t342.5 76q158 0 274 -58.5t188.5 -158t100 -231.5t9.5 -282zM1452 750q-14 -115 -53 -235t-106.5 -217t-168 -159.5t-237.5 -62.5q-150 0 -238 66.5t-131 170t-49 230.5t10 250q14 117 53 240.5t108 226t170 168t243 65.5 q143 0 229 -72.5t129 -183.5t49 -241.5t-8 -245.5z" />
<glyph unicode="R" horiz-adv-x="1370" d="M262 1722q-35 -78 -91 -150.5t-106.5 -148t-79 -155.5t-5.5 -170q-8 -80 -16.5 -162t-23 -162t-40 -158.5t-68.5 -152.5q-27 -88 -33 -175t-24 -175q0 -86 30.5 -147.5t82 -104.5t120 -71t142 -44t149.5 -22.5t143 -8.5q57 -2 113 -2h115q172 0 346 17.5t346 66.5 q53 18 98 51t78 77t49.5 95.5t14.5 104.5q-2 25 3 50.5t-12 43.5q-4 37 -19 65.5t-38 52t-48.5 45t-49.5 44.5q-47 94 -53.5 196.5t6.5 208.5q12 106 33.5 214t30.5 212.5t-4 206t-71 193.5q-115 68 -243.5 93.5t-264 30.5t-273.5 -3.5t-271 -8.5q-14 -2 -27 -18 q-23 0 -39 -29zM1350 2q-39 -12 -78 -20.5t-80 -8.5q-78 0 -137.5 35t-104.5 93.5t-78.5 132t-58.5 151.5t-42 151.5t-32 133.5h-10q-45 0 -89 -2t-89 -2q-20 -147 -41 -292t-43 -292h135l-8 -82h-420l8 82h107q8 129 19 252t26 252q29 223 67.5 440t87.5 440h-137l10 82 q129 0 257.5 6.5t257.5 6.5q102 0 183 -21.5t134 -70t74.5 -124t7.5 -186.5q-20 -168 -117.5 -278.5t-257.5 -171.5q41 -27 68.5 -85.5t50 -129t43 -147.5t49.5 -139.5t68 -102t98 -39.5q35 0 59 8zM1057 1094q-20 -166 -107.5 -246t-253.5 -80q-33 0 -65.5 5t-65.5 3 q16 172 32.5 338t27.5 338q25 -2 51 1t53 3q190 0 270.5 -84.5t57.5 -277.5z" />
<glyph unicode="S" horiz-adv-x="1095" d="M262 1700q-37 -55 -71.5 -111.5t-61.5 -116t-42 -121t-11 -124.5q-12 -111 -31.5 -218.5t-71.5 -211.5q-8 -94 -22 -188.5t-26.5 -188.5t-19.5 -188.5t-1 -186.5l14 -55q61 -33 117.5 -71t99.5 -91q23 -8 60 -8l4 -2q27 -8 53.5 -22.5t54 -29t56 -23.5t61.5 -5 q74 -18 153.5 -15t158.5 21t154 49t140 70q2 2 8 3t0 1q35 4 66 29.5t65 40.5q29 14 47.5 35.5t32 48t25.5 54t26 52.5q76 129 94.5 260t8.5 261t-36 259t-38 254q41 125 25.5 252t-76.5 226.5t-166.5 155.5t-245.5 40q-135 2 -267 -18.5t-261 -73.5h-16q-29 0 -41 -25 q-13 -10 -19 -18zM1038 449q-14 -113 -62 -203t-123 -152.5t-171 -96.5t-207 -34q-72 0 -149.5 16.5t-130.5 61.5q-27 23 -28 42t3 54l31 252q4 43 24.5 49t53.5 6q41 0 51 -27.5t9 -68.5t-2 -90t16.5 -90t64.5 -68.5t141 -27.5q119 0 199 72.5t94 191.5q10 80 -18.5 140.5 t-76.5 108.5t-108.5 89t-111.5 82q-53 43 -96.5 80.5t-72 81t-40 98.5t-0.5 135q12 100 58 182t115.5 139.5t159 88t185.5 30.5q53 0 118.5 -12t108.5 -41h2q23 -12 25 -34.5t-2 -45.5l-27 -221q-2 -14 -11 -19.5t-20.5 -6.5t-23.5 0t-21 1q-27 0 -36 20.5t-14 50.5 t-10 64.5t-24.5 64.5t-57.5 50.5t-105 20.5q-100 0 -166 -53.5t-78 -157.5q-10 -90 29.5 -153.5t103 -116t140.5 -101.5t139.5 -110.5t99 -143t22.5 -198.5z" />
<glyph unicode="T" horiz-adv-x="1236" d="M211 1767q-29 -25 -62.5 -49t-61.5 -53t-44 -61.5t-12 -75.5q-25 -76 -65 -153t-73.5 -153.5t-51 -156.5t2.5 -162q12 -90 47 -168t119 -117q12 -8 13.5 -20t-4 -25.5t-12.5 -29t-11 -31.5q4 -41 -9.5 -75t-27.5 -67.5t-20.5 -68.5t10.5 -78q-14 -82 -18.5 -164t8.5 -159 q109 -109 255 -180.5t307 -93t328.5 11t319.5 135.5q47 20 99 53t92 75t58.5 91t-1.5 104q-10 18 -24.5 33.5t-29 30t-25.5 31t-15 40.5q-27 45 -18 92.5t31.5 96.5t50.5 97t38 97q31 20 42 53t15 70q6 37 9.5 75t19.5 69q31 104 53.5 213.5t31.5 218t2 213t-34 200.5 q-152 45 -311.5 67t-322 25t-328.5 -6.5t-330 -25.5q-8 -2 -21 -6q-12 -5 -20 -13zM1360 1186q-6 -23 -28.5 -21t-39.5 2q-31 0 -43 29t-17 69t-8 78.5t-18 61.5q-8 12 -25.5 19.5t-39 12.5t-45 7t-43.5 2h-49q-37 0 -76 -1t-76 -1l-4 -47q-25 -199 -29 -396.5t-28 -396.5 q-14 -131 -37 -262t-49 -260h147l-8 -82h-477l8 82h143q6 129 17.5 255t27.5 255q27 217 66 427t86 425h-111q-25 0 -50.5 -1t-49.5 -1q-68 0 -105 -20.5t-56 -51.5t-27.5 -65.5t-17.5 -65.5t-24.5 -51.5t-48.5 -20.5h-14q-14 0 -32.5 2t-14.5 13q6 59 25.5 120.5 t37.5 120.5q8 25 17.5 51.5t11.5 51.5q2 8 4 17t14 9q129 0 257 -4t257 -4q141 0 285 7.5t285 7.5q16 0 14 -19q-10 -92 -6 -177t-6 -177z" />
<glyph unicode="U" horiz-adv-x="1712" d="M344 1788q-25 -25 -39 -49.5t-20 -50t-9.5 -54t-7.5 -63.5q-66 -129 -82 -274.5t15 -282.5q-6 -68 -23.5 -132.5t-42.5 -127.5q-4 -31 -10 -63t-33 -56q-8 -27 -18.5 -52.5t-17.5 -50t-9 -47t8 -43.5q-35 -49 -37 -98t6.5 -98t19.5 -100.5t5 -102.5q35 -154 117 -230.5 t235 -66.5q61 -10 124 -17.5t126 -7.5t126 9.5t122 33.5q43 -14 84 -32.5t84 -32.5t88 -19.5t96 7.5q43 -4 88 -5t90.5 5t86 23.5t77.5 51.5q35 10 73 18.5t73 22t64.5 36t47.5 63.5q29 45 25 104.5t-25.5 120.5t-50 118.5t-47.5 100.5q-49 49 -47 90q4 25 16.5 56.5 t28.5 82.5q57 233 58 464t-27 454q8 74 -11.5 141.5t-61.5 119.5t-103.5 84t-135.5 32q-98 12 -197 -3.5t-192 -70.5q-59 14 -120.5 25.5t-125 14.5t-127 -6t-126.5 -36q-45 10 -93.5 14t-95.5 -6q-29 11 -49 -14zM1642 33q-68 -25 -140 -42.5t-142 -17.5q-53 0 -78 32 t-33 78t-5 96t7 89l21 94q-49 -82 -127 -152.5t-166 -121.5t-178 -81t-162 -30q-102 0 -167.5 32t-103.5 85t-51.5 124t-14.5 149.5t8 160.5t18 158q25 199 69.5 390.5t81.5 389.5h-127l10 82h261q-8 -213 -37 -426q-12 -106 -24.5 -211.5t-26.5 -214.5q-10 -88 -16.5 -186 t13 -181t77 -137.5t175.5 -54.5q80 0 160 33t147.5 89t115.5 129t65 153q20 98 34.5 197.5t32.5 197.5q25 135 51.5 265t47.5 265h-142l11 82h276q-2 -59 -14.5 -179t-29.5 -267.5t-34.5 -306t-30 -296t-16.5 -234.5t6 -124q12 -29 25.5 -43t48.5 -14q25 0 51.5 3t48.5 13z " />
<glyph unicode="V" horiz-adv-x="1341" d="M125 1769q-39 -23 -41 -55.5t9 -69t22.5 -75.5t-0.5 -72q-84 -164 -92 -332q-39 -59 -53.5 -123.5t3.5 -128.5q2 -37 -1 -74.5t-4 -75.5t1 -74t15 -68q-10 -55 -19.5 -105.5t-13.5 -98.5t-3 -96.5t11 -97.5q12 -27 22.5 -58.5t26 -60t35.5 -50t55 -29.5q100 -41 176 -113 t111 -176q59 -27 134 -33t147.5 11.5t136 60.5t100.5 114q53 43 117.5 78t125 75t111 89t76.5 121q41 49 50.5 98t3 103.5t-19.5 114t-15 126.5q18 72 38.5 141.5t30.5 141.5q2 23 1 47.5t-5 48.5q-6 57 15.5 109.5t53.5 101.5t66.5 97.5t56 97.5t21.5 98q0 51 -37 104 q-49 76 -87 97.5t-76 21.5q-35 0 -84.5 5t-114.5 46q-37 -20 -77 -36.5t-80 -22.5t-78 -1t-70 26q-33 -4 -65 -3t-62.5 -1.5t-60 -9.5t-60.5 -25q-12 -2 -24.5 -4t-24.5 -7q2 2 -3 4.5t-10 6.5q-35 14 -76.5 23t-80.5 -15q-74 8 -150 10t-151 -20q-15 1 -33 -7zM1419 1466 l-698 -1427q-23 -41 -55.5 -45t-71.5 -4q-18 0 -29.5 12t-18.5 30.5t-11.5 37t-8.5 30.5q-82 338 -136 676t-85 690h-106l10 82h209q78 -307 154.5 -641t138.5 -647l32 59q23 41 64 123t90 183.5t100.5 212t97.5 210t79.5 175t46.5 108.5q18 53 5.5 81t-42 40t-69.5 13 t-77 1l11 84l471 -2l-11 -82h-90z" />
<glyph unicode="W" horiz-adv-x="1988" d="M156 1536q-10 -49 -32 -111.5t-45.5 -131t-44 -139.5t-28.5 -136q-6 -63 4 -118.5t49 -90.5q-4 -59 -25.5 -123.5t-36.5 -127t-11 -122t53 -106.5q12 -10 -1 -33t-31.5 -47.5t-31 -45t1.5 -28.5l19 -33q35 -4 43 -17t6 -35.5t-3 -53.5t15 -68q-14 -33 -10 -60.5t18.5 -51 t34 -45t35.5 -41.5q12 -27 36 -43.5t53.5 -27.5t61 -18.5t60.5 -17.5q57 -8 116.5 1t115.5 32q80 6 161.5 36.5t132.5 100.5q-8 10 -13 19.5t-9 17.5q6 -6 14 -11t17 -12q2 4 6 11.5t8 15.5l-12 -29q29 -14 54.5 -25t47.5 -32q53 -35 112.5 -39t121 1t123 8t120.5 -17 q31 -6 59.5 -2t58.5 10t59.5 9t60.5 -5q70 -6 132 28t97 95q63 88 110.5 177t67 182.5t7 192.5t-67.5 208q-43 94 -39 189.5t36 191.5t80 190.5t89 184.5q12 37 21.5 80t10.5 83.5t-8.5 78.5t-33.5 67q-49 29 -67.5 43t-32 17t-35 -1t-76.5 -10q-78 47 -166 58.5t-181.5 8.5 t-187.5 -9.5t-182 6.5q-123 2 -209 11t-166 15t-168 3t-213 -25q-35 -6 -41 -35q-53 -25 -111.5 -42.5t-107.5 -42t-78.5 -62.5t-23.5 -101zM2054 1466l-635 -1435q-14 -35 -42.5 -39t-57.5 -4q-33 0 -41 6t-18 37q-20 78 -33 160.5t-27 162.5q-33 174 -59.5 361.5 t-53.5 410.5l-442 -1097q-18 -49 -65 -49q-41 0 -66 13t-37 52q-41 158 -70.5 337t-48 363.5t-26.5 367.5t-8 353h-115l10 82h219q35 -141 57.5 -286.5t41.5 -292.5q20 -158 46.5 -325t63.5 -380l424 1034q-10 53 -21.5 106.5t-2.5 108.5q0 23 29.5 29t56.5 6h28 q25 0 41.5 -18.5t25.5 -44t15 -54l10 -47.5q20 -129 42 -271t42.5 -286.5t40 -288t35.5 -274.5l35 76q18 43 56 124t83 178t93.5 202.5t88 200t67.5 168t32 106.5q6 43 -7.5 70.5t-39 45t-59 24.5t-70.5 7l10 82h455l-11 -82h-92zM881 -152q2 0 2 -2l-6 -18l-5 6q4 4 5.5 7z " />
<glyph unicode="X" horiz-adv-x="1423" d="M-90 1024q-4 -117 -58.5 -223.5t-123.5 -200.5q-53 -88 -83 -191.5t-26 -201.5t48 -182t138 -134q113 -59 238 -82.5t256 -32.5t264 -11.5t262 -16.5q104 -2 198.5 -1t181.5 20.5t168 67.5t159 140q25 55 13.5 104.5t-32 98.5t-38 99.5t-7.5 107.5q-29 92 -50 170 t-66 162q2 25 13 82t28.5 127.5t39 150.5t42 150.5t40 126t33.5 80.5q-2 59 -3 92t-5 51t-13 28.5t-25.5 25t-43 39t-67.5 71.5q-53 37 -73 47t-32 9t-32.5 -5t-75.5 6q-23 23 -57 16.5t-64 -6.5q-180 -6 -362.5 -10t-354.5 -12q-29 10 -51 8q-20 0 -31.5 -10t-15.5 -25 q-66 -84 -135.5 -169t-122 -176t-77 -188.5t2.5 -201.5zM788 0l9 82h196q-72 147 -134 292.5t-120 299.5q-20 -20 -60 -63.5t-86 -97.5t-95 -115.5t-90 -115t-68 -94.5t-29 -55q-2 -27 17.5 -38t47 -14t56.5 -1t47 2l-8 -82h-440l8 82q39 0 65.5 8t49 24.5t42 40t42.5 52.5 l450 575h2q-59 174 -115.5 342t-109.5 342h-141l10 82h248q8 -20 28.5 -67t47 -105.5t57 -123t58.5 -120t49.5 -93.5t29.5 -44q14 8 44 40t67.5 76t77.5 95t73 95.5t54.5 78t21.5 43.5q2 12 -6 21.5t-20.5 13.5t-27 6t-28.5 2h-31l10 82h383l-10 -82h-123l-458 -594 q18 -39 46.5 -101t61.5 -137t70 -154t71.5 -148.5t66.5 -121.5t56 -75q33 -31 68 -42t82 -11l-8 -82h-605z" />
<glyph unicode="Y" horiz-adv-x="1280" d="M203 1706q-25 -61 -62 -131t-71.5 -142.5t-61 -146.5t-33.5 -145q-10 -98 39 -183q43 -68 42 -131t-18.5 -127.5t-37.5 -133t-18 -144.5q20 -80 75.5 -138.5t114.5 -109.5q-31 -47 -67.5 -101.5t-62.5 -109.5t-29 -111.5t34 -109.5q0 -47 23.5 -72.5t59.5 -38t78 -14.5 t79 0q94 0 197.5 19.5t208 47t208 58.5t199.5 53q41 66 42 119t-13.5 105.5t-31 110.5t-7.5 134q27 86 70.5 158t91.5 137.5t92.5 127t72 129t30.5 143t-30 167.5q-12 41 18.5 101.5t73.5 125t85 126t57 104.5q4 27 -13 39q-84 86 -192.5 126t-228 46t-244.5 -14.5 t-240 -57.5q-18 -2 -34.5 3.5t-31 13.5t-29.5 13t-34 3q-45 0 -71.5 -4t-47.5 -4q-20 0 -42.5 6t-57.5 29q-35 4 -68.5 -10.5t-68.5 -20.5q-35 -8 -39 -37l-4 -4q0 -2 -2 -4zM1393 1466l-588 -821h-2q-8 -66 -13.5 -131t-13.5 -131q-8 -76 -20.5 -150.5t-22.5 -150.5h139 l-8 -82h-493l8 82h141q8 82 16.5 163t18.5 163q6 59 17.5 118.5t19.5 118.5h-2q-92 199 -170 401.5t-135 419.5h-97l11 82h217q111 -178 194.5 -380.5t155.5 -401.5l29 27q18 20 55 67t83 109.5t95 131t90 130t67.5 108.5t28.5 66q6 41 -21.5 51t-57.5 10h-41l10 82h375 l-11 -82h-75z" />
<glyph unicode="Z" horiz-adv-x="1202" d="M80 770q0 -53 -17.5 -103.5t-39 -99.5t-41 -99t-23.5 -103q-14 -35 -26.5 -76t-15.5 -82t6 -78t38 -61v4q6 -121 39 -181.5t88 -89t133 -38t174 -23.5q109 -23 181.5 -28t138 2t139.5 24.5t184 42.5q45 20 75 58t51.5 82t40 89t42.5 84q37 74 63.5 161t27.5 170 t-28.5 154.5t-103.5 118.5q2 35 45 73t92.5 76t86 74.5t28.5 69.5q29 49 46.5 102.5t-11.5 100.5q-8 20 -22.5 40.5t4.5 35.5q43 41 61 91t16 101t-22.5 99.5t-52.5 83.5q-16 63 -58.5 99t-97.5 50t-117.5 9t-122.5 -25q-66 -20 -119 -24.5t-102 -1.5t-95 10t-95 7 q-47 0 -101.5 -9t-117.5 -38q-2 -2 -11 -2q-6 0 -8 -2q-14 14 -38.5 17.5t-45.5 1.5q-23 0 -35 -13.5t-14 -29.5q-68 -96 -134.5 -211t-107.5 -236t-42 -242.5t65 -234.5zM1176 348q-2 -18 -15.5 -59t-30 -87t-33 -88t-24.5 -63q-16 -35 -50 -44t-69 -9h-43q-190 0 -373.5 1 t-373.5 1q-29 0 -50.5 8t-15.5 43q4 33 42 101.5t98.5 159.5t139.5 198.5t163 219.5t170 221.5t160.5 203.5t133 167t91.5 112l-25 -9q-88 0 -175 3.5t-175 3.5q-16 0 -51 -1t-74 -5.5t-71.5 -12.5t-43.5 -22q-25 -33 -28.5 -66t-13 -58.5t-35 -42t-91.5 -16.5q-10 0 -8 15 q-4 59 7.5 125.5t17.5 126.5q6 47 20.5 64t63.5 17q193 0 377 -7t376 -7q43 0 95 23l41 -45q-8 -12 -16.5 -24.5t-18.5 -25.5q-45 -61 -82 -125.5t-78 -127.5q-66 -104 -132.5 -209t-135.5 -209q-117 -174 -238 -337t-240 -335q104 -10 203 -12t199 -2q72 0 114 19.5 t66.5 48t37.5 62t27.5 62.5t37 48.5t63.5 19.5q8 0 20.5 1t22.5 -1t17.5 -7.5t5.5 -17.5z" />
<glyph unicode="a" horiz-adv-x="2220" d="M2212 23l-2 69q-4 -2 -2 -1t-2 1q-20 0 -42 -5t-44 -5q-37 0 -53.5 30.5t-20.5 73.5t-1 87t7 69l59 498q8 59 12.5 127.5t-11 126t-55.5 95.5t-120 38q-72 0 -144.5 -48.5t-139 -124t-125 -172t-101.5 -190.5q33 184 47.5 347t18.5 292q14 100 31.5 200.5t44.5 201.5 q49 23 75.5 62.5t32.5 88.5q2 18 -3 42t-29 24q-25 0 -50.5 -19.5t-48 -46t-42 -55.5t-34.5 -49q-23 -4 -47 -11.5t-49 -11.5q-70 -14 -139.5 -18t-138.5 -4q-66 0 -119 2t-104.5 3t-104.5 3t-119 2q-53 0 -103 -10.5t-91 -34t-69 -63.5t-36 -101q-8 -68 18.5 -119t72.5 -89 t103.5 -64.5t110.5 -46.5h7l-3 -19h-4q-68 -35 -118 -68.5t-105 -91.5q-111 -117 -170 -258t-78 -288q-12 -96 -4 -189.5t45 -167.5t107.5 -119t183.5 -45q117 0 219.5 51.5t177.5 143.5q18 20 37 46t21 52q2 14 -18.5 30.5t-32.5 20.5q-47 -86 -109.5 -140t-163.5 -54 q-88 0 -141 49t-80 122t-31 158t6 156q8 68 29 156t59.5 167t100 134t151.5 55q68 0 95.5 -34.5t39 -76.5t19.5 -77t37 -35q8 0 14 -1t15 -1q35 0 40 11t9 50l18 154q8 53 -26.5 76.5t-77.5 36.5q-35 10 -87.5 23t-109.5 32.5t-114.5 45.5t-102.5 57.5t-70.5 69.5t-19.5 85 q4 43 27.5 68.5t56.5 38t70.5 16.5t70.5 4q94 0 188.5 -5t188.5 -5h74h59q29 0 60.5 1t74.5 5q27 4 73 14t73 10q-41 -86 -57.5 -174t-35.5 -176q-10 -53 -20 -117.5t-20 -140.5l-138 -1036q-2 -18 2 -29.5t25 -11.5q55 0 89 4t52.5 20.5t26.5 49t14 92.5q25 199 86.5 385 t177.5 360q18 27 46 63t61 67.5t68.5 53t70.5 21.5q31 0 47.5 -12.5t22.5 -30.5t5 -41.5t-3 -48.5q-25 -193 -63 -382t-62 -382q-4 -41 -5 -83t10 -75.5t38 -55t80 -21.5q66 0 129 15.5t129 27.5z" />
<glyph unicode="b" horiz-adv-x="2220" d="M2267 29l-12 61q-31 -10 -66 -10q-74 0 -128 43t-97 108.5t-78 143.5t-71.5 150.5t-78.5 129t-98 76.5h-2l490 397h119l8 74h-479l-9 -74q16 0 43 3.5t49.5 1t35 -13.5t1.5 -40q-6 -14 -36.5 -46t-75.5 -71.5t-97.5 -82.5t-101.5 -81t-90 -64.5t-61 -33.5l63 631 q14 100 30.5 200.5t43.5 201.5q49 23 75.5 62.5t32.5 88.5q2 18 -3 42t-29 24q-25 0 -50.5 -19.5t-48 -46t-42 -55.5t-34.5 -49q-23 -4 -47 -11.5t-49 -11.5q-70 -14 -139.5 -18t-138.5 -4q-66 0 -119 2t-104.5 3t-104.5 3t-119 2q-53 0 -103 -10.5t-91 -34t-69 -63.5 t-36 -101q-8 -68 18.5 -119t72.5 -89t103.5 -64.5t110.5 -46.5h7l-3 -19h-4q-68 -35 -118 -68.5t-105 -91.5q-111 -117 -170 -258t-78 -288q-12 -96 -4 -189.5t45 -167.5t107.5 -119t183.5 -45q117 0 219.5 51.5t177.5 143.5q18 20 37 46t21 52q2 14 -18.5 30.5t-32.5 20.5 q-47 -86 -109.5 -140t-163.5 -54q-88 0 -141 49t-80 122t-31 158t6 156q8 68 29 156t59.5 167t100 134t151.5 55q68 0 95.5 -34.5t39 -76.5t19.5 -77t37 -35q8 0 14 -1t15 -1q35 0 40 11t9 50l18 154q8 53 -26.5 76.5t-77.5 36.5q-35 10 -87.5 23t-109.5 32.5t-114.5 45.5 t-102.5 57.5t-70.5 69.5t-19.5 85q4 43 27.5 68.5t56.5 38t70.5 16.5t70.5 4q94 0 188.5 -5t188.5 -5h74h59q29 0 60.5 1t74.5 5q27 4 73 14t73 10q-41 -86 -57.5 -174t-35.5 -176q-10 -53 -20 -117.5t-20 -140.5l-138 -1036q-2 -18 2 -29.5t25 -11.5q55 0 89 4t52.5 20.5 t26.5 49t14 92.5q14 125 21.5 198.5t13.5 114.5q4 43 6 62.5t4 33.5h4l109 82q27 -94 70 -209.5t108.5 -218t154.5 -172t208 -69.5q98 0 194 45z" />
<glyph unicode="c" horiz-adv-x="1615" d="M920 315q-47 -86 -109.5 -140t-163.5 -54q-88 0 -141 49t-80 122t-31 158t6 156q8 68 29 156t59.5 167t100 134t151.5 55q68 0 95.5 -34.5t39 -76.5t19.5 -77t37 -35q8 0 14 -1t15 -1q35 0 40 11t9 50l18 154q8 53 -26.5 76.5t-77.5 36.5q-35 10 -87.5 23t-109.5 32.5 t-114.5 45.5t-102.5 57.5t-70.5 69.5t-19.5 85q4 43 27.5 68.5t56.5 38t70.5 16.5t70.5 4q94 0 188.5 -5t188.5 -5q86 0 155.5 -1t157.5 7q12 2 31.5 6l39 8t37 7t25.5 3h13q-41 -94 -59.5 -189t-41.5 -194l-43 -213q-35 -199 -68.5 -395t-58.5 -395q-6 -43 -12 -96.5 t2 -101.5t36 -80.5t87 -32.5q78 0 154.5 19.5t152.5 37.5l-6 72q-29 -8 -59.5 -13.5t-61.5 -5.5q-33 0 -55.5 7.5t-30.5 41.5q-6 27 -5 75t4 100.5t8.5 102.5t7.5 81q18 147 37.5 291.5t37.5 291.5q14 111 26.5 201t24 167t23.5 145.5t27 134.5h6q49 23 75.5 62.5t32.5 88.5 q2 18 -3 42t-29 24q-27 0 -51.5 -19.5t-46 -46t-39 -55.5t-29.5 -49h-8q-23 -4 -47.5 -11.5t-49.5 -11.5q-70 -14 -139.5 -18t-138.5 -4q-133 0 -246 5t-246 5q-53 0 -103 -10.5t-91 -34t-69 -63.5t-36 -101q-8 -68 18.5 -119t72.5 -89t103.5 -64.5t110.5 -46.5h7l-3 -19h-4 q-68 -35 -118 -68.5t-105 -91.5q-111 -117 -170 -258t-78 -288q-12 -96 -4 -189.5t45 -167.5t107.5 -119t183.5 -45q117 0 219.5 51.5t177.5 143.5q18 20 37 46t21 52q2 14 -18.5 30.5t-32.5 20.5zM1624 115v2h-2v-2h2z" />
<glyph unicode="d" horiz-adv-x="1685" d="M1825 1147l6 55h-309q18 135 37.5 265t48.5 266h6q49 23 75.5 62.5t32.5 88.5q2 18 -3 42t-29 24q-27 0 -51.5 -19.5t-46 -46t-39 -55.5t-29.5 -49h-8q-23 -4 -47.5 -11.5t-49.5 -11.5q-70 -14 -139.5 -18t-138.5 -4q-133 0 -246 5t-246 5q-53 0 -103 -10.5t-91 -34 t-69 -63.5t-36 -101q-8 -68 18.5 -119t72.5 -89t103.5 -64.5t110.5 -46.5h7l-3 -19h-4q-68 -35 -118 -68.5t-105 -91.5q-111 -117 -170 -258t-78 -288q-12 -96 -4 -189.5t45 -167.5t107.5 -119t183.5 -45q117 0 219.5 51.5t177.5 143.5q18 20 37 46t21 52q2 14 -18.5 30.5 t-32.5 20.5q-47 -86 -109.5 -140t-163.5 -54q-88 0 -141 49t-80 122t-31 158t6 156q8 68 29 156t59.5 167t100 134t151.5 55q68 0 95.5 -34.5t39 -76.5t19.5 -77t37 -35q8 0 14 -1t15 -1q35 0 40 11t9 50l18 154q8 53 -26.5 76.5t-77.5 36.5q-35 10 -87.5 23t-109.5 32.5 t-114.5 45.5t-102.5 57.5t-70.5 69.5t-19.5 85q4 43 27.5 68.5t56.5 38t70.5 16.5t70.5 4q94 0 188.5 -5t188.5 -5q86 0 155.5 -1t157.5 7q12 2 31.5 6l39 8t37 7t25.5 3h13q-41 -94 -59.5 -189t-41.5 -194q-10 -51 -33.5 -74.5t-76.5 -23.5h-21l-14 -115h102 q-35 -199 -68.5 -395t-58.5 -395q-6 -43 -12 -96.5t2 -101.5t36 -80.5t87 -32.5q78 0 154.5 19.5t152.5 37.5l-6 72q-29 -8 -59.5 -13.5t-61.5 -5.5q-33 0 -55.5 7.5t-30.5 41.5q-6 27 -5 75t4 100.5t8.5 102.5t7.5 81q18 147 37.5 291.5t37.5 291.5h246q62 1 72 62z M1624 115v2h-2v-2h2z" />
<glyph unicode="e" horiz-adv-x="1243" d="M1200 20l-2 72q-51 -10 -90 -10q-35 0 -52.5 42t-21.5 106.5t0 142.5t12.5 149.5t16.5 128t10 78.5q14 119 21.5 236.5t7.5 236.5h-576q8 80 28.5 188.5t64 208t115 168t184.5 68.5q63 0 87.5 -31.5t35 -70.5t19.5 -71t42 -32q35 0 51 4t21 43q10 74 18 127.5t-2 87 t-49 50t-125 16.5q-121 0 -216 -49t-169 -128t-126 -179.5t-87 -204.5q-6 -14 -13.5 -37t-14.5 -46.5t-16 -44t-20 -30.5q-20 -29 -47.5 -33t-58.5 -4l-15 -115h101q-12 -61 -22.5 -122.5t-16.5 -122.5l-64 -514q-8 -68 -20 -143.5t-10 -143.5q0 -25 3 -33t32 -8h36 q29 0 56.5 7t44.5 36q10 18 20 66.5t19.5 103.5t16.5 107.5t9 76.5q20 160 33.5 318.5t32.5 318.5l8 64h471q-18 -70 -32.5 -139.5t-28.5 -141.5q-31 -150 -58.5 -298t-46.5 -302q-4 -41 -5 -83t10.5 -76.5t38 -56t79.5 -21.5q66 0 129 15t131 25z" />
<glyph unicode="f" horiz-adv-x="1202" d="M1698 1677q10 74 18 127.5t-2 87t-49 50t-125 16.5q-106 0 -192 -38t-154 -101q8 72 -24.5 105.5t-153.5 33.5t-216 -49t-169 -128t-126 -179.5t-87 -204.5q-6 -14 -13.5 -37t-14.5 -46.5t-16 -44t-20 -30.5q-20 -29 -47.5 -33t-58.5 -4l-15 -115h101q-29 -133 -43 -264 l-58 -471q-8 -76 -20 -155.5t-12 -155.5q-2 -25 20.5 -35t52 -9t58 13.5t41.5 32.5q10 18 20 66.5t19.5 103.5t16.5 107.5t9 76.5q20 160 33.5 318.5t32.5 318.5l6 53h348q-29 -133 -43 -264l-57 -471q-8 -76 -20.5 -155.5t-12.5 -155.5q-2 -25 20.5 -35t52 -9t58.5 13.5 t41 32.5q10 18 20.5 66.5t19.5 103.5t16.5 107.5t9.5 76.5q20 160 33.5 318.5t31.5 318.5l6 53h248q29 0 36 12.5t9 39.5l8 63h-284q14 117 37.5 229.5t72.5 210.5q8 6 8 15q45 78 109.5 128t163.5 50q63 0 87.5 -31.5t35 -70.5t19.5 -71t42 -32q35 0 51.5 4t20.5 43z M530 1243q6 51 17.5 115.5t30 130t47 128t69.5 111t95.5 78t128.5 29.5q49 0 73.5 -20.5t36.5 -48t17.5 -58.5t15.5 -51q-37 -59 -66.5 -127t-52.5 -133q-6 -14 -13 -37t-14.5 -46.5t-16.5 -44t-19 -30.5q-20 -29 -48 -33t-59 -4h-246z" />
<glyph unicode="g" horiz-adv-x="1126" d="M1053 367q27 211 36 417.5t25 417.5h-588q8 80 28.5 188.5t64 208t115 168t184.5 68.5q63 0 87.5 -31.5t35 -70.5t19.5 -71t42 -32q35 0 51 4t21 43q10 74 18 127.5t-2 87t-49 50t-125 16.5q-121 0 -216 -49t-169 -128t-126 -179.5t-87 -204.5q-6 -14 -13.5 -37 t-14.5 -46.5t-16 -44t-20 -30.5q-20 -29 -47.5 -33t-58.5 -4l-15 -115h101q-12 -61 -22.5 -122.5t-16.5 -122.5l-64 -514q-8 -68 -20 -143.5t-10 -143.5q0 -25 3 -33t32 -8h36q29 0 56.5 7t44.5 36q10 18 20 66.5t19.5 103.5t16.5 107.5t9 76.5q20 160 33.5 318.5 t32.5 318.5l8 64h451q-6 -27 -11.5 -53.5t-9.5 -55.5q-4 -27 -6 -53.5t-6 -52.5q-14 -117 -33.5 -227.5t-34.5 -227.5q-18 -143 -29.5 -285.5t-29.5 -285.5q-4 -23 -6 -48.5t-6 -54.5q-10 -72 -29 -146.5t-52.5 -138t-89 -103.5t-137.5 -40q-57 0 -89 28t-51 61.5t-29.5 62 t-24.5 28.5q-23 0 -41.5 -15t-32.5 -37.5t-22.5 -47t-10.5 -43.5q-6 -43 11.5 -73.5t49 -50t70.5 -29t76 -9.5q131 0 228.5 60.5t168 160t116.5 225.5t77 255t47.5 251t26.5 214z" />
<glyph unicode="h" horiz-adv-x="1288" d="M1243 20l-2 72q-45 -10 -86 -10q-37 0 -54.5 39t-22.5 96t-1 118.5t8 108.5q2 39 7 58q2 16 6 41.5t8 62.5q10 86 24.5 214t30 270.5t29.5 286t23.5 261t11.5 194.5t-6 85q-12 12 -39 20.5t-56.5 13.5t-58.5 7t-47 2q-123 0 -219.5 -48t-169 -128t-124.5 -181.5 t-87 -205.5q-6 -14 -13.5 -37t-14.5 -46.5t-16 -44t-20 -30.5q-20 -29 -47.5 -33t-58.5 -4l-15 -115h101q-14 -66 -23.5 -129t-17.5 -129l-57 -473q-10 -76 -23.5 -158.5t-11.5 -156.5q2 -23 5 -32t30 -9h36q29 0 56.5 7t44.5 36q10 18 20 66.5t19.5 104.5t16.5 107.5 t9 75.5q20 160 33.5 318.5t32.5 318.5l6 53h281q29 0 37 11.5t10 40.5l8 63h-320q6 55 17.5 125t30 139.5t47 136t71.5 119t101.5 83t134.5 30.5q63 0 96 -20.5t45 -55.5t10 -81t-8 -97q-12 -86 -27.5 -167t-29.5 -167q-45 -242 -79 -479.5t-63 -478.5q-6 -43 -11 -96.5 t2 -100.5t34 -78.5t86 -31.5q66 0 130 14t130 24z" />
<glyph unicode="i" horiz-adv-x="1290" d="M1430 1149l6 55h-281q2 14 9 66.5t12.5 108t5.5 98.5q0 45 -15 45q-51 0 -76.5 -23.5t-40 -59.5t-21.5 -77t-19.5 -77t-36 -59.5t-70.5 -23.5h-377l4 41q6 51 17.5 115.5t30 130t47 128t69.5 111t95.5 78t128.5 29.5q63 0 87.5 -31.5t35 -70.5t19.5 -71t42 -32q35 0 51 4 t21 43q10 74 18 127.5t-2 87t-49 50t-125 16.5q-121 0 -216 -49t-169 -128t-126 -179.5t-87 -204.5q-6 -14 -13.5 -37t-14.5 -46.5t-16 -44t-20 -30.5q-20 -29 -47.5 -33t-58.5 -4l-15 -115h101q-29 -133 -43 -264l-58 -471q-8 -76 -20 -155.5t-12 -155.5q-2 -25 20.5 -35 t52 -9t58 13.5t41.5 32.5q10 18 20 66.5t19.5 103.5t16.5 107.5t9 76.5q20 160 33.5 318.5t32.5 318.5l6 53h461q-37 -217 -74 -433t-63 -433q-6 -41 -7.5 -83t9 -75.5t38 -55t80.5 -21.5q76 0 156 18.5t154 38.5l-9 72q-29 -8 -59.5 -13.5t-58.5 -5.5q-31 0 -55.5 8.5 t-32.5 40.5q-6 27 -5.5 81.5t5 114.5t10.5 116.5t10 89.5q16 135 35.5 270t36.5 270h219q60 1 70 62zM1257 119h-2l-2 -2h2z" />
<glyph unicode="j" horiz-adv-x="1720" d="M1059 1200q6 53 16 121t28.5 138.5t46.5 137t70 119.5t98 85t132 32q63 0 88 -32t35 -70.5t18 -70.5t41 -32q35 0 52.5 4t21.5 43q10 74 18.5 127t-2 87t-49.5 50.5t-125 16.5q-111 0 -198.5 -41t-157.5 -107q4 39 1 67t-21.5 46t-55.5 27.5t-100 9.5q-121 0 -216 -49 t-169 -128t-126 -179.5t-87 -204.5q-6 -14 -13.5 -37t-14.5 -46.5t-16 -44t-20 -30.5q-20 -29 -47.5 -33t-58.5 -4l-15 -115h101q-29 -133 -43 -264l-58 -471q-8 -76 -20 -155.5t-12 -155.5q-2 -25 20.5 -35t52 -9t58 13.5t41.5 32.5q10 18 20 66.5t19.5 103.5t16.5 107.5 t9 76.5q20 160 33.5 318.5t32.5 318.5l6 53l356 -2q-14 -61 -23 -122.5t-18 -122.5l-61 -514q-8 -68 -20.5 -144t-10.5 -143q0 -25 2 -33t31 -8h37q31 0 58.5 7t43.5 36q10 18 20.5 66.5t19.5 103.5t16.5 107.5t9.5 76.5q20 160 32.5 318.5t32.5 318.5l8 64h472 q-18 -70 -33 -139.5t-29 -141.5q-31 -150 -58.5 -298t-45.5 -302q-4 -41 -5.5 -83t10 -77t38 -56.5t80.5 -21.5q66 0 129 15.5t131 25.5l-2 72q-51 -10 -91 -10q-35 0 -51 42t-21 106.5t-1 142.5t11 149.5t15.5 128t12.5 78.5q14 119 21 236.5t7 236.5h-575zM883 1206 l-357 -4l4 41q6 51 17.5 115.5t30 130t47 128t69.5 111t95.5 78t128.5 29.5q51 0 75.5 -21.5t36.5 -52t18.5 -62.5t18.5 -50q-37 -59 -66.5 -124t-52.5 -130z" />
<glyph unicode="k" horiz-adv-x="1847" d="M1802 20l-2 72q-45 -10 -86 -10q-37 0 -54.5 39t-22.5 96t-1 118.5t9 108.5q2 39 6 58q2 16 6 41.5t8 62.5q10 86 24.5 214t30 270.5t29.5 286t23.5 261t11.5 194.5t-6 85q-12 12 -39 20.5t-56.5 13.5t-58.5 7t-47 2q-111 0 -200 -40t-158 -105q12 74 -22 108.5 t-155 34.5t-216 -49t-168.5 -128t-126 -179.5t-87.5 -204.5q-6 -14 -13 -37t-14 -46.5t-16.5 -44t-19.5 -30.5q-20 -29 -48 -33t-59 -4l-14 -115h100q-29 -133 -43 -264l-57 -471q-8 -76 -20.5 -155.5t-12.5 -155.5q-2 -25 20.5 -35t52.5 -9t58.5 13.5t40.5 32.5 q10 18 20.5 66.5t20 103.5t16.5 107.5t9 76.5q20 160 33.5 318.5t31.5 318.5l7 53h356q-14 -66 -23.5 -129t-17.5 -129l-57 -473q-10 -76 -23.5 -158.5t-11.5 -156.5q2 -23 5 -32t30 -9h36q29 0 56.5 7t44.5 36q10 18 20.5 66.5t19.5 104.5t16 107.5t9 75.5 q20 160 33.5 318.5t32.5 318.5l6 53h281q29 0 37 11.5t10 40.5l8 63h-320q6 55 17.5 125t30 139.5t47 136t71.5 119t100.5 83t135.5 30.5q63 0 96 -20.5t45 -55.5t10 -81t-8 -97q-12 -86 -27.5 -167t-29.5 -167q-45 -242 -79 -479.5t-62 -478.5q-6 -43 -11.5 -96.5t2 -100.5 t34 -78.5t85.5 -31.5q66 0 130 14t130 24zM977 1397q-6 -14 -13.5 -37t-14.5 -46.5t-16 -44t-20 -30.5q-20 -29 -47.5 -33t-58.5 -4h-254l4 41q6 51 17.5 115.5t30 130t47 128t69.5 111t95 78t128 29.5q51 0 75.5 -21.5t37 -51t17.5 -60.5t18 -51q-37 -59 -64.5 -123.5 t-50.5 -130.5z" />
<glyph unicode="l" horiz-adv-x="1849" d="M1985 1149l6 55h-281q2 14 9 66.5t12.5 108t5.5 98.5q0 45 -15 45q-51 0 -76.5 -23.5t-40 -59.5t-21.5 -77t-19.5 -77t-36 -59.5t-70.5 -23.5h-358l4 41q6 51 17.5 115.5t29.5 130t47 128t70 111t95 78t128 29.5q63 0 88 -31.5t35 -70.5t19 -71t42 -32q35 0 51.5 4 t20.5 43q10 74 18.5 127.5t-2 87t-49.5 50t-125 16.5q-117 0 -206 -44t-160 -116q4 41 2 70.5t-19.5 50t-55.5 30t-103 9.5q-121 0 -216.5 -49t-169 -128t-126 -179.5t-86.5 -204.5q-6 -14 -13.5 -37t-14.5 -46.5t-16.5 -44t-19.5 -30.5q-20 -29 -48 -33t-58 -4l-15 -115 h101q-29 -133 -43 -264l-58 -471q-8 -76 -20.5 -155.5t-12.5 -155.5q-2 -25 20.5 -35t52.5 -9t58.5 13.5t40.5 32.5q10 18 20.5 66.5t20 103.5t16.5 107.5t9 76.5q20 160 33.5 318.5t32.5 318.5l6 53h147h78q27 0 33 1.5t8 1.5v-3h100q-29 -133 -43 -264l-57 -471 q-8 -76 -20.5 -155.5t-12.5 -155.5q-2 -25 20.5 -35t52.5 -9t58.5 13.5t40.5 32.5q10 18 20.5 66.5t19.5 103.5t16.5 107.5t9.5 76.5q20 160 33.5 318.5t31.5 318.5l6 53h443q-37 -217 -74 -433t-63 -433q-6 -41 -7.5 -83t9 -75.5t38 -55t80.5 -21.5q76 0 156 18.5t154 38.5 l-9 72q-29 -8 -59.5 -13.5t-58.5 -5.5q-31 0 -55.5 8.5t-32.5 40.5q-6 27 -5.5 81.5t5 114.5t10.5 116.5t10 89.5q16 135 35.5 270t36.5 270h219q60 1 70 62zM991 1397q-6 -14 -13 -37t-14.5 -46.5t-16.5 -44t-19 -30.5q-20 -29 -48 -33t-59 -4h-264l4 41q6 51 17.5 115.5 t30 130t47 128t69.5 111t95 78t128 29.5q53 0 78 -23.5t36 -55.5t16 -64.5t22 -49.5q-35 -59 -62 -120.5t-47 -124.5zM1812 119h-2l-2 -2h2z" />
<glyph unicode="m" horiz-adv-x="1447" d="M1954 1663q10 74 18 127t-2 87t-49 50.5t-125 16.5t-158.5 -26t-136.5 -71q-37 -16 -63.5 -30.5t-51 -25.5t-50 -20.5t-60.5 -15.5q-70 -14 -137.5 -17t-134.5 -3q-129 0 -259.5 5t-259.5 5q-51 0 -102 -9.5t-94 -33t-74 -63.5t-39 -99q-8 -68 20.5 -120t78 -92 t107.5 -67.5t110 -48.5h6l-2 -16h-7q-111 -51 -174 -129t-77 -195q-10 -84 19.5 -144t78.5 -107.5t108.5 -86t109.5 -79.5t81 -90.5t22 -114.5q-8 -84 -73.5 -131t-143.5 -47q-76 0 -122 30.5t-73.5 68.5t-42 68.5t-26.5 30.5q-20 0 -38.5 -17t-34 -41t-24.5 -49.5 t-11 -41.5q-6 -49 23.5 -81t75.5 -49.5t97 -24.5t88 -7q86 0 167 29.5t145.5 82t106.5 126t52 161.5q10 84 -18.5 147.5t-76.5 114t-105.5 92.5t-107.5 84t-81 87t-24 102q8 72 62 107.5t120 35.5q51 0 78.5 -14t40 -35.5t15.5 -47t9 -47t18.5 -36t43.5 -14.5q14 0 24 11 t16.5 26.5t10.5 34t6 34.5q2 10 3 19.5t1 13.5q4 29 4 64q0 37 -24 55q-16 14 -40 19.5t-46 9.5q-31 8 -82.5 22t-109.5 34.5t-116.5 47.5t-104.5 58.5t-72.5 69.5t-20.5 81q4 43 32.5 68.5t67.5 39t81 16.5t75 3q123 0 242.5 -5t242.5 -5q59 0 118.5 1t119.5 9q4 0 23.5 4 t41 9t36.5 6t13 -5q-47 -66 -81.5 -141.5t-59.5 -151.5q-6 -14 -13 -36.5t-14.5 -46t-16.5 -44t-19 -30.5q-20 -29 -48 -33t-59 -4l-14 -115h100q-14 -66 -23.5 -132.5t-17.5 -131.5l-57 -471q-10 -76 -21.5 -156t-13.5 -155q0 -25 22.5 -35t51 -9t57.5 13t41 33 q10 18 20.5 66t19.5 103.5t16.5 107.5t9.5 77q20 160 33.5 318.5t31.5 318.5l6 53h248q29 0 36 12.5t9 38.5l8 64h-284l6 41q6 51 16 115.5t28.5 130t47.5 128t70 110.5t96 78t127 30q63 0 87.5 -32t35 -71t19.5 -70.5t42 -31.5q35 0 51.5 4t20.5 43z" />
<glyph unicode="n" horiz-adv-x="2072" d="M2066 14l-2 70q-4 -2 -2 -1t-2 1q-20 0 -40.5 -5t-43.5 -5q-37 0 -53 30.5t-20.5 73.5t-1 87t5.5 69l61 497q8 59 12.5 128t-11 126.5t-55.5 95.5t-120 38q-74 0 -146.5 -48.5t-139 -124t-124 -172t-102.5 -190.5q23 168 35 283.5t20.5 199.5t13.5 146.5t12 123t18.5 129 t31.5 167.5h6q49 23 76 62.5t33 88.5q2 18 -3 42t-30 24q-27 0 -51.5 -19.5t-46 -46t-39 -55.5t-29.5 -49h-8q-25 -4 -51.5 -12.5t-50.5 -12.5q-70 -14 -137.5 -17t-135.5 -3q-66 0 -121 2t-109 3t-110.5 3t-120.5 2q-51 0 -102 -9.5t-94 -33t-74 -63.5t-39 -99 q-8 -68 20.5 -120t78 -92t107.5 -67.5t110 -48.5h6q-117 -63 -181.5 -143t-78.5 -197q-10 -84 19.5 -144t78.5 -107.5t108.5 -86t109.5 -79.5t81 -90.5t22 -114.5q-8 -84 -73.5 -131t-143.5 -47q-76 0 -122 30.5t-73.5 68.5t-42 68.5t-26.5 30.5q-20 0 -38.5 -17t-34 -41 t-24.5 -49.5t-11 -41.5q-6 -49 23.5 -81t75.5 -49.5t97 -24.5t88 -7q86 0 167 29.5t145.5 82t106.5 126t52 161.5q10 84 -18.5 147.5t-76.5 114t-105.5 92.5t-107.5 84t-81 87t-24 102q8 72 62 107.5t120 35.5q51 0 78.5 -14t40 -35.5t15.5 -47t9 -47t18.5 -36t43.5 -14.5 q14 0 24 11t16.5 26.5t10.5 34t6 34.5q2 10 3 19.5t1 13.5q4 29 4 64q0 37 -24 55q-16 14 -40 19.5t-46 9.5q-31 8 -82.5 22t-109.5 34.5t-116.5 47.5t-104.5 58.5t-72.5 69.5t-20.5 81q4 43 32.5 68.5t67.5 39t81 16.5t75 3q61 0 112.5 -2t101.5 -3t101 -3t113 -2 q59 0 118.5 1t118.5 9q23 2 56.5 11t62.5 9q-23 -49 -37 -98q-14 -37 -23 -71.5t-16.5 -74.5t-13.5 -86t-12 -104q-4 -39 -10.5 -84t-14.5 -98l-139 -1036q-2 -18 3 -29.5t26 -11.5q55 0 87.5 4t51 20.5t27 49t16.5 92.5q23 199 85 385t179 360q18 27 46 62.5t60.5 67.5 t67.5 53.5t70 21.5q31 0 47 -12.5t23.5 -31t6.5 -42t-6 -47.5q-23 -193 -61.5 -382.5t-60.5 -381.5q-6 -41 -7.5 -83t10 -76t39 -55.5t80.5 -21.5q66 0 129.5 15.5t126.5 27.5z" />
<glyph unicode="o" horiz-adv-x="2107" d="M2118 37l-15 61q-31 -10 -63 -10q-74 0 -128 43t-97 108.5t-79 143.5t-73 150.5t-79 129t-97 76.5h-2l489 398h119l10 73h-479l-10 -73q16 0 39.5 1t45 -2t35 -13.5t9.5 -35.5q-2 -16 -31 -46.5t-72 -70.5t-96 -82t-103 -79t-92 -64.5t-65 -35.5q20 162 33.5 273.5 t21 193t12.5 142t12 120t18.5 128t29.5 167.5h6q49 23 76 62.5t33 88.5q2 18 -3 42t-30 24q-27 0 -51.5 -19.5t-46 -46t-39 -55.5t-29.5 -49h-8q-25 -4 -51.5 -12.5t-50.5 -12.5q-70 -14 -137.5 -17t-135.5 -3q-66 0 -121 2t-109.5 3t-109.5 3t-119 2q-51 0 -102 -9.5 t-94 -33t-74 -63.5t-39 -99q-8 -68 20.5 -120t78 -92t107.5 -67.5t110 -48.5h6q-117 -63 -181.5 -143t-78.5 -197q-10 -84 19.5 -144t78.5 -107.5t108.5 -86t109.5 -79.5t81 -90.5t22 -114.5q-8 -84 -73.5 -131t-143.5 -47q-76 0 -122 30.5t-73.5 68.5t-42 68.5t-26.5 30.5 q-20 0 -38.5 -17t-34 -41t-24.5 -49.5t-11 -41.5q-6 -49 23.5 -81t75.5 -49.5t97 -24.5t88 -7q86 0 163 29.5t137.5 82t99.5 126t49 161.5q10 84 -17.5 147.5t-73.5 114t-101.5 92.5t-101.5 84t-75 87t-22 102q8 72 62 107.5t120 35.5q51 0 78.5 -14t40 -35.5t15.5 -47 t9 -47t18.5 -36t43.5 -14.5q14 0 24 11t16.5 26.5t10.5 34t6 34.5q2 10 3 19.5t1 13.5q4 29 4 64q0 37 -24 55q-16 14 -40 19.5t-46 9.5q-31 8 -82.5 22t-109.5 34.5t-116.5 47.5t-104.5 58.5t-72.5 69.5t-20.5 81q4 43 32.5 68.5t67.5 39t81 16.5t75 3q61 0 112.5 -2 t100.5 -3t100 -3t113 -2q59 0 118.5 1t118.5 9q23 2 56.5 11t62.5 9q-23 -49 -37 -98q-14 -37 -23.5 -71.5t-16.5 -74.5t-13 -86t-12 -104q-4 -39 -10.5 -84t-14.5 -98l-139 -1036q-2 -18 3 -29.5t26 -11.5q55 0 87.5 4t51 20.5t27 49t16.5 92.5l41 426h2l110 82 q25 -94 68 -210t108.5 -218.5t155.5 -172t207 -69.5q99 0 197 45z" />
<glyph unicode="p" horiz-adv-x="1398" d="M1401 27l-2 71q-23 -4 -44.5 -8t-43.5 -4q-35 0 -52.5 20.5t-23.5 49t-4 62.5t6 58q18 197 34.5 385.5t39.5 385.5q6 59 12 118.5t14 118.5q14 119 25 244q8 43 16 92t23 113h6q49 23 75.5 62.5t33.5 88.5q2 18 -3.5 42t-29.5 24q-25 0 -50.5 -19.5t-48 -46t-42 -55.5 t-33.5 -49q-25 -4 -51.5 -12.5t-51.5 -12.5q-70 -14 -137.5 -17t-134.5 -3q-66 0 -119 2t-105.5 3t-106.5 3t-118 2q-51 0 -102 -9.5t-94 -33t-74 -63.5t-39 -99q-8 -68 20.5 -120t78 -92t107.5 -67.5t110 -48.5h6q-117 -63 -181.5 -143t-78.5 -197q-10 -84 19.5 -144 t78.5 -107.5t108.5 -86t109.5 -79.5t81 -90.5t22 -114.5q-8 -84 -73.5 -131t-143.5 -47q-76 0 -122 30.5t-73.5 68.5t-42 68.5t-26.5 30.5q-20 0 -38.5 -17t-34 -41t-24.5 -49.5t-11 -41.5q-6 -49 23.5 -81t75.5 -49.5t97 -24.5t88 -7q86 0 167 29.5t145.5 82t106.5 126 t52 161.5q10 84 -18.5 147.5t-76.5 114t-105.5 92.5t-107.5 84t-81 87t-24 102q8 72 62 107.5t120 35.5q51 0 78.5 -14t40 -35.5t15.5 -47t9 -47t18.5 -36t43.5 -14.5q14 0 24 11t16.5 26.5t10.5 34t6 34.5q2 10 3 19.5t1 13.5q4 29 4 64q0 37 -24 55q-16 14 -40 19.5 t-46 9.5q-31 8 -82.5 22t-109.5 34.5t-116.5 47.5t-104.5 58.5t-72.5 69.5t-20.5 81q4 43 32.5 68.5t67.5 39t81 16.5t75 3q61 0 110.5 -2t97.5 -3t97 -3t111 -2q59 0 118.5 1t118.5 9q10 0 28.5 2t39 5t38 8t27.5 14q-27 -61 -44 -112.5t-29.5 -101t-21.5 -103.5t-22 -122 q-41 -242 -77.5 -478t-65.5 -478q-6 -43 -12 -96.5t2 -101.5t34.5 -80.5t88.5 -32.5q66 0 130 16.5t130 26.5z" />
<glyph unicode="q" horiz-adv-x="1966" d="M1919 629q14 123 -3.5 231.5t-71.5 189t-146 128t-228 47.5q-25 0 -51 -4t-61 -4q12 98 22.5 172.5t19.5 134t19.5 109.5t22.5 100q55 23 81.5 62.5t32.5 88.5q2 18 -3 42t-29 24q-27 0 -51.5 -19.5t-46 -46t-39 -55.5t-29.5 -49h-8q-25 -4 -51.5 -12.5t-51.5 -12.5 q-70 -14 -137.5 -17t-134.5 -3q-129 0 -245 5t-245 5q-51 0 -102 -9.5t-94 -33t-74 -63.5t-39 -99q-8 -68 20.5 -120t78 -92t107.5 -67.5t110 -48.5h6l-2 -16h-7q-111 -51 -174 -129t-77 -195q-10 -84 19.5 -144t78.5 -107.5t108.5 -86t109.5 -79.5t81 -90.5t22 -114.5 q-8 -84 -73.5 -131t-143.5 -47q-76 0 -122 30.5t-73.5 68.5t-42 68.5t-26.5 30.5q-20 0 -38.5 -17t-34 -41t-24.5 -49.5t-11 -41.5q-6 -49 23.5 -81t75.5 -49.5t97 -24.5t88 -7q86 0 165 29.5t140.5 82t101.5 126t50 161.5q10 84 -17.5 147.5t-73.5 114t-102.5 92.5 t-104.5 84t-78 87t-23 102q8 72 62 107.5t120 35.5q51 0 78.5 -14t40 -35.5t15.5 -47t9 -47t18.5 -36t43.5 -14.5q14 0 24 11t16.5 26.5t10.5 34t6 34.5q2 10 3 19.5t1 13.5q4 29 4 64q0 37 -24 55q-16 14 -40 19.5t-46 9.5q-31 8 -82.5 22t-109.5 34.5t-116.5 47.5 t-104.5 58.5t-72.5 69.5t-20.5 81q4 43 32.5 68.5t67.5 39t81 16.5t75 3q123 0 228.5 -5t227.5 -5q59 0 119 1t119 9q23 2 55.5 11t51.5 9h12q-18 -41 -31.5 -79.5t-23.5 -79.5q-25 -143 -39.5 -239.5t-22.5 -133.5h-4q-92 -51 -164 -108.5t-143 -131.5l49 -57 q51 53 110.5 97t135.5 83q-37 -217 -73 -433t-62 -437q-29 -233 -57.5 -460.5t-59.5 -461.5v-26q0 -18 16 -19q49 0 66.5 26.5t38.5 67.5q39 68 62.5 125.5t37.5 112.5t23.5 114.5t17.5 131.5q4 27 6 53.5t6 52.5q4 27 6 53.5t7 53.5q16 2 54 -5.5t62 -7.5q129 0 231.5 60.5 t176.5 155t119 211t59 229.5zM1708 545q-8 -72 -26.5 -155t-56.5 -153.5t-98.5 -118.5t-152.5 -48q-39 0 -74.5 10t-68.5 33l123 997q16 -2 38.5 2t43.5 4q100 0 159.5 -60.5t87 -147.5t31.5 -186t-6 -177z" />
<glyph unicode="r" horiz-adv-x="1560" d="M1688 1147l6 55h-310q18 135 38 265t48 266h7q49 23 75.5 62.5t32.5 88.5q2 18 -3 42t-30 24q-27 0 -51 -19.5t-45.5 -46t-39 -55.5t-30.5 -49h-8q-25 -4 -51.5 -12.5t-50.5 -12.5q-70 -14 -137.5 -17t-134.5 -3q-129 0 -259.5 5t-259.5 5q-51 0 -102 -9.5t-94 -33 t-74 -63.5t-39 -99q-8 -68 20.5 -120t78 -92t107.5 -67.5t110 -48.5h6l-2 -16h-7q-111 -51 -174 -129t-77 -195q-10 -84 19.5 -144t78.5 -107.5t108.5 -86t109.5 -79.5t81 -90.5t22 -114.5q-8 -84 -73.5 -131t-143.5 -47q-76 0 -122 30.5t-73.5 68.5t-42 68.5t-26.5 30.5 q-20 0 -38.5 -17t-34 -41t-24.5 -49.5t-11 -41.5q-6 -49 23.5 -81t75.5 -49.5t97 -24.5t88 -7q86 0 167 29.5t145.5 82t106.5 126t52 161.5q10 84 -18.5 147.5t-76.5 114t-105.5 92.5t-107.5 84t-81 87t-24 102q8 72 62 107.5t120 35.5q51 0 78.5 -14t40 -35.5t15.5 -47 t9 -47t18.5 -36t43.5 -14.5h16q8 0 15.5 11t12.5 26.5t8 34t5 34.5q2 10 3 19.5t1 13.5q4 29 4 64q0 37 -24 55q-16 14 -40 19.5t-46 9.5q-31 8 -82.5 22t-109.5 34.5t-116.5 47.5t-104.5 58.5t-72.5 69.5t-20.5 81q4 43 32.5 68.5t67.5 39t81 16.5t75 3q123 0 242.5 -5 t242.5 -5q59 0 118.5 1t119.5 9q23 2 55.5 11t50.5 9h12q-41 -94 -59 -189t-41 -194q-14 -66 -41.5 -82t-89.5 -16l-14 -115h102q-37 -217 -75 -433t-62 -433q-6 -41 -7 -83t10 -75.5t39 -55t81 -21.5q76 0 154.5 19.5t152.5 37.5l-4 70v2q-27 0 -59.5 -9.5t-63.5 -9.5 q-33 0 -55.5 8.5t-30.5 40.5q-4 23 -6 54.5t0 68.5t5 76t7 76q4 25 6 45t4 37q18 147 37 292.5t37 292.5h246q62 1 72 62z" />
<glyph unicode="s" horiz-adv-x="655" d="M1174 1677q10 74 18 127.5t-2 87t-49 50t-125 16.5q-121 0 -217.5 -49t-170 -128t-125.5 -179.5t-87 -204.5q-25 -72 -46.5 -160t-38 -171t-26.5 -149.5t-14 -93.5l-58 -471q-8 -76 -20 -155.5t-12 -155.5q-2 -25 20.5 -35t52 -9t58 13.5t41.5 32.5q10 18 20 66.5 t19.5 103.5t16.5 107.5t9 76.5q20 160 33.5 318.5t32.5 318.5l26 209q6 51 17.5 115.5t30 130t47 128t69.5 111t95.5 78t128.5 29.5q63 0 87.5 -31.5t35 -70.5t19.5 -71t42 -32q35 0 51.5 4t20.5 43z" />
<glyph unicode="t" horiz-adv-x="1302" d="M1460 1149l6 55h-280q2 14 9 66.5t12 108t5 98.5q0 45 -14 45q-51 0 -76.5 -23.5t-40 -59.5t-21.5 -77t-19.5 -77t-36 -59.5t-70.5 -23.5h-389q2 14 9 66.5t12 108t5 98.5q0 45 -14 45q-51 0 -76.5 -23.5t-40 -59.5t-21.5 -77t-19.5 -77t-36 -59.5t-70.5 -23.5h-23 l-14 -115h104q-37 -217 -74.5 -433t-62.5 -433q-6 -41 -7 -83t9.5 -75.5t38 -55t80.5 -21.5q76 0 156 18t153 39l-8 72q-29 -8 -59.5 -13.5t-59.5 -5.5q-31 0 -55.5 8.5t-32.5 40.5q-6 27 -5 81.5t5 114.5t10.5 116.5t10.5 89.5q16 135 35.5 270t35.5 270h232h123q41 0 49 1 t12 1l55 3q-37 -217 -73.5 -434.5t-63.5 -434.5q-6 -41 -7 -83t9.5 -75.5t38 -55t80.5 -21.5q76 0 156 18.5t153 38.5l-8 72q-29 -8 -59.5 -13.5t-59.5 -5.5q-31 0 -55.5 8.5t-32.5 40.5q-6 27 -5 81.5t5 114.5t10.5 116.5t10.5 89.5q16 135 35.5 270t35.5 270h220 q59 1 69 62zM645 117h-2v-2h2v2zM1288 119h-2l-2 -2h2z" />
<glyph unicode="u" horiz-adv-x="2539" d="M2492 25q-6 51 -5 60t-3 9q-20 0 -40.5 -5t-43.5 -5q-37 0 -54 30.5t-22.5 73.5t-2.5 87t6 69l51 498q6 59 9 127.5t-12.5 126t-56.5 95.5t-120 38q-74 0 -146 -48t-136.5 -124t-120.5 -172.5t-99 -190.5q10 57 17 112.5t11 108.5q20 195 28.5 369t27.5 344 q10 117 30.5 231.5t55.5 235.5q55 23 81.5 63t30.5 89q2 18 -3 41.5t-29 23.5q-25 0 -49.5 -19.5t-47 -46t-42 -55t-31.5 -49.5q-25 -4 -51.5 -12t-51.5 -12q-35 -6 -62.5 -10.5t-54 -6.5t-54 -3t-60.5 -1q-129 0 -245 5t-245 5q-49 0 -101 -9t-95 -32.5t-73 -63.5t-36 -99 q-8 -68 21.5 -120t79 -91t108.5 -68t111 -49q12 -6 24.5 -12.5t24.5 -14.5q-66 -2 -128.5 -3t-125.5 -1q-129 0 -257 4t-257 4q-16 0 -17 -20l-2 -6q-2 -25 -10 -51.5t-16 -51.5q-18 -59 -35.5 -120.5t-24.5 -120.5q-2 -10 13.5 -12.5t29.5 -2.5h19q33 0 48 20.5t23.5 51.5 t15.5 65.5t26.5 65.5t56.5 51.5t104 20.5q25 0 50.5 1t50.5 1h110q-45 -213 -80 -425t-57 -427q-14 -129 -22.5 -255t-12.5 -255h-143l-8 -82h477l8 82h-147q23 129 42 260t33 262q10 98 14.5 197.5t7.5 199t7 198.5t14 198l4 47q37 0 75 1t75 1h14q20 0 49 -1t56.5 -5 t51 -12.5t34.5 -22.5q14 -23 18 -61.5t10.5 -78.5t18.5 -69t43 -29q8 0 16 -1t19 -1q25 0 32 21q-2 10 -1 40.5t3 72.5t3.5 87.5t1.5 83.5q0 39 -3.5 64t-11.5 25h-22q-16 10 -39 15t-43 9q-33 8 -84 22.5t-109.5 35t-117 47t-104.5 59.5t-73.5 69.5t-23.5 79.5t32.5 69 t67.5 39t81 16t75 3q123 0 227.5 -5t226.5 -5h52q25 0 47 1t45.5 3t54.5 6q23 2 52.5 6.5t62.5 20.5q-72 -242 -109 -485.5t-65 -489.5l-121 -1036q-2 -18 3 -29.5t26 -11.5q55 0 87.5 4t51 20.5t27 49t14.5 92.5q20 197 78.5 385t173.5 360q18 27 44.5 63t58.5 67.5 t66.5 53t69.5 21.5q31 0 47.5 -12t23.5 -30.5t7 -43.5q0 -23 -2 -47q-20 -193 -55 -382t-56 -382q-4 -41 -5 -83t11.5 -75.5t40 -55t80.5 -21.5q66 0 128 15.5t128 27.5z" />
<glyph unicode="x" horiz-adv-x="2121" d="M1026 915q16 141 -49.5 228.5t-208.5 87.5q-139 0 -242.5 -78t-175 -193.5t-113.5 -247.5t-57 -243q-8 -82 -6 -170t27.5 -160.5t84 -120t163.5 -47.5q111 0 215 49.5t180 135.5q14 16 33.5 39.5t21.5 44.5q0 8 -5 20t-13.5 20.5t-17.5 10.5t-17 -8q-49 -66 -116.5 -112 t-149.5 -46q-59 0 -97.5 21.5t-59 58.5t-26.5 84t-2 98q115 0 222.5 37t193.5 106.5t143.5 166.5t71.5 218zM2140 6l-10 74q-33 -8 -74 -8q-47 0 -78.5 22.5t-54.5 57.5q-78 113 -131 239.5t-104 255.5l383 471h112l8 74h-360l-6 -74h20q25 0 48.5 -5t23.5 -17 q-2 -10 -21.5 -39t-47 -66t-61.5 -75.5t-64.5 -71.5t-53 -54.5t-29.5 -21.5q-20 0 -24 23q-45 104 -97.5 202.5t-101.5 198.5h-231l-8 -74h127q39 -141 82 -277t77 -278h-2l-342 -420q-18 -23 -33.5 -39t-32 -25t-37 -13.5t-48.5 -4.5l-8 -71q45 4 77.5 7t60 12t53.5 26.5 t56 48.5q10 8 34 37t54.5 67.5t63.5 81.5t62.5 79t51 59.5t27.5 23.5q12 0 29.5 -33.5t41 -85t56.5 -111t77 -110.5t100.5 -85t127.5 -34q53 0 103.5 10.5t103.5 22.5zM848 874q-10 -76 -44 -146.5t-87 -124.5t-122 -87t-149 -33q-39 0 -45 24.5t-2 55.5q4 37 13.5 94.5 t25 121t38 127t54 114.5t74.5 83t96 32q49 0 80 -26t47.5 -63.5t20.5 -84t0 -87.5z" />
<glyph unicode="&#xac;" horiz-adv-x="2097" d="M84 -8h1688q68 0 121 17.5t89.5 48t56 70.5t19.5 85q0 88 -46 139t-122 76q51 25 83 71t32 109q0 35 -8 64.5t-31 56.5h6v287h-96l-8 -191h-598v385h-473v256h108v99h-850l-18 -217h100l8 118h224v-641h-285v-833zM471 729v737h221v-354h475v-285h-108v-98h4l154 -381 h-394l-41 -96h471l66 -162h-1135v639h287zM1432 90h-7l-262 639h545q61 0 98 -13.5t58.5 -32.5t29 -40.5t7.5 -38.5q0 -57 -51.5 -95t-123.5 -38h-233v-98h211q16 0 57 -3t83 -16.5t75 -43t33 -83.5q0 -53 -25.5 -80.5t-65.5 -41t-86 -15.5t-89 -2h-254v2zM1872 1276h94 l-6 287h-602v-453h313v-104h96v309h-96v-107h-211v256h395zM692 829l27 -364h98l25 364h-150z" />
<glyph unicode="&#xb6;" horiz-adv-x="1955" d="M1929 911q18 8 24.5 18.5t1.5 17.5t-19.5 8t-32.5 -7q-80 -31 -135.5 -52.5t-92.5 -30.5t-59.5 -6t-34.5 22q-18 27 -50 51t-68 40.5t-74.5 27t-71.5 10.5q-39 0 -65.5 -6.5t-51 -14.5t-51.5 -14t-66 -6q-49 -4 -79.5 16.5t-49 57t-24.5 87t-6 107.5q0 78 9 120t40 73 q33 -8 73.5 0t75.5 29.5t57.5 53t16.5 68.5q-14 51 -46 70.5t-76 22.5t-94 -2t-101.5 -1t-98.5 24.5t-84 76.5q-25 37 -44 78.5t-52 62.5q-29 35 -55.5 37t-48 -10.5t-38 -31t-24.5 -26.5q-16 -16 -9 -47t20.5 -62.5t25.5 -60.5t8 -37q-63 -25 -96 -60.5t-46 -76.5t-12 -86 t3 -88t0 -83t-21 -71q-31 -51 -81 -98t-96 -95t-74.5 -99.5t-14.5 -112.5q0 -23 17.5 -61.5t53 -77.5t89 -68t127.5 -29q78 0 118.5 20.5t59 53.5t20.5 75t3 87t6.5 88t31 78t77.5 58.5t147 27.5q14 -31 33.5 -55.5t38 -47t30.5 -48t12 -62.5q-29 -55 -78 -106.5 t-106 -101.5t-116.5 -99.5t-105.5 -99.5t-73 -101t-20 -107q35 -66 103.5 -80t139.5 33q0 31 -3 55.5t-4 47t3 44t19 50.5l43 72q31 -74 37 -135.5t1.5 -115t-13.5 -101.5t-9 -95h154q12 57 9 114.5t-9.5 110t-9.5 96.5t10.5 75.5t48.5 50t104 18.5q39 0 55.5 1t20.5 -1 t3 -8t5 -19q-23 -61 -10.5 -127.5t36 -133t47 -131t23.5 -124.5q84 -2 110 24.5t17.5 72t-36 101.5t-50 115.5t-26.5 115t37 96.5q10 -10 25.5 -50.5t33.5 -93.5t40.5 -113.5t47.5 -110.5t50.5 -83t51.5 -33q39 0 60.5 7.5t34 16.5t20.5 16t25 7q-2 12 1 23.5t5 23t0 23.5 t-17 29q-51 2 -91 16t-68.5 48t-49 90.5t-32.5 142.5q80 29 121 78t61.5 104t29.5 107.5t23 84.5zM623 1319q33 61 66.5 101t66.5 26q31 -16 30 -70q0 -55 -32 -112q-33 -59 -77 -87t-77 -12q-31 16 -20.5 55.5t43.5 98.5zM457 1419q31 61 72.5 96t70.5 21q29 -16 17.5 -60 t-42.5 -108q-35 -61 -63.5 -105t-58.5 -30q-29 16 -28 69.5t32 116.5zM289 774q20 39 42.5 64.5t41.5 15.5q20 -8 20 -45q0 -35 -20 -70q-23 -39 -50.5 -56t-48.5 -7q-20 10 -14 35.5t29 62.5zM195 840q20 39 45.5 61.5t46.5 11.5q18 -10 11 -37.5t-28 -68.5 q-20 -41 -39.5 -68.5t-37.5 -17.5q-18 8 -19 43q1 37 21 76zM643 1290q0 -18 10.5 -30.5t26.5 -12.5t26.5 12.5t10.5 30.5t-10.5 31.5t-26.5 13.5t-26.5 -13.5t-10.5 -31.5zM477 1389q0 -16 10.5 -28.5t26.5 -12.5t27.5 12t11.5 29q0 16 -11.5 28.5t-27.5 12.5t-26.5 -12.5 t-10.5 -28.5z" />
<glyph unicode="&#x2000;" horiz-adv-x="1156" />
<glyph unicode="&#x2001;" horiz-adv-x="2312" />
<glyph unicode="&#x2002;" horiz-adv-x="1156" />
<glyph unicode="&#x2003;" horiz-adv-x="2312" />
<glyph unicode="&#x2004;" horiz-adv-x="770" />
<glyph unicode="&#x2005;" horiz-adv-x="578" />
<glyph unicode="&#x2006;" horiz-adv-x="385" />
<glyph unicode="&#x2007;" horiz-adv-x="385" />
<glyph unicode="&#x2008;" horiz-adv-x="289" />
<glyph unicode="&#x2009;" horiz-adv-x="462" />
<glyph unicode="&#x200a;" horiz-adv-x="128" />
<glyph unicode="&#x202f;" horiz-adv-x="462" />
<glyph unicode="&#x205f;" horiz-adv-x="578" />
<glyph unicode="&#x25fc;" horiz-adv-x="1228" d="M0 1229h1229v-1229h-1229v1229z" />
</font>
</defs>
</svg>
